<?xml version="1.0"?>
<!DOCTYPE lmms-project>
<lmms-project version="23" creator="LMMS" creatorversion="1.3.0-alpha.1.184+g3964c53a0" type="song">
  <head timesig_denominator="4" masterpitch="0" mastervol="100" bpm="136" timesig_numerator="4"/>
  <song>
    <trackcontainer minimized="0" x="136" maximized="0" visible="1" height="636" y="1" width="1066" type="song">
      <track muted="1" name="unused" solo="0" mutedBeforeSolo="0" type="0">
        <instrumenttrack mixch="0" pitch="0" range_import="1" lastkey="127" enablecc="0" enabled="0" pan="0" basenote="69" keymap="0" vol="100" firstkey="0" usemasterpitch="1" scale="0" pitchrange="1">
          <midicontrollers cc25="0" cc107="0" cc22="0" cc108="0" cc92="0" cc52="0" cc71="0" cc113="0" cc54="0" cc99="0" cc32="0" cc67="0" cc60="0" cc102="0" cc0="0" cc117="0" cc125="0" cc7="0" cc74="0" cc18="0" cc45="0" cc56="0" cc30="0" cc15="0" cc72="0" cc94="0" cc78="0" cc116="0" cc118="0" cc121="0" cc4="0" cc89="0" cc96="0" cc79="0" cc35="0" cc12="0" cc127="0" cc9="0" cc40="0" cc90="0" cc23="0" cc77="0" cc101="0" cc66="0" cc76="0" cc51="0" cc47="0" cc44="0" cc84="0" cc110="0" cc61="0" cc91="0" cc28="0" cc16="0" cc10="0" cc20="0" cc19="0" cc97="0" cc98="0" cc13="0" cc69="0" cc95="0" cc112="0" cc31="0" cc49="0" cc24="0" cc120="0" cc103="0" cc65="0" cc34="0" cc63="0" cc115="0" cc73="0" cc11="0" cc26="0" cc42="0" cc100="0" cc33="0" cc6="0" cc70="0" cc75="0" cc14="0" cc87="0" cc41="0" cc43="0" cc38="0" cc104="0" cc48="0" cc55="0" cc86="0" cc119="0" cc106="0" cc83="0" cc82="0" cc53="0" cc17="0" cc8="0" cc68="0" cc2="0" cc1="0" cc64="0" cc81="0" cc50="0" cc3="0" cc5="0" cc93="0" cc109="0" cc46="0" cc36="0" cc80="0" cc58="0" cc126="0" cc124="0" cc37="0" cc88="0" cc57="0" cc39="0" cc123="0" cc59="0" cc122="0" cc62="0" cc111="0" cc21="0" cc114="0" cc27="0" cc85="0" cc105="0" cc29="0"/>
          <instrument name="tripleoscillator">
            <tripleoscillator userwavefile0="" finer1="0" userwavefile1="" useWaveTable2="0" stphdetun2="0" pan1="0" modalgo1="2" userwavefile2="" finer0="0" vol0="33" modalgo3="2" pan0="0" stphdetun1="0" phoffset2="0" vol2="0" coarse2="-24" modalgo2="2" useWaveTable1="0" finel0="0" vol1="0" finel1="0" stphdetun0="0" coarse1="-12" finel2="0" phoffset1="0" wavetype1="0" pan2="0" wavetype2="0" coarse0="0" useWaveTable3="0" wavetype0="2" finer2="0" phoffset0="0">
              <key/>
            </tripleoscillator>
          </instrument>
          <eldata fcut="14000" fwet="0" fres="0.5" ftype="0">
            <elvol pdel="0" amt="1" ctlenvamt="0" lpdel="0" rel="0.1" hold="0" latt="0" lshp="0" lspd="0.1" dec="0.5" userwavefile="" lspd_numerator="4" x100="0" sustain="0.5" lspd_denominator="4" lspd_syncmode="0" lamt="0" att="0"/>
            <elcut pdel="0" amt="0" ctlenvamt="0" lpdel="0" rel="0.1" hold="0.5" latt="0" lshp="0" lspd="0.1" dec="0.5" userwavefile="" lspd_numerator="4" x100="0" sustain="0.5" lspd_denominator="4" lspd_syncmode="0" lamt="0" att="0"/>
            <elres pdel="0" amt="0" ctlenvamt="0" lpdel="0" rel="0.1" hold="0.5" latt="0" lshp="0" lspd="0.1" dec="0.5" userwavefile="" lspd_numerator="4" x100="0" sustain="0.5" lspd_denominator="4" lspd_syncmode="0" lamt="0" att="0"/>
          </eldata>
          <chordcreator chord="0" chordrange="1" chord-enabled="0"/>
          <arpeggiator arptime_denominator="4" arp-enabled="0" arptime_numerator="4" arprepeats="1" arpgate="100" arpskip="0" arptime="100" arpdir="0" arpcycle="0" arptime_syncmode="0" arp="0" arprange="1" arpmiss="0" arpmode="0"/>
          <midiport writable="0" inputchannel="0" fixedinputvelocity="-1" readable="0" inputcontroller="0" fixedoutputnote="-1" outputcontroller="0" fixedoutputvelocity="-1" outputchannel="1" outputprogram="1" basevelocity="63"/>
          <fxchain numofeffects="1" enabled="1">
            <effect autoquit_syncmode="0" autoquit="1" wet="0.11" name="reverbsc" autoquit_numerator="4" autoquit_denominator="4" gate="0" on="1">
              <ReverbSCControls input_gain="0" size="0.89" color="10000" output_gain="0"/>
              <key/>
            </effect>
          </fxchain>
        </instrumenttrack>
        <midiclip muted="1" name="" pos="2304" type="1" steps="16">
          <note key="50" pan="0" pos="0" vol="100" len="24"/>
          <note key="50" pan="0" pos="48" vol="100" len="24"/>
          <note key="50" pan="0" pos="96" vol="100" len="24"/>
          <note key="45" pan="0" pos="132" vol="100" len="12"/>
          <note key="48" pan="0" pos="144" vol="100" len="12"/>
          <note key="49" pan="0" pos="168" vol="100" len="12"/>
          <note key="50" pan="0" pos="192" vol="100" len="24"/>
          <note key="50" pan="0" pos="240" vol="100" len="24"/>
          <note key="50" pan="0" pos="288" vol="100" len="24"/>
          <note key="43" pan="0" pos="300" vol="100" len="6"/>
          <note key="44" pan="0" pos="312" vol="100" len="6"/>
          <note key="45" pan="0" pos="324" vol="100" len="12"/>
          <note key="46" pan="0" pos="336" vol="100" len="12"/>
          <note key="47" pan="0" pos="348" vol="100" len="6"/>
          <note key="48" pan="0" pos="360" vol="100" len="12"/>
          <note key="49" pan="0" pos="372" vol="100" len="6"/>
        </midiclip>
      </track>
      <track muted="0" name="sawrif" solo="0" mutedBeforeSolo="0" type="0">
        <instrumenttrack mixch="3" pitch="0" range_import="1" lastkey="127" enablecc="0" enabled="0" pan="0" basenote="69" keymap="0" vol="100" firstkey="0" usemasterpitch="1" scale="0" pitchrange="1">
          <midicontrollers cc25="0" cc107="0" cc22="0" cc108="0" cc92="0" cc52="0" cc71="0" cc113="0" cc54="0" cc99="0" cc32="0" cc67="0" cc60="0" cc102="0" cc0="0" cc117="0" cc125="0" cc7="0" cc74="0" cc18="0" cc45="0" cc56="0" cc30="0" cc15="0" cc72="0" cc94="0" cc78="0" cc116="0" cc118="0" cc121="0" cc4="0" cc89="0" cc96="0" cc79="0" cc35="0" cc12="0" cc127="0" cc9="0" cc40="0" cc90="0" cc23="0" cc77="0" cc101="0" cc66="0" cc76="0" cc51="0" cc47="0" cc44="0" cc84="0" cc110="0" cc61="0" cc91="0" cc28="0" cc16="0" cc10="0" cc20="0" cc19="0" cc97="0" cc98="0" cc13="0" cc69="0" cc95="0" cc112="0" cc31="0" cc49="0" cc24="0" cc120="0" cc103="0" cc65="0" cc34="0" cc63="0" cc115="0" cc73="0" cc11="0" cc26="0" cc42="0" cc100="0" cc33="0" cc6="0" cc70="0" cc75="0" cc14="0" cc87="0" cc41="0" cc43="0" cc38="0" cc104="0" cc48="0" cc55="0" cc86="0" cc119="0" cc106="0" cc83="0" cc82="0" cc53="0" cc17="0" cc8="0" cc68="0" cc2="0" cc1="0" cc64="0" cc81="0" cc50="0" cc3="0" cc5="0" cc93="0" cc109="0" cc46="0" cc36="0" cc80="0" cc58="0" cc126="0" cc124="0" cc37="0" cc88="0" cc57="0" cc39="0" cc123="0" cc59="0" cc122="0" cc62="0" cc111="0" cc21="0" cc114="0" cc27="0" cc85="0" cc105="0" cc29="0"/>
          <instrument name="tripleoscillator">
            <tripleoscillator userwavefile0="" finer1="0" userwavefile1="" useWaveTable2="0" stphdetun2="0" pan1="0" modalgo1="2" userwavefile2="" finer0="0" vol0="33" modalgo3="2" pan0="0" stphdetun1="0" phoffset2="0" vol2="0" coarse2="-24" modalgo2="2" useWaveTable1="0" finel0="0" vol1="0" finel1="0" stphdetun0="0" coarse1="-12" finel2="0" phoffset1="0" wavetype1="0" pan2="0" wavetype2="0" coarse0="0" useWaveTable3="0" wavetype0="2" finer2="0" phoffset0="0">
              <key/>
            </tripleoscillator>
          </instrument>
          <eldata fcut="11948" fwet="1" fres="0.5" ftype="0">
            <elvol pdel="0" amt="1" ctlenvamt="0" lpdel="0" rel="0.1" hold="0" latt="0" lshp="0" lspd="0.1" dec="0.5" userwavefile="" lspd_numerator="4" x100="0" sustain="0.5" lspd_denominator="4" lspd_syncmode="0" lamt="0" att="0"/>
            <elcut pdel="0" amt="0" ctlenvamt="0" lpdel="0" rel="0.1" hold="0.5" latt="0" lshp="0" lspd="0.1" dec="0.5" userwavefile="" lspd_numerator="4" x100="0" sustain="0.5" lspd_denominator="4" lspd_syncmode="0" lamt="0" att="0"/>
            <elres pdel="0" amt="0" ctlenvamt="0" lpdel="0" rel="0.1" hold="0.5" latt="0" lshp="0" lspd="0.1" dec="0.5" userwavefile="" lspd_numerator="4" x100="0" sustain="0.5" lspd_denominator="4" lspd_syncmode="0" lamt="0" att="0"/>
          </eldata>
          <chordcreator chord="0" chordrange="1" chord-enabled="0"/>
          <arpeggiator arptime_denominator="4" arp-enabled="0" arptime_numerator="4" arprepeats="1" arpgate="100" arpskip="0" arptime="100" arpdir="0" arpcycle="0" arptime_syncmode="0" arp="0" arprange="1" arpmiss="0" arpmode="0"/>
          <midiport writable="0" inputchannel="0" fixedinputvelocity="-1" readable="0" inputcontroller="0" fixedoutputnote="-1" outputcontroller="0" fixedoutputvelocity="-1" outputchannel="1" outputprogram="1" basevelocity="63"/>
          <fxchain numofeffects="0" enabled="1"/>
        </instrumenttrack>
        <midiclip muted="0" name="" pos="768" type="1" steps="16">
          <note key="50" pan="0" pos="0" vol="100" len="24"/>
          <note key="50" pan="0" pos="48" vol="100" len="24"/>
          <note key="50" pan="0" pos="96" vol="100" len="24"/>
          <note key="45" pan="0" pos="132" vol="100" len="12"/>
          <note key="48" pan="0" pos="144" vol="100" len="12"/>
          <note key="49" pan="0" pos="168" vol="100" len="12"/>
          <note key="50" pan="0" pos="192" vol="100" len="24"/>
          <note key="50" pan="0" pos="240" vol="100" len="24"/>
          <note key="50" pan="0" pos="288" vol="100" len="24"/>
          <note key="45" pan="0" pos="324" vol="100" len="12"/>
          <note key="48" pan="0" pos="336" vol="100" len="12"/>
          <note key="49" pan="0" pos="360" vol="100" len="12"/>
          <note key="50" pan="0" pos="384" vol="100" len="24"/>
          <note key="50" pan="0" pos="432" vol="100" len="24"/>
          <note key="50" pan="0" pos="480" vol="100" len="24"/>
          <note key="45" pan="0" pos="516" vol="100" len="12"/>
          <note key="48" pan="0" pos="528" vol="100" len="12"/>
          <note key="49" pan="0" pos="552" vol="100" len="12"/>
          <note key="50" pan="0" pos="576" vol="100" len="24"/>
          <note key="50" pan="0" pos="624" vol="100" len="24"/>
          <note key="50" pan="0" pos="672" vol="100" len="24"/>
          <note key="43" pan="0" pos="684" vol="100" len="6"/>
          <note key="44" pan="0" pos="696" vol="100" len="6"/>
          <note key="45" pan="0" pos="708" vol="100" len="12"/>
          <note key="46" pan="0" pos="720" vol="100" len="12"/>
          <note key="47" pan="0" pos="732" vol="100" len="6"/>
          <note key="48" pan="0" pos="744" vol="100" len="12"/>
          <note key="49" pan="0" pos="756" vol="100" len="6"/>
        </midiclip>
        <midiclip muted="0" name="" pos="1536" type="1" steps="16">
          <note key="50" pan="0" pos="0" vol="100" len="24"/>
          <note key="50" pan="0" pos="48" vol="100" len="24"/>
          <note key="50" pan="0" pos="96" vol="100" len="24"/>
          <note key="45" pan="0" pos="132" vol="100" len="12"/>
          <note key="48" pan="0" pos="144" vol="100" len="12"/>
          <note key="49" pan="0" pos="168" vol="100" len="12"/>
          <note key="50" pan="0" pos="192" vol="100" len="24"/>
          <note key="50" pan="0" pos="240" vol="100" len="24"/>
          <note key="50" pan="0" pos="288" vol="100" len="24"/>
          <note key="45" pan="0" pos="324" vol="100" len="12"/>
          <note key="48" pan="0" pos="336" vol="100" len="12"/>
          <note key="49" pan="0" pos="360" vol="100" len="12"/>
          <note key="50" pan="0" pos="384" vol="100" len="24"/>
          <note key="50" pan="0" pos="432" vol="100" len="24"/>
          <note key="50" pan="0" pos="480" vol="100" len="24"/>
          <note key="45" pan="0" pos="516" vol="100" len="12"/>
          <note key="48" pan="0" pos="528" vol="100" len="12"/>
          <note key="49" pan="0" pos="552" vol="100" len="12"/>
          <note key="50" pan="0" pos="576" vol="100" len="24"/>
          <note key="50" pan="0" pos="624" vol="100" len="24"/>
          <note key="50" pan="0" pos="672" vol="100" len="24"/>
          <note key="43" pan="0" pos="684" vol="100" len="6"/>
          <note key="44" pan="0" pos="696" vol="100" len="6"/>
          <note key="45" pan="0" pos="708" vol="100" len="12"/>
          <note key="46" pan="0" pos="720" vol="100" len="12"/>
          <note key="47" pan="0" pos="732" vol="100" len="6"/>
          <note key="48" pan="0" pos="744" vol="100" len="12"/>
          <note key="49" pan="0" pos="756" vol="100" len="6"/>
        </midiclip>
        <midiclip muted="0" name="" pos="2304" type="1" steps="16">
          <note key="50" pan="0" pos="0" vol="100" len="24"/>
          <note key="50" pan="0" pos="48" vol="100" len="24"/>
          <note key="50" pan="0" pos="96" vol="100" len="24"/>
          <note key="45" pan="0" pos="132" vol="100" len="12"/>
          <note key="48" pan="0" pos="144" vol="100" len="12"/>
          <note key="49" pan="0" pos="168" vol="100" len="12"/>
          <note key="50" pan="0" pos="192" vol="100" len="24"/>
          <note key="50" pan="0" pos="240" vol="100" len="24"/>
          <note key="50" pan="0" pos="288" vol="100" len="24"/>
          <note key="45" pan="0" pos="324" vol="100" len="12"/>
          <note key="48" pan="0" pos="336" vol="100" len="12"/>
          <note key="49" pan="0" pos="360" vol="100" len="12"/>
          <note key="50" pan="0" pos="384" vol="100" len="24"/>
          <note key="50" pan="0" pos="432" vol="100" len="24"/>
          <note key="50" pan="0" pos="480" vol="100" len="24"/>
          <note key="45" pan="0" pos="516" vol="100" len="12"/>
          <note key="48" pan="0" pos="528" vol="100" len="12"/>
          <note key="49" pan="0" pos="552" vol="100" len="12"/>
          <note key="50" pan="0" pos="576" vol="100" len="24"/>
          <note key="50" pan="0" pos="624" vol="100" len="24"/>
          <note key="50" pan="0" pos="672" vol="100" len="24"/>
          <note key="43" pan="0" pos="684" vol="100" len="6"/>
          <note key="44" pan="0" pos="696" vol="100" len="6"/>
          <note key="45" pan="0" pos="708" vol="100" len="12"/>
          <note key="46" pan="0" pos="720" vol="100" len="12"/>
          <note key="47" pan="0" pos="732" vol="100" len="6"/>
          <note key="48" pan="0" pos="744" vol="100" len="12"/>
          <note key="49" pan="0" pos="756" vol="100" len="6"/>
        </midiclip>
        <midiclip muted="0" name="" pos="3072" type="1" steps="16">
          <note key="50" pan="0" pos="0" vol="100" len="24"/>
          <note key="50" pan="0" pos="48" vol="100" len="24"/>
          <note key="50" pan="0" pos="96" vol="100" len="24"/>
          <note key="45" pan="0" pos="132" vol="100" len="12"/>
          <note key="48" pan="0" pos="144" vol="100" len="12"/>
          <note key="49" pan="0" pos="168" vol="100" len="12"/>
          <note key="50" pan="0" pos="192" vol="100" len="24"/>
          <note key="50" pan="0" pos="240" vol="100" len="24"/>
          <note key="50" pan="0" pos="288" vol="100" len="24"/>
          <note key="45" pan="0" pos="324" vol="100" len="12"/>
          <note key="48" pan="0" pos="336" vol="100" len="12"/>
          <note key="49" pan="0" pos="360" vol="100" len="12"/>
          <note key="50" pan="0" pos="384" vol="100" len="24"/>
          <note key="50" pan="0" pos="432" vol="100" len="24"/>
          <note key="50" pan="0" pos="480" vol="100" len="24"/>
          <note key="45" pan="0" pos="516" vol="100" len="12"/>
          <note key="48" pan="0" pos="528" vol="100" len="12"/>
          <note key="49" pan="0" pos="552" vol="100" len="12"/>
          <note key="50" pan="0" pos="576" vol="100" len="24"/>
          <note key="50" pan="0" pos="624" vol="100" len="24"/>
          <note key="50" pan="0" pos="672" vol="100" len="24"/>
          <note key="43" pan="0" pos="684" vol="100" len="6"/>
          <note key="44" pan="0" pos="696" vol="100" len="6"/>
          <note key="45" pan="0" pos="708" vol="100" len="12"/>
          <note key="46" pan="0" pos="720" vol="100" len="12"/>
          <note key="47" pan="0" pos="732" vol="100" len="6"/>
          <note key="48" pan="0" pos="744" vol="100" len="12"/>
          <note key="49" pan="0" pos="756" vol="100" len="6"/>
        </midiclip>
        <midiclip muted="0" name="" pos="3840" type="1" steps="16">
          <note key="50" pan="0" pos="0" vol="100" len="24"/>
          <note key="50" pan="0" pos="48" vol="100" len="24"/>
          <note key="50" pan="0" pos="96" vol="100" len="24"/>
          <note key="45" pan="0" pos="132" vol="100" len="12"/>
          <note key="48" pan="0" pos="144" vol="100" len="12"/>
          <note key="49" pan="0" pos="168" vol="100" len="12"/>
          <note key="50" pan="0" pos="192" vol="100" len="24"/>
          <note key="50" pan="0" pos="240" vol="100" len="24"/>
          <note key="50" pan="0" pos="288" vol="100" len="24"/>
          <note key="45" pan="0" pos="324" vol="100" len="12"/>
          <note key="48" pan="0" pos="336" vol="100" len="12"/>
          <note key="49" pan="0" pos="360" vol="100" len="12"/>
          <note key="50" pan="0" pos="384" vol="100" len="24"/>
          <note key="50" pan="0" pos="432" vol="100" len="24"/>
          <note key="50" pan="0" pos="480" vol="100" len="24"/>
          <note key="45" pan="0" pos="516" vol="100" len="12"/>
          <note key="48" pan="0" pos="528" vol="100" len="12"/>
          <note key="49" pan="0" pos="552" vol="100" len="12"/>
          <note key="50" pan="0" pos="576" vol="100" len="24"/>
          <note key="50" pan="0" pos="624" vol="100" len="24"/>
          <note key="50" pan="0" pos="672" vol="100" len="24"/>
          <note key="43" pan="0" pos="684" vol="100" len="6"/>
          <note key="44" pan="0" pos="696" vol="100" len="6"/>
          <note key="45" pan="0" pos="708" vol="100" len="12"/>
          <note key="46" pan="0" pos="720" vol="100" len="12"/>
          <note key="47" pan="0" pos="732" vol="100" len="6"/>
          <note key="48" pan="0" pos="744" vol="100" len="12"/>
          <note key="49" pan="0" pos="756" vol="100" len="6"/>
        </midiclip>
        <midiclip muted="0" name="" pos="4608" type="1" steps="16">
          <note key="50" pan="0" pos="0" vol="100" len="24"/>
          <note key="50" pan="0" pos="48" vol="100" len="24"/>
          <note key="50" pan="0" pos="96" vol="100" len="24"/>
          <note key="45" pan="0" pos="132" vol="100" len="12"/>
          <note key="48" pan="0" pos="144" vol="100" len="12"/>
          <note key="49" pan="0" pos="168" vol="100" len="12"/>
          <note key="50" pan="0" pos="192" vol="100" len="24"/>
          <note key="50" pan="0" pos="240" vol="100" len="24"/>
          <note key="50" pan="0" pos="288" vol="100" len="24"/>
          <note key="45" pan="0" pos="324" vol="100" len="12"/>
          <note key="48" pan="0" pos="336" vol="100" len="12"/>
          <note key="49" pan="0" pos="360" vol="100" len="12"/>
          <note key="50" pan="0" pos="384" vol="100" len="24"/>
          <note key="50" pan="0" pos="432" vol="100" len="24"/>
          <note key="50" pan="0" pos="480" vol="100" len="24"/>
          <note key="45" pan="0" pos="516" vol="100" len="12"/>
          <note key="48" pan="0" pos="528" vol="100" len="12"/>
          <note key="49" pan="0" pos="552" vol="100" len="12"/>
          <note key="50" pan="0" pos="576" vol="100" len="24"/>
          <note key="50" pan="0" pos="624" vol="100" len="24"/>
          <note key="50" pan="0" pos="672" vol="100" len="24"/>
          <note key="43" pan="0" pos="684" vol="100" len="6"/>
          <note key="44" pan="0" pos="696" vol="100" len="6"/>
          <note key="45" pan="0" pos="708" vol="100" len="12"/>
          <note key="46" pan="0" pos="720" vol="100" len="12"/>
          <note key="47" pan="0" pos="732" vol="100" len="6"/>
          <note key="48" pan="0" pos="744" vol="100" len="12"/>
          <note key="49" pan="0" pos="756" vol="100" len="6"/>
        </midiclip>
        <midiclip muted="0" name="" pos="7680" type="1" steps="16">
          <note key="50" pan="0" pos="0" vol="100" len="24"/>
          <note key="50" pan="0" pos="48" vol="100" len="24"/>
          <note key="50" pan="0" pos="96" vol="100" len="24"/>
          <note key="45" pan="0" pos="132" vol="100" len="12"/>
          <note key="48" pan="0" pos="144" vol="100" len="12"/>
          <note key="49" pan="0" pos="168" vol="100" len="12"/>
          <note key="50" pan="0" pos="192" vol="100" len="24"/>
          <note key="50" pan="0" pos="240" vol="100" len="24"/>
          <note key="50" pan="0" pos="288" vol="100" len="24"/>
          <note key="45" pan="0" pos="324" vol="100" len="12"/>
          <note key="48" pan="0" pos="336" vol="100" len="12"/>
          <note key="49" pan="0" pos="360" vol="100" len="12"/>
          <note key="50" pan="0" pos="384" vol="100" len="24"/>
          <note key="50" pan="0" pos="432" vol="100" len="24"/>
          <note key="50" pan="0" pos="480" vol="100" len="24"/>
          <note key="45" pan="0" pos="516" vol="100" len="12"/>
          <note key="48" pan="0" pos="528" vol="100" len="12"/>
          <note key="49" pan="0" pos="552" vol="100" len="12"/>
          <note key="50" pan="0" pos="576" vol="100" len="24"/>
          <note key="50" pan="0" pos="624" vol="100" len="24"/>
          <note key="50" pan="0" pos="672" vol="100" len="24"/>
          <note key="43" pan="0" pos="684" vol="100" len="6"/>
          <note key="44" pan="0" pos="696" vol="100" len="6"/>
          <note key="45" pan="0" pos="708" vol="100" len="12"/>
          <note key="46" pan="0" pos="720" vol="100" len="12"/>
          <note key="47" pan="0" pos="732" vol="100" len="6"/>
          <note key="48" pan="0" pos="744" vol="100" len="12"/>
          <note key="49" pan="0" pos="756" vol="100" len="6"/>
        </midiclip>
        <midiclip muted="0" name="" pos="0" type="1" steps="16">
          <note key="50" pan="0" pos="0" vol="100" len="24"/>
          <note key="50" pan="0" pos="48" vol="100" len="24"/>
          <note key="50" pan="0" pos="96" vol="100" len="24"/>
          <note key="45" pan="0" pos="132" vol="100" len="12"/>
          <note key="48" pan="0" pos="144" vol="100" len="12"/>
          <note key="49" pan="0" pos="168" vol="100" len="12"/>
          <note key="50" pan="0" pos="192" vol="100" len="24"/>
          <note key="50" pan="0" pos="240" vol="100" len="24"/>
          <note key="50" pan="0" pos="288" vol="100" len="24"/>
          <note key="45" pan="0" pos="324" vol="100" len="12"/>
          <note key="48" pan="0" pos="336" vol="100" len="12"/>
          <note key="49" pan="0" pos="360" vol="100" len="12"/>
          <note key="50" pan="0" pos="384" vol="100" len="24"/>
          <note key="50" pan="0" pos="432" vol="100" len="24"/>
          <note key="50" pan="0" pos="480" vol="100" len="24"/>
          <note key="45" pan="0" pos="516" vol="100" len="12"/>
          <note key="48" pan="0" pos="528" vol="100" len="12"/>
          <note key="49" pan="0" pos="552" vol="100" len="12"/>
          <note key="50" pan="0" pos="576" vol="100" len="24"/>
          <note key="50" pan="0" pos="624" vol="100" len="24"/>
          <note key="50" pan="0" pos="672" vol="100" len="12"/>
          <note key="43" pan="0" pos="684" vol="100" len="6"/>
          <note key="44" pan="0" pos="696" vol="100" len="6"/>
          <note key="45" pan="0" pos="708" vol="100" len="12"/>
          <note key="46" pan="0" pos="720" vol="100" len="12"/>
          <note key="47" pan="0" pos="732" vol="100" len="6"/>
          <note key="48" pan="0" pos="744" vol="100" len="12"/>
          <note key="49" pan="0" pos="756" vol="100" len="6"/>
        </midiclip>
        <midiclip muted="0" name="" pos="9216" type="1" steps="16">
          <note key="81" pan="0" pos="0" vol="100" len="24"/>
          <note key="60" pan="0" pos="0" vol="100" len="24"/>
          <note key="76" pan="0" pos="24" vol="100" len="24"/>
          <note key="72" pan="0" pos="48" vol="100" len="24"/>
          <note key="76" pan="0" pos="72" vol="100" len="24"/>
          <note key="81" pan="0" pos="96" vol="100" len="24"/>
          <note key="76" pan="0" pos="120" vol="100" len="24"/>
          <note key="63" pan="0" pos="120" vol="100" len="24"/>
          <note key="72" pan="0" pos="144" vol="100" len="24"/>
          <note key="64" pan="0" pos="144" vol="100" len="24"/>
          <note key="76" pan="0" pos="168" vol="100" len="24"/>
          <note key="62" pan="0" pos="168" vol="100" len="24"/>
          <note key="78" pan="0" pos="192" vol="100" len="24"/>
          <note key="74" pan="0" pos="216" vol="100" len="24"/>
          <note key="69" pan="0" pos="240" vol="100" len="24"/>
          <note key="74" pan="0" pos="264" vol="100" len="24"/>
          <note key="59" pan="0" pos="264" vol="100" len="24"/>
          <note key="78" pan="0" pos="288" vol="100" len="24"/>
          <note key="67" pan="0" pos="288" vol="100" len="24"/>
          <note key="74" pan="0" pos="312" vol="100" len="24"/>
          <note key="69" pan="0" pos="336" vol="100" len="24"/>
          <note key="66" pan="0" pos="336" vol="100" len="24"/>
          <note key="74" pan="0" pos="360" vol="100" len="24"/>
          <note key="80" pan="0" pos="384" vol="100" len="24"/>
          <note key="64" pan="0" pos="384" vol="100" len="24"/>
          <note key="71" pan="0" pos="408" vol="100" len="24"/>
          <note key="68" pan="0" pos="432" vol="100" len="24"/>
          <note key="71" pan="0" pos="456" vol="100" len="24"/>
          <note key="76" pan="0" pos="480" vol="100" len="24"/>
          <note key="71" pan="0" pos="504" vol="100" len="24"/>
          <note key="62" pan="0" pos="504" vol="100" len="24"/>
          <note key="68" pan="0" pos="528" vol="100" len="24"/>
          <note key="61" pan="0" pos="528" vol="100" len="24"/>
          <note key="76" pan="0" pos="552" vol="100" len="24"/>
          <note key="59" pan="0" pos="552" vol="100" len="24"/>
          <note key="74" pan="0" pos="576" vol="100" len="24"/>
          <note key="69" pan="0" pos="600" vol="100" len="24"/>
          <note key="66" pan="0" pos="624" vol="100" len="24"/>
          <note key="69" pan="0" pos="648" vol="100" len="24"/>
          <note key="59" pan="0" pos="648" vol="100" len="24"/>
          <note key="74" pan="0" pos="672" vol="100" len="24"/>
          <note key="64" pan="0" pos="672" vol="100" len="24"/>
          <note key="69" pan="0" pos="696" vol="100" len="24"/>
          <note key="66" pan="0" pos="720" vol="100" len="24"/>
          <note key="62" pan="0" pos="720" vol="100" len="24"/>
          <note key="69" pan="0" pos="744" vol="100" len="24"/>
        </midiclip>
        <midiclip muted="1" name="" pos="11904" type="1" steps="16">
          <note key="81" pan="0" pos="0" vol="100" len="24"/>
          <note key="60" pan="0" pos="0" vol="100" len="24"/>
          <note key="76" pan="0" pos="24" vol="100" len="24"/>
          <note key="72" pan="0" pos="48" vol="100" len="24"/>
          <note key="76" pan="0" pos="72" vol="100" len="24"/>
          <note key="81" pan="0" pos="96" vol="100" len="24"/>
          <note key="76" pan="0" pos="120" vol="100" len="24"/>
          <note key="63" pan="0" pos="120" vol="100" len="24"/>
          <note key="72" pan="0" pos="144" vol="100" len="24"/>
          <note key="64" pan="0" pos="144" vol="100" len="24"/>
          <note key="76" pan="0" pos="168" vol="100" len="24"/>
          <note key="62" pan="0" pos="168" vol="100" len="24"/>
          <note key="78" pan="0" pos="192" vol="100" len="24"/>
          <note key="74" pan="0" pos="216" vol="100" len="24"/>
          <note key="69" pan="0" pos="240" vol="100" len="24"/>
          <note key="74" pan="0" pos="264" vol="100" len="24"/>
          <note key="59" pan="0" pos="264" vol="100" len="24"/>
          <note key="78" pan="0" pos="288" vol="100" len="24"/>
          <note key="67" pan="0" pos="288" vol="100" len="24"/>
          <note key="74" pan="0" pos="312" vol="100" len="24"/>
          <note key="69" pan="0" pos="336" vol="100" len="24"/>
          <note key="66" pan="0" pos="336" vol="100" len="24"/>
          <note key="74" pan="0" pos="360" vol="100" len="24"/>
          <note key="80" pan="0" pos="384" vol="100" len="24"/>
          <note key="64" pan="0" pos="384" vol="100" len="24"/>
          <note key="71" pan="0" pos="408" vol="100" len="24"/>
          <note key="68" pan="0" pos="432" vol="100" len="24"/>
          <note key="71" pan="0" pos="456" vol="100" len="24"/>
          <note key="76" pan="0" pos="480" vol="100" len="24"/>
          <note key="71" pan="0" pos="504" vol="100" len="24"/>
          <note key="62" pan="0" pos="504" vol="100" len="24"/>
          <note key="68" pan="0" pos="528" vol="100" len="24"/>
          <note key="61" pan="0" pos="528" vol="100" len="24"/>
          <note key="76" pan="0" pos="552" vol="100" len="24"/>
          <note key="59" pan="0" pos="552" vol="100" len="24"/>
          <note key="74" pan="0" pos="576" vol="100" len="24"/>
          <note key="69" pan="0" pos="600" vol="100" len="24"/>
          <note key="66" pan="0" pos="624" vol="100" len="24"/>
          <note key="69" pan="0" pos="648" vol="100" len="24"/>
          <note key="59" pan="0" pos="648" vol="100" len="24"/>
          <note key="74" pan="0" pos="672" vol="100" len="24"/>
          <note key="64" pan="0" pos="672" vol="100" len="24"/>
          <note key="69" pan="0" pos="696" vol="100" len="24"/>
          <note key="66" pan="0" pos="720" vol="100" len="24"/>
          <note key="61" pan="0" pos="720" vol="100" len="24"/>
          <note key="69" pan="0" pos="744" vol="100" len="24"/>
        </midiclip>
        <midiclip muted="0" name="" pos="9984" type="1" steps="16">
          <note key="81" pan="0" pos="0" vol="100" len="24"/>
          <note key="60" pan="0" pos="0" vol="100" len="24"/>
          <note key="76" pan="0" pos="24" vol="100" len="24"/>
          <note key="72" pan="0" pos="48" vol="100" len="24"/>
          <note key="76" pan="0" pos="72" vol="100" len="24"/>
          <note key="81" pan="0" pos="96" vol="100" len="24"/>
          <note key="76" pan="0" pos="120" vol="100" len="24"/>
          <note key="63" pan="0" pos="120" vol="100" len="24"/>
          <note key="72" pan="0" pos="144" vol="100" len="24"/>
          <note key="64" pan="0" pos="144" vol="100" len="24"/>
          <note key="76" pan="0" pos="168" vol="100" len="24"/>
          <note key="62" pan="0" pos="168" vol="100" len="24"/>
          <note key="78" pan="0" pos="192" vol="100" len="24"/>
          <note key="74" pan="0" pos="216" vol="100" len="24"/>
          <note key="69" pan="0" pos="240" vol="100" len="24"/>
          <note key="74" pan="0" pos="264" vol="100" len="24"/>
          <note key="59" pan="0" pos="264" vol="100" len="24"/>
          <note key="78" pan="0" pos="288" vol="100" len="24"/>
          <note key="67" pan="0" pos="288" vol="100" len="24"/>
          <note key="74" pan="0" pos="312" vol="100" len="24"/>
          <note key="69" pan="0" pos="336" vol="100" len="24"/>
          <note key="66" pan="0" pos="336" vol="100" len="24"/>
          <note key="74" pan="0" pos="360" vol="100" len="24"/>
          <note key="80" pan="0" pos="384" vol="100" len="24"/>
          <note key="64" pan="0" pos="384" vol="100" len="24"/>
          <note key="71" pan="0" pos="408" vol="100" len="24"/>
          <note key="68" pan="0" pos="432" vol="100" len="24"/>
          <note key="71" pan="0" pos="456" vol="100" len="24"/>
          <note key="76" pan="0" pos="480" vol="100" len="24"/>
          <note key="71" pan="0" pos="504" vol="100" len="24"/>
          <note key="62" pan="0" pos="504" vol="100" len="24"/>
          <note key="68" pan="0" pos="528" vol="100" len="24"/>
          <note key="61" pan="0" pos="528" vol="100" len="24"/>
          <note key="76" pan="0" pos="552" vol="100" len="24"/>
          <note key="59" pan="0" pos="552" vol="100" len="24"/>
          <note key="74" pan="0" pos="576" vol="100" len="24"/>
          <note key="69" pan="0" pos="600" vol="100" len="24"/>
          <note key="66" pan="0" pos="624" vol="100" len="24"/>
          <note key="69" pan="0" pos="648" vol="100" len="24"/>
          <note key="59" pan="0" pos="648" vol="100" len="24"/>
          <note key="74" pan="0" pos="672" vol="100" len="24"/>
          <note key="64" pan="0" pos="672" vol="100" len="24"/>
          <note key="69" pan="0" pos="696" vol="100" len="24"/>
          <note key="66" pan="0" pos="720" vol="100" len="24"/>
          <note key="62" pan="0" pos="720" vol="100" len="24"/>
          <note key="69" pan="0" pos="744" vol="100" len="24"/>
        </midiclip>
        <midiclip muted="0" name="" pos="10752" type="1" steps="16">
          <note key="81" pan="0" pos="0" vol="100" len="24"/>
          <note key="60" pan="0" pos="0" vol="100" len="24"/>
          <note key="76" pan="0" pos="24" vol="100" len="24"/>
          <note key="72" pan="0" pos="48" vol="100" len="24"/>
          <note key="76" pan="0" pos="72" vol="100" len="24"/>
          <note key="81" pan="0" pos="96" vol="100" len="24"/>
          <note key="76" pan="0" pos="120" vol="100" len="24"/>
          <note key="63" pan="0" pos="120" vol="100" len="24"/>
          <note key="72" pan="0" pos="144" vol="100" len="24"/>
          <note key="64" pan="0" pos="144" vol="100" len="24"/>
          <note key="76" pan="0" pos="168" vol="100" len="24"/>
          <note key="62" pan="0" pos="168" vol="100" len="24"/>
          <note key="78" pan="0" pos="192" vol="100" len="24"/>
          <note key="74" pan="0" pos="216" vol="100" len="24"/>
          <note key="69" pan="0" pos="240" vol="100" len="24"/>
          <note key="74" pan="0" pos="264" vol="100" len="24"/>
          <note key="59" pan="0" pos="264" vol="100" len="24"/>
          <note key="78" pan="0" pos="288" vol="100" len="24"/>
          <note key="67" pan="0" pos="288" vol="100" len="24"/>
          <note key="74" pan="0" pos="312" vol="100" len="24"/>
          <note key="69" pan="0" pos="336" vol="100" len="24"/>
          <note key="66" pan="0" pos="336" vol="100" len="24"/>
          <note key="74" pan="0" pos="360" vol="100" len="24"/>
          <note key="80" pan="0" pos="384" vol="100" len="24"/>
          <note key="64" pan="0" pos="384" vol="100" len="24"/>
          <note key="71" pan="0" pos="408" vol="100" len="24"/>
          <note key="68" pan="0" pos="432" vol="100" len="24"/>
          <note key="71" pan="0" pos="456" vol="100" len="24"/>
          <note key="76" pan="0" pos="480" vol="100" len="24"/>
          <note key="71" pan="0" pos="504" vol="100" len="24"/>
          <note key="62" pan="0" pos="504" vol="100" len="24"/>
          <note key="68" pan="0" pos="528" vol="100" len="24"/>
          <note key="61" pan="0" pos="528" vol="100" len="24"/>
          <note key="76" pan="0" pos="552" vol="100" len="24"/>
          <note key="59" pan="0" pos="552" vol="100" len="24"/>
          <note key="71" pan="0" pos="576" vol="100" len="24"/>
          <note key="67" pan="0" pos="600" vol="100" len="24"/>
          <note key="62" pan="0" pos="624" vol="100" len="24"/>
          <note key="67" pan="0" pos="648" vol="100" len="24"/>
          <note key="59" pan="0" pos="672" vol="100" len="24"/>
          <note key="55" pan="0" pos="696" vol="100" len="24"/>
          <note key="48" pan="0" pos="720" vol="100" len="24"/>
          <note key="49" pan="0" pos="744" vol="100" len="24"/>
        </midiclip>
        <midiclip muted="0" name="" pos="8448" type="1" steps="16">
          <note key="81" pan="0" pos="0" vol="100" len="24"/>
          <note key="60" pan="0" pos="0" vol="100" len="24"/>
          <note key="76" pan="0" pos="24" vol="100" len="24"/>
          <note key="72" pan="0" pos="48" vol="100" len="24"/>
          <note key="76" pan="0" pos="72" vol="100" len="24"/>
          <note key="81" pan="0" pos="96" vol="100" len="24"/>
          <note key="76" pan="0" pos="120" vol="100" len="24"/>
          <note key="63" pan="0" pos="120" vol="100" len="24"/>
          <note key="72" pan="0" pos="144" vol="100" len="24"/>
          <note key="64" pan="0" pos="144" vol="100" len="24"/>
          <note key="76" pan="0" pos="168" vol="100" len="24"/>
          <note key="62" pan="0" pos="168" vol="100" len="24"/>
          <note key="78" pan="0" pos="192" vol="100" len="24"/>
          <note key="74" pan="0" pos="216" vol="100" len="24"/>
          <note key="69" pan="0" pos="240" vol="100" len="24"/>
          <note key="74" pan="0" pos="264" vol="100" len="24"/>
          <note key="59" pan="0" pos="264" vol="100" len="24"/>
          <note key="78" pan="0" pos="288" vol="100" len="24"/>
          <note key="67" pan="0" pos="288" vol="100" len="24"/>
          <note key="74" pan="0" pos="312" vol="100" len="24"/>
          <note key="69" pan="0" pos="336" vol="100" len="24"/>
          <note key="66" pan="0" pos="336" vol="100" len="24"/>
          <note key="74" pan="0" pos="360" vol="100" len="24"/>
          <note key="80" pan="0" pos="384" vol="100" len="24"/>
          <note key="64" pan="0" pos="384" vol="100" len="24"/>
          <note key="71" pan="0" pos="408" vol="100" len="24"/>
          <note key="68" pan="0" pos="432" vol="100" len="24"/>
          <note key="71" pan="0" pos="456" vol="100" len="24"/>
          <note key="76" pan="0" pos="480" vol="100" len="24"/>
          <note key="71" pan="0" pos="504" vol="100" len="24"/>
          <note key="62" pan="0" pos="504" vol="100" len="24"/>
          <note key="68" pan="0" pos="528" vol="100" len="24"/>
          <note key="61" pan="0" pos="528" vol="100" len="24"/>
          <note key="76" pan="0" pos="552" vol="100" len="24"/>
          <note key="59" pan="0" pos="552" vol="100" len="24"/>
          <note key="74" pan="0" pos="576" vol="100" len="24"/>
          <note key="69" pan="0" pos="600" vol="100" len="24"/>
          <note key="66" pan="0" pos="624" vol="100" len="24"/>
          <note key="69" pan="0" pos="648" vol="100" len="24"/>
          <note key="59" pan="0" pos="648" vol="100" len="24"/>
          <note key="74" pan="0" pos="672" vol="100" len="24"/>
          <note key="64" pan="0" pos="672" vol="100" len="24"/>
          <note key="69" pan="0" pos="696" vol="100" len="24"/>
          <note key="66" pan="0" pos="720" vol="100" len="24"/>
          <note key="62" pan="0" pos="720" vol="100" len="24"/>
          <note key="69" pan="0" pos="744" vol="100" len="24"/>
        </midiclip>
      </track>
      <track muted="1" name="sawrif" solo="0" mutedBeforeSolo="0" type="0">
        <instrumenttrack mixch="3" pitch="0" range_import="1" lastkey="127" enablecc="0" enabled="0" pan="0" basenote="69" keymap="0" vol="100" firstkey="0" usemasterpitch="1" scale="0" pitchrange="1">
          <midicontrollers cc25="0" cc107="0" cc22="0" cc108="0" cc92="0" cc52="0" cc71="0" cc113="0" cc54="0" cc99="0" cc32="0" cc67="0" cc60="0" cc102="0" cc0="0" cc117="0" cc125="0" cc7="0" cc74="0" cc18="0" cc45="0" cc56="0" cc30="0" cc15="0" cc72="0" cc94="0" cc78="0" cc116="0" cc118="0" cc121="0" cc4="0" cc89="0" cc96="0" cc79="0" cc35="0" cc12="0" cc127="0" cc9="0" cc40="0" cc90="0" cc23="0" cc77="0" cc101="0" cc66="0" cc76="0" cc51="0" cc47="0" cc44="0" cc84="0" cc110="0" cc61="0" cc91="0" cc28="0" cc16="0" cc10="0" cc20="0" cc19="0" cc97="0" cc98="0" cc13="0" cc69="0" cc95="0" cc112="0" cc31="0" cc49="0" cc24="0" cc120="0" cc103="0" cc65="0" cc34="0" cc63="0" cc115="0" cc73="0" cc11="0" cc26="0" cc42="0" cc100="0" cc33="0" cc6="0" cc70="0" cc75="0" cc14="0" cc87="0" cc41="0" cc43="0" cc38="0" cc104="0" cc48="0" cc55="0" cc86="0" cc119="0" cc106="0" cc83="0" cc82="0" cc53="0" cc17="0" cc8="0" cc68="0" cc2="0" cc1="0" cc64="0" cc81="0" cc50="0" cc3="0" cc5="0" cc93="0" cc109="0" cc46="0" cc36="0" cc80="0" cc58="0" cc126="0" cc124="0" cc37="0" cc88="0" cc57="0" cc39="0" cc123="0" cc59="0" cc122="0" cc62="0" cc111="0" cc21="0" cc114="0" cc27="0" cc85="0" cc105="0" cc29="0"/>
          <instrument name="tripleoscillator">
            <tripleoscillator userwavefile0="" finer1="67" userwavefile1="" useWaveTable2="0" stphdetun2="0" pan1="0" modalgo1="2" userwavefile2="" finer0="-52" vol0="33" modalgo3="2" pan0="0" stphdetun1="0" phoffset2="0" vol2="50" coarse2="0" modalgo2="2" useWaveTable1="0" finel0="-20" vol1="42" finel1="50" stphdetun0="0" coarse1="0" finel2="-48" phoffset1="0" wavetype1="2" pan2="0" wavetype2="2" coarse0="0" useWaveTable3="0" wavetype0="2" finer2="-45" phoffset0="0">
              <key/>
            </tripleoscillator>
          </instrument>
          <eldata fcut="11948" fwet="1" fres="0.5" ftype="0">
            <elvol pdel="0" amt="1" ctlenvamt="0" lpdel="0" rel="0.1" hold="0" latt="0" lshp="0" lspd="0.1" dec="0.5" userwavefile="" lspd_numerator="4" x100="0" sustain="0.5" lspd_denominator="4" lspd_syncmode="0" lamt="0" att="0"/>
            <elcut pdel="0" amt="0" ctlenvamt="0" lpdel="0" rel="0.1" hold="0.5" latt="0" lshp="0" lspd="0.1" dec="0.5" userwavefile="" lspd_numerator="4" x100="0" sustain="0.5" lspd_denominator="4" lspd_syncmode="0" lamt="0" att="0"/>
            <elres pdel="0" amt="0" ctlenvamt="0" lpdel="0" rel="0.1" hold="0.5" latt="0" lshp="0" lspd="0.1" dec="0.5" userwavefile="" lspd_numerator="4" x100="0" sustain="0.5" lspd_denominator="4" lspd_syncmode="0" lamt="0" att="0"/>
          </eldata>
          <chordcreator chord="0" chordrange="1" chord-enabled="0"/>
          <arpeggiator arptime_denominator="4" arp-enabled="0" arptime_numerator="4" arprepeats="1" arpgate="100" arpskip="0" arptime="100" arpdir="0" arpcycle="0" arptime_syncmode="0" arp="0" arprange="1" arpmiss="0" arpmode="0"/>
          <midiport writable="0" inputchannel="0" fixedinputvelocity="-1" readable="0" inputcontroller="0" fixedoutputnote="-1" outputcontroller="0" fixedoutputvelocity="-1" outputchannel="1" outputprogram="1" basevelocity="63"/>
          <fxchain numofeffects="0" enabled="1"/>
        </instrumenttrack>
        <midiclip muted="0" name="" pos="768" type="1" steps="16">
          <note key="50" pan="0" pos="0" vol="100" len="24"/>
          <note key="50" pan="0" pos="48" vol="100" len="24"/>
          <note key="50" pan="0" pos="96" vol="100" len="24"/>
          <note key="45" pan="0" pos="132" vol="100" len="12"/>
          <note key="48" pan="0" pos="144" vol="100" len="12"/>
          <note key="49" pan="0" pos="168" vol="100" len="12"/>
          <note key="50" pan="0" pos="192" vol="100" len="24"/>
          <note key="50" pan="0" pos="240" vol="100" len="24"/>
          <note key="50" pan="0" pos="288" vol="100" len="24"/>
          <note key="45" pan="0" pos="324" vol="100" len="12"/>
          <note key="48" pan="0" pos="336" vol="100" len="12"/>
          <note key="49" pan="0" pos="360" vol="100" len="12"/>
          <note key="50" pan="0" pos="384" vol="100" len="24"/>
          <note key="50" pan="0" pos="432" vol="100" len="24"/>
          <note key="50" pan="0" pos="480" vol="100" len="24"/>
          <note key="45" pan="0" pos="516" vol="100" len="12"/>
          <note key="48" pan="0" pos="528" vol="100" len="12"/>
          <note key="49" pan="0" pos="552" vol="100" len="12"/>
          <note key="50" pan="0" pos="576" vol="100" len="24"/>
          <note key="50" pan="0" pos="624" vol="100" len="24"/>
          <note key="50" pan="0" pos="672" vol="100" len="24"/>
          <note key="43" pan="0" pos="684" vol="100" len="6"/>
          <note key="44" pan="0" pos="696" vol="100" len="6"/>
          <note key="45" pan="0" pos="708" vol="100" len="12"/>
          <note key="46" pan="0" pos="720" vol="100" len="12"/>
          <note key="47" pan="0" pos="732" vol="100" len="6"/>
          <note key="48" pan="0" pos="744" vol="100" len="12"/>
          <note key="49" pan="0" pos="756" vol="100" len="6"/>
        </midiclip>
        <midiclip muted="0" name="" pos="1536" type="1" steps="16">
          <note key="50" pan="0" pos="0" vol="100" len="24"/>
          <note key="50" pan="0" pos="48" vol="100" len="24"/>
          <note key="50" pan="0" pos="96" vol="100" len="24"/>
          <note key="45" pan="0" pos="132" vol="100" len="12"/>
          <note key="48" pan="0" pos="144" vol="100" len="12"/>
          <note key="49" pan="0" pos="168" vol="100" len="12"/>
          <note key="50" pan="0" pos="192" vol="100" len="24"/>
          <note key="50" pan="0" pos="240" vol="100" len="24"/>
          <note key="50" pan="0" pos="288" vol="100" len="24"/>
          <note key="45" pan="0" pos="324" vol="100" len="12"/>
          <note key="48" pan="0" pos="336" vol="100" len="12"/>
          <note key="49" pan="0" pos="360" vol="100" len="12"/>
          <note key="50" pan="0" pos="384" vol="100" len="24"/>
          <note key="50" pan="0" pos="432" vol="100" len="24"/>
          <note key="50" pan="0" pos="480" vol="100" len="24"/>
          <note key="45" pan="0" pos="516" vol="100" len="12"/>
          <note key="48" pan="0" pos="528" vol="100" len="12"/>
          <note key="49" pan="0" pos="552" vol="100" len="12"/>
          <note key="50" pan="0" pos="576" vol="100" len="24"/>
          <note key="50" pan="0" pos="624" vol="100" len="24"/>
          <note key="50" pan="0" pos="672" vol="100" len="24"/>
          <note key="43" pan="0" pos="684" vol="100" len="6"/>
          <note key="44" pan="0" pos="696" vol="100" len="6"/>
          <note key="45" pan="0" pos="708" vol="100" len="12"/>
          <note key="46" pan="0" pos="720" vol="100" len="12"/>
          <note key="47" pan="0" pos="732" vol="100" len="6"/>
          <note key="48" pan="0" pos="744" vol="100" len="12"/>
          <note key="49" pan="0" pos="756" vol="100" len="6"/>
        </midiclip>
        <midiclip muted="0" name="" pos="2304" type="1" steps="16">
          <note key="50" pan="0" pos="0" vol="100" len="24"/>
          <note key="50" pan="0" pos="48" vol="100" len="24"/>
          <note key="50" pan="0" pos="96" vol="100" len="24"/>
          <note key="45" pan="0" pos="132" vol="100" len="12"/>
          <note key="48" pan="0" pos="144" vol="100" len="12"/>
          <note key="49" pan="0" pos="168" vol="100" len="12"/>
          <note key="50" pan="0" pos="192" vol="100" len="24"/>
          <note key="50" pan="0" pos="240" vol="100" len="24"/>
          <note key="50" pan="0" pos="288" vol="100" len="24"/>
          <note key="45" pan="0" pos="324" vol="100" len="12"/>
          <note key="48" pan="0" pos="336" vol="100" len="12"/>
          <note key="49" pan="0" pos="360" vol="100" len="12"/>
          <note key="50" pan="0" pos="384" vol="100" len="24"/>
          <note key="50" pan="0" pos="432" vol="100" len="24"/>
          <note key="50" pan="0" pos="480" vol="100" len="24"/>
          <note key="45" pan="0" pos="516" vol="100" len="12"/>
          <note key="48" pan="0" pos="528" vol="100" len="12"/>
          <note key="49" pan="0" pos="552" vol="100" len="12"/>
          <note key="50" pan="0" pos="576" vol="100" len="24"/>
          <note key="50" pan="0" pos="624" vol="100" len="24"/>
          <note key="50" pan="0" pos="672" vol="100" len="24"/>
          <note key="43" pan="0" pos="684" vol="100" len="6"/>
          <note key="44" pan="0" pos="696" vol="100" len="6"/>
          <note key="45" pan="0" pos="708" vol="100" len="12"/>
          <note key="46" pan="0" pos="720" vol="100" len="12"/>
          <note key="47" pan="0" pos="732" vol="100" len="6"/>
          <note key="48" pan="0" pos="744" vol="100" len="12"/>
          <note key="49" pan="0" pos="756" vol="100" len="6"/>
        </midiclip>
        <midiclip muted="0" name="" pos="3072" type="1" steps="16">
          <note key="50" pan="0" pos="0" vol="100" len="24"/>
          <note key="50" pan="0" pos="48" vol="100" len="24"/>
          <note key="50" pan="0" pos="96" vol="100" len="24"/>
          <note key="45" pan="0" pos="132" vol="100" len="12"/>
          <note key="48" pan="0" pos="144" vol="100" len="12"/>
          <note key="49" pan="0" pos="168" vol="100" len="12"/>
          <note key="50" pan="0" pos="192" vol="100" len="24"/>
          <note key="50" pan="0" pos="240" vol="100" len="24"/>
          <note key="50" pan="0" pos="288" vol="100" len="24"/>
          <note key="45" pan="0" pos="324" vol="100" len="12"/>
          <note key="48" pan="0" pos="336" vol="100" len="12"/>
          <note key="49" pan="0" pos="360" vol="100" len="12"/>
          <note key="50" pan="0" pos="384" vol="100" len="24"/>
          <note key="50" pan="0" pos="432" vol="100" len="24"/>
          <note key="50" pan="0" pos="480" vol="100" len="24"/>
          <note key="45" pan="0" pos="516" vol="100" len="12"/>
          <note key="48" pan="0" pos="528" vol="100" len="12"/>
          <note key="49" pan="0" pos="552" vol="100" len="12"/>
          <note key="50" pan="0" pos="576" vol="100" len="24"/>
          <note key="50" pan="0" pos="624" vol="100" len="24"/>
          <note key="50" pan="0" pos="672" vol="100" len="24"/>
          <note key="43" pan="0" pos="684" vol="100" len="6"/>
          <note key="44" pan="0" pos="696" vol="100" len="6"/>
          <note key="45" pan="0" pos="708" vol="100" len="12"/>
          <note key="46" pan="0" pos="720" vol="100" len="12"/>
          <note key="47" pan="0" pos="732" vol="100" len="6"/>
          <note key="48" pan="0" pos="744" vol="100" len="12"/>
          <note key="49" pan="0" pos="756" vol="100" len="6"/>
        </midiclip>
        <midiclip muted="0" name="" pos="3840" type="1" steps="16">
          <note key="50" pan="0" pos="0" vol="100" len="24"/>
          <note key="50" pan="0" pos="48" vol="100" len="24"/>
          <note key="50" pan="0" pos="96" vol="100" len="24"/>
          <note key="45" pan="0" pos="132" vol="100" len="12"/>
          <note key="48" pan="0" pos="144" vol="100" len="12"/>
          <note key="49" pan="0" pos="168" vol="100" len="12"/>
          <note key="50" pan="0" pos="192" vol="100" len="24"/>
          <note key="50" pan="0" pos="240" vol="100" len="24"/>
          <note key="50" pan="0" pos="288" vol="100" len="24"/>
          <note key="45" pan="0" pos="324" vol="100" len="12"/>
          <note key="48" pan="0" pos="336" vol="100" len="12"/>
          <note key="49" pan="0" pos="360" vol="100" len="12"/>
          <note key="50" pan="0" pos="384" vol="100" len="24"/>
          <note key="50" pan="0" pos="432" vol="100" len="24"/>
          <note key="50" pan="0" pos="480" vol="100" len="24"/>
          <note key="45" pan="0" pos="516" vol="100" len="12"/>
          <note key="48" pan="0" pos="528" vol="100" len="12"/>
          <note key="49" pan="0" pos="552" vol="100" len="12"/>
          <note key="50" pan="0" pos="576" vol="100" len="24"/>
          <note key="50" pan="0" pos="624" vol="100" len="24"/>
          <note key="50" pan="0" pos="672" vol="100" len="24"/>
          <note key="43" pan="0" pos="684" vol="100" len="6"/>
          <note key="44" pan="0" pos="696" vol="100" len="6"/>
          <note key="45" pan="0" pos="708" vol="100" len="12"/>
          <note key="46" pan="0" pos="720" vol="100" len="12"/>
          <note key="47" pan="0" pos="732" vol="100" len="6"/>
          <note key="48" pan="0" pos="744" vol="100" len="12"/>
          <note key="49" pan="0" pos="756" vol="100" len="6"/>
        </midiclip>
        <midiclip muted="0" name="" pos="4608" type="1" steps="16">
          <note key="50" pan="0" pos="0" vol="100" len="24"/>
          <note key="50" pan="0" pos="48" vol="100" len="24"/>
          <note key="50" pan="0" pos="96" vol="100" len="24"/>
          <note key="45" pan="0" pos="132" vol="100" len="12"/>
          <note key="48" pan="0" pos="144" vol="100" len="12"/>
          <note key="49" pan="0" pos="168" vol="100" len="12"/>
          <note key="50" pan="0" pos="192" vol="100" len="24"/>
          <note key="50" pan="0" pos="240" vol="100" len="24"/>
          <note key="50" pan="0" pos="288" vol="100" len="24"/>
          <note key="45" pan="0" pos="324" vol="100" len="12"/>
          <note key="48" pan="0" pos="336" vol="100" len="12"/>
          <note key="49" pan="0" pos="360" vol="100" len="12"/>
          <note key="50" pan="0" pos="384" vol="100" len="24"/>
          <note key="50" pan="0" pos="432" vol="100" len="24"/>
          <note key="50" pan="0" pos="480" vol="100" len="24"/>
          <note key="45" pan="0" pos="516" vol="100" len="12"/>
          <note key="48" pan="0" pos="528" vol="100" len="12"/>
          <note key="49" pan="0" pos="552" vol="100" len="12"/>
          <note key="50" pan="0" pos="576" vol="100" len="24"/>
          <note key="50" pan="0" pos="624" vol="100" len="24"/>
          <note key="50" pan="0" pos="672" vol="100" len="24"/>
          <note key="43" pan="0" pos="684" vol="100" len="6"/>
          <note key="44" pan="0" pos="696" vol="100" len="6"/>
          <note key="45" pan="0" pos="708" vol="100" len="12"/>
          <note key="46" pan="0" pos="720" vol="100" len="12"/>
          <note key="47" pan="0" pos="732" vol="100" len="6"/>
          <note key="48" pan="0" pos="744" vol="100" len="12"/>
          <note key="49" pan="0" pos="756" vol="100" len="6"/>
        </midiclip>
        <midiclip muted="0" name="" pos="7680" type="1" steps="16">
          <note key="50" pan="0" pos="0" vol="100" len="24"/>
          <note key="50" pan="0" pos="48" vol="100" len="24"/>
          <note key="50" pan="0" pos="96" vol="100" len="24"/>
          <note key="45" pan="0" pos="132" vol="100" len="12"/>
          <note key="48" pan="0" pos="144" vol="100" len="12"/>
          <note key="49" pan="0" pos="168" vol="100" len="12"/>
          <note key="50" pan="0" pos="192" vol="100" len="24"/>
          <note key="50" pan="0" pos="240" vol="100" len="24"/>
          <note key="50" pan="0" pos="288" vol="100" len="24"/>
          <note key="45" pan="0" pos="324" vol="100" len="12"/>
          <note key="48" pan="0" pos="336" vol="100" len="12"/>
          <note key="49" pan="0" pos="360" vol="100" len="12"/>
          <note key="50" pan="0" pos="384" vol="100" len="24"/>
          <note key="50" pan="0" pos="432" vol="100" len="24"/>
          <note key="50" pan="0" pos="480" vol="100" len="24"/>
          <note key="45" pan="0" pos="516" vol="100" len="12"/>
          <note key="48" pan="0" pos="528" vol="100" len="12"/>
          <note key="49" pan="0" pos="552" vol="100" len="12"/>
          <note key="50" pan="0" pos="576" vol="100" len="24"/>
          <note key="50" pan="0" pos="624" vol="100" len="24"/>
          <note key="50" pan="0" pos="672" vol="100" len="24"/>
          <note key="43" pan="0" pos="684" vol="100" len="6"/>
          <note key="44" pan="0" pos="696" vol="100" len="6"/>
          <note key="45" pan="0" pos="708" vol="100" len="12"/>
          <note key="46" pan="0" pos="720" vol="100" len="12"/>
          <note key="47" pan="0" pos="732" vol="100" len="6"/>
          <note key="48" pan="0" pos="744" vol="100" len="12"/>
          <note key="49" pan="0" pos="756" vol="100" len="6"/>
        </midiclip>
        <midiclip muted="0" name="" pos="0" type="1" steps="16">
          <note key="50" pan="0" pos="0" vol="100" len="24"/>
          <note key="50" pan="0" pos="48" vol="100" len="24"/>
          <note key="50" pan="0" pos="96" vol="100" len="24"/>
          <note key="45" pan="0" pos="132" vol="100" len="12"/>
          <note key="48" pan="0" pos="144" vol="100" len="12"/>
          <note key="49" pan="0" pos="168" vol="100" len="12"/>
          <note key="50" pan="0" pos="192" vol="100" len="24"/>
          <note key="50" pan="0" pos="240" vol="100" len="24"/>
          <note key="50" pan="0" pos="288" vol="100" len="24"/>
          <note key="45" pan="0" pos="324" vol="100" len="12"/>
          <note key="48" pan="0" pos="336" vol="100" len="12"/>
          <note key="49" pan="0" pos="360" vol="100" len="12"/>
          <note key="50" pan="0" pos="384" vol="100" len="24"/>
          <note key="50" pan="0" pos="432" vol="100" len="24"/>
          <note key="50" pan="0" pos="480" vol="100" len="24"/>
          <note key="45" pan="0" pos="516" vol="100" len="12"/>
          <note key="48" pan="0" pos="528" vol="100" len="12"/>
          <note key="49" pan="0" pos="552" vol="100" len="12"/>
          <note key="50" pan="0" pos="576" vol="100" len="24"/>
          <note key="50" pan="0" pos="624" vol="100" len="24"/>
          <note key="50" pan="0" pos="672" vol="100" len="12"/>
          <note key="43" pan="0" pos="684" vol="100" len="6"/>
          <note key="44" pan="0" pos="696" vol="100" len="6"/>
          <note key="45" pan="0" pos="708" vol="100" len="12"/>
          <note key="46" pan="0" pos="720" vol="100" len="12"/>
          <note key="47" pan="0" pos="732" vol="100" len="6"/>
          <note key="48" pan="0" pos="744" vol="100" len="12"/>
          <note key="49" pan="0" pos="756" vol="100" len="6"/>
        </midiclip>
      </track>
      <track muted="0" name="rif1" solo="0" mutedBeforeSolo="0" type="0">
        <instrumenttrack mixch="3" pitch="0" range_import="1" lastkey="127" enablecc="0" enabled="0" pan="0" basenote="81" keymap="0" vol="100" firstkey="0" usemasterpitch="1" scale="0" pitchrange="1">
          <midicontrollers cc25="0" cc107="0" cc22="0" cc108="0" cc92="0" cc52="0" cc71="0" cc113="0" cc54="0" cc99="0" cc32="0" cc67="0" cc60="0" cc102="0" cc0="0" cc117="0" cc125="0" cc7="0" cc74="0" cc18="0" cc45="0" cc56="0" cc30="0" cc15="0" cc72="0" cc94="0" cc78="0" cc116="0" cc118="0" cc121="0" cc4="0" cc89="0" cc96="0" cc79="0" cc35="0" cc12="0" cc127="0" cc9="0" cc40="0" cc90="0" cc23="0" cc77="0" cc101="0" cc66="0" cc76="0" cc51="0" cc47="0" cc44="0" cc84="0" cc110="0" cc61="0" cc91="0" cc28="0" cc16="0" cc10="0" cc20="0" cc19="0" cc97="0" cc98="0" cc13="0" cc69="0" cc95="0" cc112="0" cc31="0" cc49="0" cc24="0" cc120="0" cc103="0" cc65="0" cc34="0" cc63="0" cc115="0" cc73="0" cc11="0" cc26="0" cc42="0" cc100="0" cc33="0" cc6="0" cc70="0" cc75="0" cc14="0" cc87="0" cc41="0" cc43="0" cc38="0" cc104="0" cc48="0" cc55="0" cc86="0" cc119="0" cc106="0" cc83="0" cc82="0" cc53="0" cc17="0" cc8="0" cc68="0" cc2="0" cc1="0" cc64="0" cc81="0" cc50="0" cc3="0" cc5="0" cc93="0" cc109="0" cc46="0" cc36="0" cc80="0" cc58="0" cc126="0" cc124="0" cc37="0" cc88="0" cc57="0" cc39="0" cc123="0" cc59="0" cc122="0" cc62="0" cc111="0" cc21="0" cc114="0" cc27="0" cc85="0" cc105="0" cc29="0"/>
          <instrument name="tripleoscillator">
            <tripleoscillator userwavefile0="" finer1="0" userwavefile1="" useWaveTable2="0" stphdetun2="0" pan1="0" modalgo1="2" userwavefile2="" finer0="0" vol0="33" modalgo3="2" pan0="0" stphdetun1="0" phoffset2="0" vol2="0" coarse2="-24" modalgo2="2" useWaveTable1="0" finel0="0" vol1="0" finel1="0" stphdetun0="0" coarse1="-12" finel2="0" phoffset1="0" wavetype1="0" pan2="0" wavetype2="0" coarse0="0" useWaveTable3="0" wavetype0="2" finer2="0" phoffset0="0">
              <key/>
            </tripleoscillator>
          </instrument>
          <eldata fcut="358" fwet="1" fres="2.8" ftype="0">
            <elvol pdel="0" amt="1" ctlenvamt="0" lpdel="0" rel="0.1" hold="0" latt="0" lshp="0" lspd="0.1" dec="0.5" userwavefile="" lspd_numerator="4" x100="0" sustain="0.5" lspd_denominator="4" lspd_syncmode="0" lamt="0" att="0"/>
            <elcut pdel="0" amt="1" ctlenvamt="0" lpdel="0" rel="0.1" hold="0" latt="0" lshp="0" lspd="0.1" dec="0.112" userwavefile="" lspd_numerator="4" x100="0" sustain="0" lspd_denominator="4" lspd_syncmode="0" lamt="0" att="0.04"/>
            <elres pdel="0" amt="0" ctlenvamt="0" lpdel="0" rel="0.1" hold="0.5" latt="0" lshp="0" lspd="0.1" dec="0.5" userwavefile="" lspd_numerator="4" x100="0" sustain="0.5" lspd_denominator="4" lspd_syncmode="0" lamt="0" att="0"/>
          </eldata>
          <chordcreator chord="0" chordrange="1" chord-enabled="0"/>
          <arpeggiator arptime_denominator="4" arp-enabled="0" arptime_numerator="4" arprepeats="1" arpgate="100" arpskip="0" arptime="100" arpdir="0" arpcycle="0" arptime_syncmode="0" arp="0" arprange="1" arpmiss="0" arpmode="0"/>
          <midiport writable="0" inputchannel="0" fixedinputvelocity="-1" readable="0" inputcontroller="0" fixedoutputnote="-1" outputcontroller="0" fixedoutputvelocity="-1" outputchannel="1" outputprogram="1" basevelocity="63"/>
          <fxchain numofeffects="0" enabled="1"/>
        </instrumenttrack>
        <midiclip muted="0" name="" pos="768" type="1" steps="16">
          <note key="50" pan="0" pos="0" vol="100" len="24"/>
          <note key="50" pan="0" pos="48" vol="100" len="24"/>
          <note key="50" pan="0" pos="96" vol="100" len="24"/>
          <note key="45" pan="0" pos="132" vol="100" len="12"/>
          <note key="48" pan="0" pos="144" vol="100" len="12"/>
          <note key="49" pan="0" pos="168" vol="100" len="12"/>
          <note key="50" pan="0" pos="192" vol="100" len="24"/>
          <note key="50" pan="0" pos="240" vol="100" len="24"/>
          <note key="50" pan="0" pos="288" vol="100" len="24"/>
          <note key="45" pan="0" pos="324" vol="100" len="12"/>
          <note key="48" pan="0" pos="336" vol="100" len="12"/>
          <note key="49" pan="0" pos="360" vol="100" len="12"/>
          <note key="50" pan="0" pos="384" vol="100" len="24"/>
          <note key="50" pan="0" pos="432" vol="100" len="24"/>
          <note key="50" pan="0" pos="480" vol="100" len="24"/>
          <note key="45" pan="0" pos="516" vol="100" len="12"/>
          <note key="48" pan="0" pos="528" vol="100" len="12"/>
          <note key="49" pan="0" pos="552" vol="100" len="12"/>
          <note key="50" pan="0" pos="576" vol="100" len="24"/>
          <note key="50" pan="0" pos="624" vol="100" len="24"/>
          <note key="50" pan="0" pos="672" vol="100" len="24"/>
          <note key="43" pan="0" pos="684" vol="100" len="6"/>
          <note key="44" pan="0" pos="696" vol="100" len="6"/>
          <note key="45" pan="0" pos="708" vol="100" len="12"/>
          <note key="46" pan="0" pos="720" vol="100" len="12"/>
          <note key="47" pan="0" pos="732" vol="100" len="6"/>
          <note key="48" pan="0" pos="744" vol="100" len="12"/>
          <note key="49" pan="0" pos="756" vol="100" len="6"/>
        </midiclip>
        <midiclip muted="0" name="" pos="1536" type="1" steps="16">
          <note key="50" pan="0" pos="0" vol="100" len="24"/>
          <note key="50" pan="0" pos="48" vol="100" len="24"/>
          <note key="50" pan="0" pos="96" vol="100" len="24"/>
          <note key="45" pan="0" pos="132" vol="100" len="12"/>
          <note key="48" pan="0" pos="144" vol="100" len="12"/>
          <note key="49" pan="0" pos="168" vol="100" len="12"/>
          <note key="50" pan="0" pos="192" vol="100" len="24"/>
          <note key="50" pan="0" pos="240" vol="100" len="24"/>
          <note key="50" pan="0" pos="288" vol="100" len="24"/>
          <note key="45" pan="0" pos="324" vol="100" len="12"/>
          <note key="48" pan="0" pos="336" vol="100" len="12"/>
          <note key="49" pan="0" pos="360" vol="100" len="12"/>
          <note key="50" pan="0" pos="384" vol="100" len="24"/>
          <note key="50" pan="0" pos="432" vol="100" len="24"/>
          <note key="50" pan="0" pos="480" vol="100" len="24"/>
          <note key="45" pan="0" pos="516" vol="100" len="12"/>
          <note key="48" pan="0" pos="528" vol="100" len="12"/>
          <note key="49" pan="0" pos="552" vol="100" len="12"/>
          <note key="50" pan="0" pos="576" vol="100" len="24"/>
          <note key="50" pan="0" pos="624" vol="100" len="24"/>
          <note key="50" pan="0" pos="672" vol="100" len="24"/>
          <note key="43" pan="0" pos="684" vol="100" len="6"/>
          <note key="44" pan="0" pos="696" vol="100" len="6"/>
          <note key="45" pan="0" pos="708" vol="100" len="12"/>
          <note key="46" pan="0" pos="720" vol="100" len="12"/>
          <note key="47" pan="0" pos="732" vol="100" len="6"/>
          <note key="48" pan="0" pos="744" vol="100" len="12"/>
          <note key="49" pan="0" pos="756" vol="100" len="6"/>
        </midiclip>
        <midiclip muted="0" name="" pos="2304" type="1" steps="16">
          <note key="50" pan="0" pos="0" vol="100" len="24"/>
          <note key="50" pan="0" pos="48" vol="100" len="24"/>
          <note key="50" pan="0" pos="96" vol="100" len="24"/>
          <note key="45" pan="0" pos="132" vol="100" len="12"/>
          <note key="48" pan="0" pos="144" vol="100" len="12"/>
          <note key="49" pan="0" pos="168" vol="100" len="12"/>
          <note key="50" pan="0" pos="192" vol="100" len="24"/>
          <note key="50" pan="0" pos="240" vol="100" len="24"/>
          <note key="50" pan="0" pos="288" vol="100" len="24"/>
          <note key="45" pan="0" pos="324" vol="100" len="12"/>
          <note key="48" pan="0" pos="336" vol="100" len="12"/>
          <note key="49" pan="0" pos="360" vol="100" len="12"/>
          <note key="50" pan="0" pos="384" vol="100" len="24"/>
          <note key="50" pan="0" pos="432" vol="100" len="24"/>
          <note key="50" pan="0" pos="480" vol="100" len="24"/>
          <note key="45" pan="0" pos="516" vol="100" len="12"/>
          <note key="48" pan="0" pos="528" vol="100" len="12"/>
          <note key="49" pan="0" pos="552" vol="100" len="12"/>
          <note key="50" pan="0" pos="576" vol="100" len="24"/>
          <note key="50" pan="0" pos="624" vol="100" len="24"/>
          <note key="50" pan="0" pos="672" vol="100" len="24"/>
          <note key="43" pan="0" pos="684" vol="100" len="6"/>
          <note key="44" pan="0" pos="696" vol="100" len="6"/>
          <note key="45" pan="0" pos="708" vol="100" len="12"/>
          <note key="46" pan="0" pos="720" vol="100" len="12"/>
          <note key="47" pan="0" pos="732" vol="100" len="6"/>
          <note key="48" pan="0" pos="744" vol="100" len="12"/>
          <note key="49" pan="0" pos="756" vol="100" len="6"/>
        </midiclip>
        <midiclip muted="0" name="" pos="3072" type="1" steps="16">
          <note key="50" pan="0" pos="0" vol="100" len="24"/>
          <note key="50" pan="0" pos="48" vol="100" len="24"/>
          <note key="50" pan="0" pos="96" vol="100" len="24"/>
          <note key="45" pan="0" pos="132" vol="100" len="12"/>
          <note key="48" pan="0" pos="144" vol="100" len="12"/>
          <note key="49" pan="0" pos="168" vol="100" len="12"/>
          <note key="50" pan="0" pos="192" vol="100" len="24"/>
          <note key="50" pan="0" pos="240" vol="100" len="24"/>
          <note key="50" pan="0" pos="288" vol="100" len="24"/>
          <note key="45" pan="0" pos="324" vol="100" len="12"/>
          <note key="48" pan="0" pos="336" vol="100" len="12"/>
          <note key="49" pan="0" pos="360" vol="100" len="12"/>
          <note key="50" pan="0" pos="384" vol="100" len="24"/>
          <note key="50" pan="0" pos="432" vol="100" len="24"/>
          <note key="50" pan="0" pos="480" vol="100" len="24"/>
          <note key="45" pan="0" pos="516" vol="100" len="12"/>
          <note key="48" pan="0" pos="528" vol="100" len="12"/>
          <note key="49" pan="0" pos="552" vol="100" len="12"/>
          <note key="50" pan="0" pos="576" vol="100" len="24"/>
          <note key="50" pan="0" pos="624" vol="100" len="24"/>
          <note key="50" pan="0" pos="672" vol="100" len="24"/>
          <note key="43" pan="0" pos="684" vol="100" len="6"/>
          <note key="44" pan="0" pos="696" vol="100" len="6"/>
          <note key="45" pan="0" pos="708" vol="100" len="12"/>
          <note key="46" pan="0" pos="720" vol="100" len="12"/>
          <note key="47" pan="0" pos="732" vol="100" len="6"/>
          <note key="48" pan="0" pos="744" vol="100" len="12"/>
          <note key="49" pan="0" pos="756" vol="100" len="6"/>
        </midiclip>
        <midiclip muted="0" name="" pos="3840" type="1" steps="16">
          <note key="50" pan="0" pos="0" vol="100" len="24"/>
          <note key="50" pan="0" pos="48" vol="100" len="24"/>
          <note key="50" pan="0" pos="96" vol="100" len="24"/>
          <note key="45" pan="0" pos="132" vol="100" len="12"/>
          <note key="48" pan="0" pos="144" vol="100" len="12"/>
          <note key="49" pan="0" pos="168" vol="100" len="12"/>
          <note key="50" pan="0" pos="192" vol="100" len="24"/>
          <note key="50" pan="0" pos="240" vol="100" len="24"/>
          <note key="50" pan="0" pos="288" vol="100" len="24"/>
          <note key="45" pan="0" pos="324" vol="100" len="12"/>
          <note key="48" pan="0" pos="336" vol="100" len="12"/>
          <note key="49" pan="0" pos="360" vol="100" len="12"/>
          <note key="50" pan="0" pos="384" vol="100" len="24"/>
          <note key="50" pan="0" pos="432" vol="100" len="24"/>
          <note key="50" pan="0" pos="480" vol="100" len="24"/>
          <note key="45" pan="0" pos="516" vol="100" len="12"/>
          <note key="48" pan="0" pos="528" vol="100" len="12"/>
          <note key="49" pan="0" pos="552" vol="100" len="12"/>
          <note key="50" pan="0" pos="576" vol="100" len="24"/>
          <note key="50" pan="0" pos="624" vol="100" len="24"/>
          <note key="50" pan="0" pos="672" vol="100" len="24"/>
          <note key="43" pan="0" pos="684" vol="100" len="6"/>
          <note key="44" pan="0" pos="696" vol="100" len="6"/>
          <note key="45" pan="0" pos="708" vol="100" len="12"/>
          <note key="46" pan="0" pos="720" vol="100" len="12"/>
          <note key="47" pan="0" pos="732" vol="100" len="6"/>
          <note key="48" pan="0" pos="744" vol="100" len="12"/>
          <note key="49" pan="0" pos="756" vol="100" len="6"/>
        </midiclip>
        <midiclip muted="0" name="" pos="4608" type="1" steps="16">
          <note key="50" pan="0" pos="0" vol="100" len="24"/>
          <note key="50" pan="0" pos="48" vol="100" len="24"/>
          <note key="50" pan="0" pos="96" vol="100" len="24"/>
          <note key="45" pan="0" pos="132" vol="100" len="12"/>
          <note key="48" pan="0" pos="144" vol="100" len="12"/>
          <note key="49" pan="0" pos="168" vol="100" len="12"/>
          <note key="50" pan="0" pos="192" vol="100" len="24"/>
          <note key="50" pan="0" pos="240" vol="100" len="24"/>
          <note key="50" pan="0" pos="288" vol="100" len="24"/>
          <note key="45" pan="0" pos="324" vol="100" len="12"/>
          <note key="48" pan="0" pos="336" vol="100" len="12"/>
          <note key="49" pan="0" pos="360" vol="100" len="12"/>
          <note key="50" pan="0" pos="384" vol="100" len="24"/>
          <note key="50" pan="0" pos="432" vol="100" len="24"/>
          <note key="50" pan="0" pos="480" vol="100" len="24"/>
          <note key="45" pan="0" pos="516" vol="100" len="12"/>
          <note key="48" pan="0" pos="528" vol="100" len="12"/>
          <note key="49" pan="0" pos="552" vol="100" len="12"/>
          <note key="50" pan="0" pos="576" vol="100" len="24"/>
          <note key="50" pan="0" pos="624" vol="100" len="24"/>
          <note key="50" pan="0" pos="672" vol="100" len="24"/>
          <note key="43" pan="0" pos="684" vol="100" len="6"/>
          <note key="44" pan="0" pos="696" vol="100" len="6"/>
          <note key="45" pan="0" pos="708" vol="100" len="12"/>
          <note key="46" pan="0" pos="720" vol="100" len="12"/>
          <note key="47" pan="0" pos="732" vol="100" len="6"/>
          <note key="48" pan="0" pos="744" vol="100" len="12"/>
          <note key="49" pan="0" pos="756" vol="100" len="6"/>
        </midiclip>
      </track>
      <track muted="0" name="rif1" solo="0" mutedBeforeSolo="0" type="0">
        <instrumenttrack mixch="3" pitch="0" range_import="1" lastkey="127" enablecc="0" enabled="0" pan="0" basenote="81" keymap="0" vol="80.8" firstkey="0" usemasterpitch="1" scale="0" pitchrange="1">
          <midicontrollers cc25="0" cc107="0" cc22="0" cc108="0" cc92="0" cc52="0" cc71="0" cc113="0" cc54="0" cc99="0" cc32="0" cc67="0" cc60="0" cc102="0" cc0="0" cc117="0" cc125="0" cc7="0" cc74="0" cc18="0" cc45="0" cc56="0" cc30="0" cc15="0" cc72="0" cc94="0" cc78="0" cc116="0" cc118="0" cc121="0" cc4="0" cc89="0" cc96="0" cc79="0" cc35="0" cc12="0" cc127="0" cc9="0" cc40="0" cc90="0" cc23="0" cc77="0" cc101="0" cc66="0" cc76="0" cc51="0" cc47="0" cc44="0" cc84="0" cc110="0" cc61="0" cc91="0" cc28="0" cc16="0" cc10="0" cc20="0" cc19="0" cc97="0" cc98="0" cc13="0" cc69="0" cc95="0" cc112="0" cc31="0" cc49="0" cc24="0" cc120="0" cc103="0" cc65="0" cc34="0" cc63="0" cc115="0" cc73="0" cc11="0" cc26="0" cc42="0" cc100="0" cc33="0" cc6="0" cc70="0" cc75="0" cc14="0" cc87="0" cc41="0" cc43="0" cc38="0" cc104="0" cc48="0" cc55="0" cc86="0" cc119="0" cc106="0" cc83="0" cc82="0" cc53="0" cc17="0" cc8="0" cc68="0" cc2="0" cc1="0" cc64="0" cc81="0" cc50="0" cc3="0" cc5="0" cc93="0" cc109="0" cc46="0" cc36="0" cc80="0" cc58="0" cc126="0" cc124="0" cc37="0" cc88="0" cc57="0" cc39="0" cc123="0" cc59="0" cc122="0" cc62="0" cc111="0" cc21="0" cc114="0" cc27="0" cc85="0" cc105="0" cc29="0"/>
          <instrument name="tripleoscillator">
            <tripleoscillator userwavefile0="" finer1="0" userwavefile1="" useWaveTable2="0" stphdetun2="0" pan1="0" modalgo1="2" userwavefile2="" finer0="0" vol0="33" modalgo3="2" pan0="0" stphdetun1="0" phoffset2="0" vol2="0" coarse2="-24" modalgo2="2" useWaveTable1="0" finel0="0" vol1="0" finel1="0" stphdetun0="0" coarse1="-12" finel2="0" phoffset1="0" wavetype1="0" pan2="0" wavetype2="0" coarse0="0" useWaveTable3="0" wavetype0="2" finer2="0" phoffset0="0">
              <key/>
            </tripleoscillator>
          </instrument>
          <eldata fcut="358" fwet="1" fres="1.16" ftype="0">
            <elvol pdel="0" amt="1" ctlenvamt="0" lpdel="0" rel="0.1" hold="0" latt="0" lshp="0" lspd="0.1" dec="0.5" userwavefile="" lspd_numerator="4" x100="0" sustain="0.5" lspd_denominator="4" lspd_syncmode="0" lamt="0" att="0"/>
            <elcut pdel="0" amt="1" ctlenvamt="0" lpdel="0" rel="0.1" hold="0" latt="0" lshp="0" lspd="0.1" dec="0.112" userwavefile="" lspd_numerator="4" x100="0" sustain="0" lspd_denominator="4" lspd_syncmode="0" lamt="0" att="0.48"/>
            <elres pdel="0" amt="0" ctlenvamt="0" lpdel="0" rel="0.1" hold="0.5" latt="0" lshp="0" lspd="0.1" dec="0.5" userwavefile="" lspd_numerator="4" x100="0" sustain="0.5" lspd_denominator="4" lspd_syncmode="0" lamt="0" att="0"/>
          </eldata>
          <chordcreator chord="0" chordrange="1" chord-enabled="0"/>
          <arpeggiator arptime_denominator="4" arp-enabled="0" arptime_numerator="4" arprepeats="1" arpgate="100" arpskip="0" arptime="100" arpdir="0" arpcycle="0" arptime_syncmode="0" arp="0" arprange="1" arpmiss="0" arpmode="0"/>
          <midiport writable="0" inputchannel="0" fixedinputvelocity="-1" readable="0" inputcontroller="0" fixedoutputnote="-1" outputcontroller="0" fixedoutputvelocity="-1" outputchannel="1" outputprogram="1" basevelocity="63"/>
          <fxchain numofeffects="0" enabled="1"/>
        </instrumenttrack>
        <midiclip muted="0" name="" pos="1536" type="1" steps="16">
          <note key="69" pan="0" pos="0" vol="100" len="24"/>
          <note key="69" pan="0" pos="48" vol="100" len="24"/>
          <note key="69" pan="0" pos="96" vol="100" len="24"/>
          <note key="69" pan="0" pos="144" vol="100" len="24"/>
          <note key="69" pan="0" pos="192" vol="100" len="24"/>
          <note key="69" pan="0" pos="240" vol="100" len="24"/>
          <note key="69" pan="0" pos="288" vol="100" len="24"/>
          <note key="69" pan="0" pos="336" vol="100" len="24"/>
          <note key="69" pan="0" pos="384" vol="100" len="24"/>
          <note key="69" pan="0" pos="432" vol="100" len="24"/>
          <note key="69" pan="0" pos="480" vol="100" len="24"/>
          <note key="69" pan="0" pos="528" vol="100" len="24"/>
          <note key="69" pan="0" pos="576" vol="100" len="24"/>
          <note key="69" pan="0" pos="624" vol="100" len="24"/>
          <note key="69" pan="0" pos="672" vol="100" len="24"/>
          <note key="69" pan="0" pos="720" vol="100" len="24"/>
        </midiclip>
        <midiclip muted="0" name="" pos="2304" type="1" steps="16">
          <note key="69" pan="0" pos="0" vol="100" len="24"/>
          <note key="69" pan="0" pos="48" vol="100" len="24"/>
          <note key="69" pan="0" pos="96" vol="100" len="24"/>
          <note key="69" pan="0" pos="144" vol="100" len="24"/>
          <note key="69" pan="0" pos="192" vol="100" len="24"/>
          <note key="69" pan="0" pos="240" vol="100" len="24"/>
          <note key="69" pan="0" pos="288" vol="100" len="24"/>
          <note key="69" pan="0" pos="336" vol="100" len="24"/>
          <note key="69" pan="0" pos="384" vol="100" len="24"/>
          <note key="69" pan="0" pos="432" vol="100" len="24"/>
          <note key="69" pan="0" pos="480" vol="100" len="24"/>
          <note key="69" pan="0" pos="528" vol="100" len="24"/>
          <note key="69" pan="0" pos="576" vol="100" len="24"/>
          <note key="69" pan="0" pos="624" vol="100" len="24"/>
          <note key="69" pan="0" pos="672" vol="100" len="24"/>
          <note key="69" pan="0" pos="720" vol="100" len="24"/>
        </midiclip>
        <midiclip muted="0" name="" pos="3072" type="1" steps="16">
          <note key="69" pan="0" pos="0" vol="100" len="24"/>
          <note key="69" pan="0" pos="48" vol="100" len="24"/>
          <note key="69" pan="0" pos="96" vol="100" len="24"/>
          <note key="69" pan="0" pos="144" vol="100" len="24"/>
          <note key="69" pan="0" pos="192" vol="100" len="24"/>
          <note key="69" pan="0" pos="240" vol="100" len="24"/>
          <note key="69" pan="0" pos="288" vol="100" len="24"/>
          <note key="69" pan="0" pos="336" vol="100" len="24"/>
          <note key="69" pan="0" pos="384" vol="100" len="24"/>
          <note key="69" pan="0" pos="432" vol="100" len="24"/>
          <note key="69" pan="0" pos="480" vol="100" len="24"/>
          <note key="69" pan="0" pos="528" vol="100" len="24"/>
          <note key="69" pan="0" pos="576" vol="100" len="24"/>
          <note key="69" pan="0" pos="624" vol="100" len="24"/>
          <note key="69" pan="0" pos="672" vol="100" len="24"/>
          <note key="69" pan="0" pos="720" vol="100" len="24"/>
        </midiclip>
        <midiclip muted="0" name="" pos="3840" type="1" steps="16">
          <note key="69" pan="0" pos="0" vol="100" len="24"/>
          <note key="69" pan="0" pos="48" vol="100" len="24"/>
          <note key="69" pan="0" pos="96" vol="100" len="24"/>
          <note key="69" pan="0" pos="144" vol="100" len="24"/>
          <note key="69" pan="0" pos="192" vol="100" len="24"/>
          <note key="69" pan="0" pos="240" vol="100" len="24"/>
          <note key="69" pan="0" pos="288" vol="100" len="24"/>
          <note key="69" pan="0" pos="336" vol="100" len="24"/>
          <note key="69" pan="0" pos="384" vol="100" len="24"/>
          <note key="69" pan="0" pos="432" vol="100" len="24"/>
          <note key="69" pan="0" pos="480" vol="100" len="24"/>
          <note key="69" pan="0" pos="528" vol="100" len="24"/>
          <note key="69" pan="0" pos="576" vol="100" len="24"/>
          <note key="69" pan="0" pos="624" vol="100" len="24"/>
          <note key="69" pan="0" pos="672" vol="100" len="24"/>
          <note key="69" pan="0" pos="720" vol="100" len="24"/>
        </midiclip>
        <midiclip muted="0" name="" pos="768" type="1" steps="16">
          <note key="69" pan="0" pos="0" vol="100" len="24"/>
          <note key="69" pan="0" pos="48" vol="100" len="24"/>
          <note key="69" pan="0" pos="96" vol="100" len="24"/>
          <note key="69" pan="0" pos="144" vol="100" len="24"/>
          <note key="69" pan="0" pos="192" vol="100" len="24"/>
          <note key="69" pan="0" pos="240" vol="100" len="24"/>
          <note key="69" pan="0" pos="288" vol="100" len="24"/>
          <note key="69" pan="0" pos="336" vol="100" len="24"/>
          <note key="69" pan="0" pos="384" vol="100" len="24"/>
          <note key="69" pan="0" pos="432" vol="100" len="24"/>
          <note key="69" pan="0" pos="480" vol="100" len="24"/>
          <note key="69" pan="0" pos="528" vol="100" len="24"/>
          <note key="69" pan="0" pos="576" vol="100" len="24"/>
          <note key="69" pan="0" pos="624" vol="100" len="24"/>
          <note key="69" pan="0" pos="672" vol="100" len="24"/>
          <note key="69" pan="0" pos="720" vol="100" len="24"/>
        </midiclip>
        <midiclip muted="0" name="" pos="4608" type="1" steps="16">
          <note key="69" pan="0" pos="0" vol="100" len="24"/>
          <note key="69" pan="0" pos="48" vol="100" len="24"/>
          <note key="69" pan="0" pos="96" vol="100" len="24"/>
          <note key="69" pan="0" pos="144" vol="100" len="24"/>
          <note key="69" pan="0" pos="192" vol="100" len="24"/>
          <note key="69" pan="0" pos="240" vol="100" len="24"/>
          <note key="69" pan="0" pos="288" vol="100" len="24"/>
          <note key="69" pan="0" pos="336" vol="100" len="24"/>
          <note key="69" pan="0" pos="384" vol="100" len="24"/>
          <note key="69" pan="0" pos="432" vol="100" len="24"/>
          <note key="69" pan="0" pos="480" vol="100" len="24"/>
          <note key="69" pan="0" pos="528" vol="100" len="24"/>
          <note key="69" pan="0" pos="576" vol="100" len="24"/>
          <note key="69" pan="0" pos="624" vol="100" len="24"/>
          <note key="69" pan="0" pos="672" vol="100" len="24"/>
          <note key="69" pan="0" pos="720" vol="100" len="24"/>
        </midiclip>
        <midiclip muted="0" name="" pos="5376" type="1" steps="16">
          <note key="69" pan="0" pos="0" vol="100" len="24"/>
          <note key="69" pan="0" pos="48" vol="100" len="24"/>
          <note key="69" pan="0" pos="96" vol="100" len="24"/>
          <note key="69" pan="0" pos="144" vol="100" len="24"/>
          <note key="69" pan="0" pos="192" vol="100" len="24"/>
          <note key="69" pan="0" pos="240" vol="100" len="24"/>
          <note key="69" pan="0" pos="288" vol="100" len="24"/>
          <note key="69" pan="0" pos="336" vol="100" len="24"/>
          <note key="69" pan="0" pos="384" vol="100" len="24"/>
          <note key="69" pan="0" pos="432" vol="100" len="24"/>
          <note key="69" pan="0" pos="480" vol="100" len="24"/>
          <note key="69" pan="0" pos="528" vol="100" len="24"/>
          <note key="69" pan="0" pos="576" vol="100" len="24"/>
          <note key="69" pan="0" pos="624" vol="100" len="24"/>
          <note key="69" pan="0" pos="672" vol="100" len="24"/>
          <note key="69" pan="0" pos="720" vol="100" len="24"/>
        </midiclip>
        <midiclip muted="0" name="" pos="6144" type="1" steps="16">
          <note key="69" pan="0" pos="0" vol="100" len="24"/>
          <note key="69" pan="0" pos="48" vol="100" len="24"/>
          <note key="69" pan="0" pos="96" vol="100" len="24"/>
          <note key="69" pan="0" pos="144" vol="100" len="24"/>
          <note key="69" pan="0" pos="192" vol="100" len="24"/>
          <note key="69" pan="0" pos="240" vol="100" len="24"/>
          <note key="69" pan="0" pos="288" vol="100" len="24"/>
          <note key="69" pan="0" pos="336" vol="100" len="24"/>
          <note key="69" pan="0" pos="384" vol="100" len="24"/>
          <note key="69" pan="0" pos="432" vol="100" len="24"/>
          <note key="69" pan="0" pos="480" vol="100" len="24"/>
          <note key="69" pan="0" pos="528" vol="100" len="24"/>
          <note key="69" pan="0" pos="576" vol="100" len="24"/>
          <note key="69" pan="0" pos="624" vol="100" len="24"/>
          <note key="69" pan="0" pos="672" vol="100" len="24"/>
          <note key="69" pan="0" pos="720" vol="100" len="24"/>
        </midiclip>
        <midiclip muted="0" name="" pos="6912" type="1" steps="16">
          <note key="69" pan="0" pos="0" vol="100" len="24"/>
          <note key="69" pan="0" pos="48" vol="100" len="24"/>
          <note key="69" pan="0" pos="96" vol="100" len="24"/>
          <note key="69" pan="0" pos="144" vol="100" len="24"/>
          <note key="69" pan="0" pos="192" vol="100" len="24"/>
          <note key="69" pan="0" pos="240" vol="100" len="24"/>
          <note key="69" pan="0" pos="288" vol="100" len="24"/>
          <note key="69" pan="0" pos="336" vol="100" len="24"/>
          <note key="69" pan="0" pos="384" vol="100" len="24"/>
          <note key="69" pan="0" pos="432" vol="100" len="24"/>
          <note key="69" pan="0" pos="480" vol="100" len="24"/>
          <note key="69" pan="0" pos="528" vol="100" len="24"/>
          <note key="69" pan="0" pos="576" vol="100" len="24"/>
          <note key="69" pan="0" pos="624" vol="100" len="24"/>
          <note key="69" pan="0" pos="672" vol="100" len="24"/>
          <note key="69" pan="0" pos="720" vol="100" len="24"/>
        </midiclip>
        <midiclip muted="0" name="" pos="7680" type="1" steps="16">
          <note key="69" pan="0" pos="0" vol="100" len="24"/>
          <note key="69" pan="0" pos="48" vol="100" len="24"/>
          <note key="69" pan="0" pos="96" vol="100" len="24"/>
          <note key="69" pan="0" pos="144" vol="100" len="24"/>
          <note key="69" pan="0" pos="192" vol="100" len="24"/>
          <note key="69" pan="0" pos="240" vol="100" len="24"/>
          <note key="69" pan="0" pos="288" vol="100" len="24"/>
          <note key="69" pan="0" pos="336" vol="100" len="24"/>
          <note key="69" pan="0" pos="384" vol="100" len="24"/>
          <note key="69" pan="0" pos="432" vol="100" len="24"/>
          <note key="69" pan="0" pos="480" vol="100" len="24"/>
          <note key="69" pan="0" pos="528" vol="100" len="24"/>
          <note key="69" pan="0" pos="576" vol="100" len="24"/>
          <note key="69" pan="0" pos="624" vol="100" len="24"/>
          <note key="69" pan="0" pos="672" vol="100" len="24"/>
          <note key="69" pan="0" pos="720" vol="100" len="24"/>
        </midiclip>
        <midiclip muted="0" name="" pos="9984" type="1" steps="16">
          <note key="84" pan="0" pos="0" vol="100" len="24"/>
          <note key="91" pan="0" pos="48" vol="100" len="24"/>
          <note key="88" pan="0" pos="96" vol="100" len="24"/>
          <note key="89" pan="0" pos="144" vol="100" len="24"/>
          <note key="90" pan="0" pos="168" vol="100" len="48"/>
        </midiclip>
        <midiclip muted="0" name="" pos="10752" type="1" steps="16">
          <note key="84" pan="0" pos="0" vol="100" len="24"/>
          <note key="91" pan="0" pos="48" vol="100" len="24"/>
          <note key="88" pan="0" pos="96" vol="100" len="24"/>
          <note key="89" pan="0" pos="144" vol="100" len="24"/>
          <note key="90" pan="0" pos="168" vol="100" len="48"/>
        </midiclip>
      </track>
      <track muted="1" name="rif1" solo="0" mutedBeforeSolo="0" type="0">
        <instrumenttrack mixch="3" pitch="0" range_import="1" lastkey="127" enablecc="0" enabled="0" pan="0" basenote="93" keymap="0" vol="100" firstkey="0" usemasterpitch="1" scale="0" pitchrange="1">
          <midicontrollers cc25="0" cc107="0" cc22="0" cc108="0" cc92="0" cc52="0" cc71="0" cc113="0" cc54="0" cc99="0" cc32="0" cc67="0" cc60="0" cc102="0" cc0="0" cc117="0" cc125="0" cc7="0" cc74="0" cc18="0" cc45="0" cc56="0" cc30="0" cc15="0" cc72="0" cc94="0" cc78="0" cc116="0" cc118="0" cc121="0" cc4="0" cc89="0" cc96="0" cc79="0" cc35="0" cc12="0" cc127="0" cc9="0" cc40="0" cc90="0" cc23="0" cc77="0" cc101="0" cc66="0" cc76="0" cc51="0" cc47="0" cc44="0" cc84="0" cc110="0" cc61="0" cc91="0" cc28="0" cc16="0" cc10="0" cc20="0" cc19="0" cc97="0" cc98="0" cc13="0" cc69="0" cc95="0" cc112="0" cc31="0" cc49="0" cc24="0" cc120="0" cc103="0" cc65="0" cc34="0" cc63="0" cc115="0" cc73="0" cc11="0" cc26="0" cc42="0" cc100="0" cc33="0" cc6="0" cc70="0" cc75="0" cc14="0" cc87="0" cc41="0" cc43="0" cc38="0" cc104="0" cc48="0" cc55="0" cc86="0" cc119="0" cc106="0" cc83="0" cc82="0" cc53="0" cc17="0" cc8="0" cc68="0" cc2="0" cc1="0" cc64="0" cc81="0" cc50="0" cc3="0" cc5="0" cc93="0" cc109="0" cc46="0" cc36="0" cc80="0" cc58="0" cc126="0" cc124="0" cc37="0" cc88="0" cc57="0" cc39="0" cc123="0" cc59="0" cc122="0" cc62="0" cc111="0" cc21="0" cc114="0" cc27="0" cc85="0" cc105="0" cc29="0"/>
          <instrument name="tripleoscillator">
            <tripleoscillator userwavefile0="" finer1="0" userwavefile1="" useWaveTable2="0" stphdetun2="0" pan1="0" modalgo1="2" userwavefile2="" finer0="0" vol0="34" modalgo3="2" pan0="0" stphdetun1="0" phoffset2="0" vol2="0" coarse2="-24" modalgo2="2" useWaveTable1="0" finel0="0" vol1="0" finel1="0" stphdetun0="0" coarse1="-12" finel2="0" phoffset1="0" wavetype1="0" pan2="0" wavetype2="0" coarse0="0" useWaveTable3="0" wavetype0="3" finer2="0" phoffset0="0">
              <key/>
            </tripleoscillator>
          </instrument>
          <eldata fcut="358" fwet="1" fres="1.16" ftype="0">
            <elvol pdel="0" amt="1" ctlenvamt="0" lpdel="0" rel="0.1" hold="0" latt="0" lshp="0" lspd="0.1" dec="0.5" userwavefile="" lspd_numerator="4" x100="0" sustain="0.5" lspd_denominator="4" lspd_syncmode="0" lamt="0" att="0.104"/>
            <elcut pdel="0" amt="1" ctlenvamt="0" lpdel="0" rel="0.1" hold="0" latt="0" lshp="0" lspd="0.1" dec="0.112" userwavefile="" lspd_numerator="4" x100="0" sustain="0" lspd_denominator="4" lspd_syncmode="0" lamt="0" att="0.48"/>
            <elres pdel="0" amt="0" ctlenvamt="0" lpdel="0" rel="0.1" hold="0.5" latt="0" lshp="0" lspd="0.1" dec="0.5" userwavefile="" lspd_numerator="4" x100="0" sustain="0.5" lspd_denominator="4" lspd_syncmode="0" lamt="0" att="0"/>
          </eldata>
          <chordcreator chord="0" chordrange="1" chord-enabled="0"/>
          <arpeggiator arptime_denominator="4" arp-enabled="0" arptime_numerator="4" arprepeats="1" arpgate="100" arpskip="0" arptime="100" arpdir="0" arpcycle="0" arptime_syncmode="0" arp="0" arprange="1" arpmiss="0" arpmode="0"/>
          <midiport writable="0" inputchannel="0" fixedinputvelocity="-1" readable="0" inputcontroller="0" fixedoutputnote="-1" outputcontroller="0" fixedoutputvelocity="-1" outputchannel="1" outputprogram="1" basevelocity="63"/>
          <fxchain numofeffects="0" enabled="1"/>
        </instrumenttrack>
        <midiclip muted="0" name="" pos="1536" type="1" steps="16">
          <note key="69" pan="0" pos="0" vol="100" len="24"/>
          <note key="69" pan="0" pos="48" vol="100" len="24"/>
          <note key="69" pan="0" pos="96" vol="100" len="24"/>
          <note key="69" pan="0" pos="144" vol="100" len="24"/>
          <note key="69" pan="0" pos="192" vol="100" len="24"/>
          <note key="69" pan="0" pos="240" vol="100" len="24"/>
          <note key="69" pan="0" pos="288" vol="100" len="24"/>
          <note key="69" pan="0" pos="336" vol="100" len="24"/>
          <note key="69" pan="0" pos="384" vol="100" len="24"/>
          <note key="69" pan="0" pos="432" vol="100" len="24"/>
          <note key="69" pan="0" pos="480" vol="100" len="24"/>
          <note key="69" pan="0" pos="528" vol="100" len="24"/>
          <note key="69" pan="0" pos="576" vol="100" len="24"/>
          <note key="69" pan="0" pos="624" vol="100" len="24"/>
          <note key="69" pan="0" pos="672" vol="100" len="24"/>
          <note key="69" pan="0" pos="720" vol="100" len="24"/>
        </midiclip>
        <midiclip muted="0" name="" pos="2304" type="1" steps="16">
          <note key="69" pan="0" pos="0" vol="100" len="24"/>
          <note key="69" pan="0" pos="48" vol="100" len="24"/>
          <note key="69" pan="0" pos="96" vol="100" len="24"/>
          <note key="69" pan="0" pos="144" vol="100" len="24"/>
          <note key="69" pan="0" pos="192" vol="100" len="24"/>
          <note key="69" pan="0" pos="240" vol="100" len="24"/>
          <note key="69" pan="0" pos="288" vol="100" len="24"/>
          <note key="69" pan="0" pos="336" vol="100" len="24"/>
          <note key="69" pan="0" pos="384" vol="100" len="24"/>
          <note key="69" pan="0" pos="432" vol="100" len="24"/>
          <note key="69" pan="0" pos="480" vol="100" len="24"/>
          <note key="69" pan="0" pos="528" vol="100" len="24"/>
          <note key="69" pan="0" pos="576" vol="100" len="24"/>
          <note key="69" pan="0" pos="624" vol="100" len="24"/>
          <note key="69" pan="0" pos="672" vol="100" len="24"/>
          <note key="69" pan="0" pos="720" vol="100" len="24"/>
        </midiclip>
        <midiclip muted="0" name="" pos="3072" type="1" steps="16">
          <note key="69" pan="0" pos="0" vol="100" len="24"/>
          <note key="69" pan="0" pos="48" vol="100" len="24"/>
          <note key="69" pan="0" pos="96" vol="100" len="24"/>
          <note key="69" pan="0" pos="144" vol="100" len="24"/>
          <note key="69" pan="0" pos="192" vol="100" len="24"/>
          <note key="69" pan="0" pos="240" vol="100" len="24"/>
          <note key="69" pan="0" pos="288" vol="100" len="24"/>
          <note key="69" pan="0" pos="336" vol="100" len="24"/>
          <note key="69" pan="0" pos="384" vol="100" len="24"/>
          <note key="69" pan="0" pos="432" vol="100" len="24"/>
          <note key="69" pan="0" pos="480" vol="100" len="24"/>
          <note key="69" pan="0" pos="528" vol="100" len="24"/>
          <note key="69" pan="0" pos="576" vol="100" len="24"/>
          <note key="69" pan="0" pos="624" vol="100" len="24"/>
          <note key="69" pan="0" pos="672" vol="100" len="24"/>
          <note key="69" pan="0" pos="720" vol="100" len="24"/>
        </midiclip>
        <midiclip muted="0" name="" pos="3840" type="1" steps="16">
          <note key="69" pan="0" pos="0" vol="100" len="24"/>
          <note key="69" pan="0" pos="48" vol="100" len="24"/>
          <note key="69" pan="0" pos="96" vol="100" len="24"/>
          <note key="69" pan="0" pos="144" vol="100" len="24"/>
          <note key="69" pan="0" pos="192" vol="100" len="24"/>
          <note key="69" pan="0" pos="240" vol="100" len="24"/>
          <note key="69" pan="0" pos="288" vol="100" len="24"/>
          <note key="69" pan="0" pos="336" vol="100" len="24"/>
          <note key="69" pan="0" pos="384" vol="100" len="24"/>
          <note key="69" pan="0" pos="432" vol="100" len="24"/>
          <note key="69" pan="0" pos="480" vol="100" len="24"/>
          <note key="69" pan="0" pos="528" vol="100" len="24"/>
          <note key="69" pan="0" pos="576" vol="100" len="24"/>
          <note key="69" pan="0" pos="624" vol="100" len="24"/>
          <note key="69" pan="0" pos="672" vol="100" len="24"/>
          <note key="69" pan="0" pos="720" vol="100" len="24"/>
        </midiclip>
        <midiclip muted="0" name="" pos="768" type="1" steps="16">
          <note key="69" pan="0" pos="0" vol="100" len="24"/>
          <note key="69" pan="0" pos="48" vol="100" len="24"/>
          <note key="69" pan="0" pos="96" vol="100" len="24"/>
          <note key="69" pan="0" pos="144" vol="100" len="24"/>
          <note key="69" pan="0" pos="192" vol="100" len="24"/>
          <note key="69" pan="0" pos="240" vol="100" len="24"/>
          <note key="69" pan="0" pos="288" vol="100" len="24"/>
          <note key="69" pan="0" pos="336" vol="100" len="24"/>
          <note key="69" pan="0" pos="384" vol="100" len="24"/>
          <note key="69" pan="0" pos="432" vol="100" len="24"/>
          <note key="69" pan="0" pos="480" vol="100" len="24"/>
          <note key="69" pan="0" pos="528" vol="100" len="24"/>
          <note key="69" pan="0" pos="576" vol="100" len="24"/>
          <note key="69" pan="0" pos="624" vol="100" len="24"/>
          <note key="69" pan="0" pos="672" vol="100" len="24"/>
          <note key="69" pan="0" pos="720" vol="100" len="24"/>
        </midiclip>
        <midiclip muted="0" name="" pos="4608" type="1" steps="16">
          <note key="69" pan="0" pos="0" vol="100" len="24"/>
          <note key="69" pan="0" pos="48" vol="100" len="24"/>
          <note key="69" pan="0" pos="96" vol="100" len="24"/>
          <note key="69" pan="0" pos="144" vol="100" len="24"/>
          <note key="69" pan="0" pos="192" vol="100" len="24"/>
          <note key="69" pan="0" pos="240" vol="100" len="24"/>
          <note key="69" pan="0" pos="288" vol="100" len="24"/>
          <note key="69" pan="0" pos="336" vol="100" len="24"/>
          <note key="69" pan="0" pos="384" vol="100" len="24"/>
          <note key="69" pan="0" pos="432" vol="100" len="24"/>
          <note key="69" pan="0" pos="480" vol="100" len="24"/>
          <note key="69" pan="0" pos="528" vol="100" len="24"/>
          <note key="69" pan="0" pos="576" vol="100" len="24"/>
          <note key="69" pan="0" pos="624" vol="100" len="24"/>
          <note key="69" pan="0" pos="672" vol="100" len="24"/>
          <note key="69" pan="0" pos="720" vol="100" len="24"/>
        </midiclip>
        <midiclip muted="0" name="" pos="5376" type="1" steps="16">
          <note key="69" pan="0" pos="0" vol="100" len="24"/>
          <note key="69" pan="0" pos="48" vol="100" len="24"/>
          <note key="69" pan="0" pos="96" vol="100" len="24"/>
          <note key="69" pan="0" pos="144" vol="100" len="24"/>
          <note key="69" pan="0" pos="192" vol="100" len="24"/>
          <note key="69" pan="0" pos="240" vol="100" len="24"/>
          <note key="69" pan="0" pos="288" vol="100" len="24"/>
          <note key="69" pan="0" pos="336" vol="100" len="24"/>
          <note key="69" pan="0" pos="384" vol="100" len="24"/>
          <note key="69" pan="0" pos="432" vol="100" len="24"/>
          <note key="69" pan="0" pos="480" vol="100" len="24"/>
          <note key="69" pan="0" pos="528" vol="100" len="24"/>
          <note key="69" pan="0" pos="576" vol="100" len="24"/>
          <note key="69" pan="0" pos="624" vol="100" len="24"/>
          <note key="69" pan="0" pos="672" vol="100" len="24"/>
          <note key="69" pan="0" pos="720" vol="100" len="24"/>
        </midiclip>
        <midiclip muted="0" name="" pos="6144" type="1" steps="16">
          <note key="69" pan="0" pos="0" vol="100" len="24"/>
          <note key="69" pan="0" pos="48" vol="100" len="24"/>
          <note key="69" pan="0" pos="96" vol="100" len="24"/>
          <note key="69" pan="0" pos="144" vol="100" len="24"/>
          <note key="69" pan="0" pos="192" vol="100" len="24"/>
          <note key="69" pan="0" pos="240" vol="100" len="24"/>
          <note key="69" pan="0" pos="288" vol="100" len="24"/>
          <note key="69" pan="0" pos="336" vol="100" len="24"/>
          <note key="69" pan="0" pos="384" vol="100" len="24"/>
          <note key="69" pan="0" pos="432" vol="100" len="24"/>
          <note key="69" pan="0" pos="480" vol="100" len="24"/>
          <note key="69" pan="0" pos="528" vol="100" len="24"/>
          <note key="69" pan="0" pos="576" vol="100" len="24"/>
          <note key="69" pan="0" pos="624" vol="100" len="24"/>
          <note key="69" pan="0" pos="672" vol="100" len="24"/>
          <note key="69" pan="0" pos="720" vol="100" len="24"/>
        </midiclip>
        <midiclip muted="0" name="" pos="6912" type="1" steps="16">
          <note key="69" pan="0" pos="0" vol="100" len="24"/>
          <note key="69" pan="0" pos="48" vol="100" len="24"/>
          <note key="69" pan="0" pos="96" vol="100" len="24"/>
          <note key="69" pan="0" pos="144" vol="100" len="24"/>
          <note key="69" pan="0" pos="192" vol="100" len="24"/>
          <note key="69" pan="0" pos="240" vol="100" len="24"/>
          <note key="69" pan="0" pos="288" vol="100" len="24"/>
          <note key="69" pan="0" pos="336" vol="100" len="24"/>
          <note key="69" pan="0" pos="384" vol="100" len="24"/>
          <note key="69" pan="0" pos="432" vol="100" len="24"/>
          <note key="69" pan="0" pos="480" vol="100" len="24"/>
          <note key="69" pan="0" pos="528" vol="100" len="24"/>
          <note key="69" pan="0" pos="576" vol="100" len="24"/>
          <note key="69" pan="0" pos="624" vol="100" len="24"/>
          <note key="69" pan="0" pos="672" vol="100" len="24"/>
          <note key="69" pan="0" pos="720" vol="100" len="24"/>
        </midiclip>
        <midiclip muted="0" name="" pos="7680" type="1" steps="16">
          <note key="69" pan="0" pos="0" vol="100" len="24"/>
          <note key="69" pan="0" pos="48" vol="100" len="24"/>
          <note key="69" pan="0" pos="96" vol="100" len="24"/>
          <note key="69" pan="0" pos="144" vol="100" len="24"/>
          <note key="69" pan="0" pos="192" vol="100" len="24"/>
          <note key="69" pan="0" pos="240" vol="100" len="24"/>
          <note key="69" pan="0" pos="288" vol="100" len="24"/>
          <note key="69" pan="0" pos="336" vol="100" len="24"/>
          <note key="69" pan="0" pos="384" vol="100" len="24"/>
          <note key="69" pan="0" pos="432" vol="100" len="24"/>
          <note key="69" pan="0" pos="480" vol="100" len="24"/>
          <note key="69" pan="0" pos="528" vol="100" len="24"/>
          <note key="69" pan="0" pos="576" vol="100" len="24"/>
          <note key="69" pan="0" pos="624" vol="100" len="24"/>
          <note key="69" pan="0" pos="672" vol="100" len="24"/>
          <note key="69" pan="0" pos="720" vol="100" len="24"/>
        </midiclip>
      </track>
      <track muted="0" name="rif1" solo="0" mutedBeforeSolo="0" type="0">
        <instrumenttrack mixch="3" pitch="0" range_import="1" lastkey="127" enablecc="0" enabled="0" pan="0" basenote="84" keymap="0" vol="100" firstkey="0" usemasterpitch="1" scale="0" pitchrange="1">
          <midicontrollers cc25="0" cc107="0" cc22="0" cc108="0" cc92="0" cc52="0" cc71="0" cc113="0" cc54="0" cc99="0" cc32="0" cc67="0" cc60="0" cc102="0" cc0="0" cc117="0" cc125="0" cc7="0" cc74="0" cc18="0" cc45="0" cc56="0" cc30="0" cc15="0" cc72="0" cc94="0" cc78="0" cc116="0" cc118="0" cc121="0" cc4="0" cc89="0" cc96="0" cc79="0" cc35="0" cc12="0" cc127="0" cc9="0" cc40="0" cc90="0" cc23="0" cc77="0" cc101="0" cc66="0" cc76="0" cc51="0" cc47="0" cc44="0" cc84="0" cc110="0" cc61="0" cc91="0" cc28="0" cc16="0" cc10="0" cc20="0" cc19="0" cc97="0" cc98="0" cc13="0" cc69="0" cc95="0" cc112="0" cc31="0" cc49="0" cc24="0" cc120="0" cc103="0" cc65="0" cc34="0" cc63="0" cc115="0" cc73="0" cc11="0" cc26="0" cc42="0" cc100="0" cc33="0" cc6="0" cc70="0" cc75="0" cc14="0" cc87="0" cc41="0" cc43="0" cc38="0" cc104="0" cc48="0" cc55="0" cc86="0" cc119="0" cc106="0" cc83="0" cc82="0" cc53="0" cc17="0" cc8="0" cc68="0" cc2="0" cc1="0" cc64="0" cc81="0" cc50="0" cc3="0" cc5="0" cc93="0" cc109="0" cc46="0" cc36="0" cc80="0" cc58="0" cc126="0" cc124="0" cc37="0" cc88="0" cc57="0" cc39="0" cc123="0" cc59="0" cc122="0" cc62="0" cc111="0" cc21="0" cc114="0" cc27="0" cc85="0" cc105="0" cc29="0"/>
          <instrument name="tripleoscillator">
            <tripleoscillator userwavefile0="" finer1="0" userwavefile1="" useWaveTable2="0" stphdetun2="0" pan1="0" modalgo1="2" userwavefile2="" finer0="0" vol0="34" modalgo3="2" pan0="0" stphdetun1="0" phoffset2="0" vol2="0" coarse2="-24" modalgo2="2" useWaveTable1="0" finel0="0" vol1="0" finel1="0" stphdetun0="0" coarse1="-12" finel2="0" phoffset1="0" wavetype1="0" pan2="0" wavetype2="0" coarse0="0" useWaveTable3="0" wavetype0="2" finer2="0" phoffset0="0">
              <key/>
            </tripleoscillator>
          </instrument>
          <eldata fcut="358" fwet="1" fres="1.16" ftype="0">
            <elvol pdel="0" amt="1" ctlenvamt="0" lpdel="0" rel="0.1" hold="0" latt="0" lshp="0" lspd="0.1" dec="0.5" userwavefile="" lspd_numerator="4" x100="0" sustain="0.5" lspd_denominator="4" lspd_syncmode="0" lamt="0" att="0.104"/>
            <elcut pdel="0" amt="1" ctlenvamt="0" lpdel="0" rel="0.1" hold="0" latt="0" lshp="0" lspd="0.1" dec="0.112" userwavefile="" lspd_numerator="4" x100="0" sustain="0" lspd_denominator="4" lspd_syncmode="0" lamt="0" att="0.48"/>
            <elres pdel="0" amt="0" ctlenvamt="0" lpdel="0" rel="0.1" hold="0.5" latt="0" lshp="0" lspd="0.1" dec="0.5" userwavefile="" lspd_numerator="4" x100="0" sustain="0.5" lspd_denominator="4" lspd_syncmode="0" lamt="0" att="0"/>
          </eldata>
          <chordcreator chord="0" chordrange="1" chord-enabled="0"/>
          <arpeggiator arptime_denominator="4" arp-enabled="0" arptime_numerator="4" arprepeats="1" arpgate="100" arpskip="0" arptime="100" arpdir="0" arpcycle="0" arptime_syncmode="0" arp="0" arprange="1" arpmiss="0" arpmode="0"/>
          <midiport writable="0" inputchannel="0" fixedinputvelocity="-1" readable="0" inputcontroller="0" fixedoutputnote="-1" outputcontroller="0" fixedoutputvelocity="-1" outputchannel="1" outputprogram="1" basevelocity="63"/>
          <fxchain numofeffects="0" enabled="1"/>
        </instrumenttrack>
        <midiclip muted="0" name="" pos="7680" type="1" steps="16">
          <note key="69" pan="0" pos="0" vol="100" len="24"/>
          <note key="69" pan="0" pos="48" vol="100" len="24"/>
          <note key="69" pan="0" pos="96" vol="100" len="24"/>
          <note key="69" pan="0" pos="144" vol="100" len="24"/>
          <note key="69" pan="0" pos="192" vol="100" len="24"/>
          <note key="69" pan="0" pos="240" vol="100" len="24"/>
          <note key="69" pan="0" pos="288" vol="100" len="24"/>
          <note key="69" pan="0" pos="336" vol="100" len="24"/>
          <note key="79" pan="0" pos="384" vol="100" len="24"/>
          <note key="69" pan="0" pos="384" vol="100" len="24"/>
          <note key="79" pan="0" pos="432" vol="100" len="24"/>
          <note key="69" pan="0" pos="432" vol="100" len="24"/>
          <note key="79" pan="0" pos="480" vol="100" len="24"/>
          <note key="69" pan="0" pos="480" vol="100" len="24"/>
          <note key="79" pan="0" pos="528" vol="100" len="24"/>
          <note key="69" pan="0" pos="528" vol="100" len="24"/>
          <note key="84" pan="0" pos="576" vol="100" len="24"/>
          <note key="79" pan="0" pos="576" vol="100" len="24"/>
          <note key="69" pan="0" pos="576" vol="100" len="24"/>
          <note key="84" pan="0" pos="624" vol="100" len="24"/>
          <note key="79" pan="0" pos="624" vol="100" len="24"/>
          <note key="69" pan="0" pos="624" vol="100" len="24"/>
          <note key="88" pan="0" pos="672" vol="100" len="24"/>
          <note key="84" pan="0" pos="672" vol="100" len="24"/>
          <note key="79" pan="0" pos="672" vol="100" len="24"/>
          <note key="69" pan="0" pos="672" vol="100" len="24"/>
          <note key="88" pan="0" pos="720" vol="100" len="24"/>
          <note key="84" pan="0" pos="720" vol="100" len="24"/>
          <note key="79" pan="0" pos="720" vol="100" len="24"/>
          <note key="69" pan="0" pos="720" vol="100" len="24"/>
        </midiclip>
      </track>
      <track muted="0" name="rif1" solo="0" mutedBeforeSolo="0" type="0">
        <instrumenttrack mixch="3" pitch="0" range_import="1" lastkey="127" enablecc="0" enabled="0" pan="0" basenote="93" keymap="0" vol="100" firstkey="0" usemasterpitch="1" scale="0" pitchrange="1">
          <midicontrollers cc25="0" cc107="0" cc22="0" cc108="0" cc92="0" cc52="0" cc71="0" cc113="0" cc54="0" cc99="0" cc32="0" cc67="0" cc60="0" cc102="0" cc0="0" cc117="0" cc125="0" cc7="0" cc74="0" cc18="0" cc45="0" cc56="0" cc30="0" cc15="0" cc72="0" cc94="0" cc78="0" cc116="0" cc118="0" cc121="0" cc4="0" cc89="0" cc96="0" cc79="0" cc35="0" cc12="0" cc127="0" cc9="0" cc40="0" cc90="0" cc23="0" cc77="0" cc101="0" cc66="0" cc76="0" cc51="0" cc47="0" cc44="0" cc84="0" cc110="0" cc61="0" cc91="0" cc28="0" cc16="0" cc10="0" cc20="0" cc19="0" cc97="0" cc98="0" cc13="0" cc69="0" cc95="0" cc112="0" cc31="0" cc49="0" cc24="0" cc120="0" cc103="0" cc65="0" cc34="0" cc63="0" cc115="0" cc73="0" cc11="0" cc26="0" cc42="0" cc100="0" cc33="0" cc6="0" cc70="0" cc75="0" cc14="0" cc87="0" cc41="0" cc43="0" cc38="0" cc104="0" cc48="0" cc55="0" cc86="0" cc119="0" cc106="0" cc83="0" cc82="0" cc53="0" cc17="0" cc8="0" cc68="0" cc2="0" cc1="0" cc64="0" cc81="0" cc50="0" cc3="0" cc5="0" cc93="0" cc109="0" cc46="0" cc36="0" cc80="0" cc58="0" cc126="0" cc124="0" cc37="0" cc88="0" cc57="0" cc39="0" cc123="0" cc59="0" cc122="0" cc62="0" cc111="0" cc21="0" cc114="0" cc27="0" cc85="0" cc105="0" cc29="0"/>
          <instrument name="tripleoscillator">
            <tripleoscillator userwavefile0="" finer1="-28" userwavefile1="" useWaveTable2="0" stphdetun2="0" pan1="0" modalgo1="2" userwavefile2="" finer0="28" vol0="33" modalgo3="2" pan0="0" stphdetun1="0" phoffset2="0" vol2="64" coarse2="12" modalgo2="2" useWaveTable1="0" finel0="-20" vol1="24" finel1="33" stphdetun0="0" coarse1="0" finel2="0" phoffset1="0" wavetype1="0" pan2="0" wavetype2="0" coarse0="0" useWaveTable3="0" wavetype0="2" finer2="0" phoffset0="0">
              <key/>
            </tripleoscillator>
          </instrument>
          <eldata fcut="358" fwet="1" fres="1.04" ftype="0">
            <elvol pdel="0" amt="1" ctlenvamt="0" lpdel="0" rel="0.1" hold="0" latt="0" lshp="0" lspd="0.1" dec="0.5" userwavefile="" lspd_numerator="4" x100="0" sustain="0.5" lspd_denominator="4" lspd_syncmode="0" lamt="0" att="0"/>
            <elcut pdel="0" amt="1" ctlenvamt="0" lpdel="0" rel="0.1" hold="0" latt="0" lshp="0" lspd="0.1" dec="0.112" userwavefile="" lspd_numerator="4" x100="0" sustain="0" lspd_denominator="4" lspd_syncmode="0" lamt="0" att="0.04"/>
            <elres pdel="0" amt="0" ctlenvamt="0" lpdel="0" rel="0.1" hold="0.5" latt="0" lshp="0" lspd="0.1" dec="0.5" userwavefile="" lspd_numerator="4" x100="0" sustain="0.5" lspd_denominator="4" lspd_syncmode="0" lamt="0" att="0"/>
          </eldata>
          <chordcreator chord="0" chordrange="1" chord-enabled="0"/>
          <arpeggiator arptime_denominator="4" arp-enabled="0" arptime_numerator="4" arprepeats="1" arpgate="100" arpskip="0" arptime="100" arpdir="0" arpcycle="0" arptime_syncmode="0" arp="0" arprange="1" arpmiss="0" arpmode="0"/>
          <midiport writable="0" inputchannel="0" fixedinputvelocity="-1" readable="0" inputcontroller="0" fixedoutputnote="-1" outputcontroller="0" fixedoutputvelocity="-1" outputchannel="1" outputprogram="1" basevelocity="63"/>
          <fxchain numofeffects="2" enabled="1">
            <effect autoquit_syncmode="0" autoquit="1" wet="1" name="ladspaeffect" autoquit_numerator="4" autoquit_denominator="4" gate="0" on="1">
              <ladspacontrols ports="4" link="1">
                <port01 link="1" data="6.1775"/>
                <port02 link="1" data="0.25375"/>
                <port11 data="6.1775"/>
                <port12 data="0.25375"/>
              </ladspacontrols>
              <key>
                <attribute name="file" value="caps"/>
                <attribute name="plugin" value="PreampIII"/>
              </key>
            </effect>
            <effect autoquit_syncmode="0" autoquit="1" wet="1" name="bitcrush" autoquit_numerator="4" autoquit_denominator="4" gate="0" on="0">
              <bitcrushcontrols levels="256" innoise="0" ingain="0" outgain="0" stereodiff="0" depthon="1" rate="1671" outclip="0" rateon="1"/>
              <key/>
            </effect>
          </fxchain>
        </instrumenttrack>
        <midiclip muted="0" name="" pos="1536" type="1" steps="16">
          <note key="50" pan="0" pos="0" vol="100" len="24"/>
          <note key="50" pan="0" pos="48" vol="100" len="24"/>
          <note key="50" pan="0" pos="96" vol="100" len="24"/>
          <note key="45" pan="0" pos="132" vol="100" len="12"/>
          <note key="48" pan="0" pos="144" vol="100" len="12"/>
          <note key="49" pan="0" pos="168" vol="100" len="12"/>
          <note key="50" pan="0" pos="192" vol="100" len="24"/>
          <note key="50" pan="0" pos="240" vol="100" len="24"/>
          <note key="50" pan="0" pos="288" vol="100" len="24"/>
          <note key="45" pan="0" pos="324" vol="100" len="12"/>
          <note key="48" pan="0" pos="336" vol="100" len="12"/>
          <note key="49" pan="0" pos="360" vol="100" len="12"/>
          <note key="50" pan="0" pos="384" vol="100" len="24"/>
          <note key="50" pan="0" pos="432" vol="100" len="24"/>
          <note key="50" pan="0" pos="480" vol="100" len="24"/>
          <note key="45" pan="0" pos="516" vol="100" len="12"/>
          <note key="48" pan="0" pos="528" vol="100" len="12"/>
          <note key="49" pan="0" pos="552" vol="100" len="12"/>
          <note key="50" pan="0" pos="576" vol="100" len="24"/>
          <note key="50" pan="0" pos="624" vol="100" len="24"/>
          <note key="50" pan="0" pos="672" vol="100" len="24"/>
          <note key="43" pan="0" pos="684" vol="100" len="6"/>
          <note key="44" pan="0" pos="696" vol="100" len="6"/>
          <note key="45" pan="0" pos="708" vol="100" len="12"/>
          <note key="46" pan="0" pos="720" vol="100" len="12"/>
          <note key="47" pan="0" pos="732" vol="100" len="6"/>
          <note key="48" pan="0" pos="744" vol="100" len="12"/>
          <note key="49" pan="0" pos="756" vol="100" len="6"/>
        </midiclip>
        <midiclip muted="0" name="" pos="2304" type="1" steps="16">
          <note key="50" pan="0" pos="0" vol="100" len="24"/>
          <note key="50" pan="0" pos="48" vol="100" len="24"/>
          <note key="50" pan="0" pos="96" vol="100" len="24"/>
          <note key="45" pan="0" pos="132" vol="100" len="12"/>
          <note key="48" pan="0" pos="144" vol="100" len="12"/>
          <note key="49" pan="0" pos="168" vol="100" len="12"/>
          <note key="50" pan="0" pos="192" vol="100" len="24"/>
          <note key="50" pan="0" pos="240" vol="100" len="24"/>
          <note key="50" pan="0" pos="288" vol="100" len="24"/>
          <note key="45" pan="0" pos="324" vol="100" len="12"/>
          <note key="48" pan="0" pos="336" vol="100" len="12"/>
          <note key="49" pan="0" pos="360" vol="100" len="12"/>
          <note key="50" pan="0" pos="384" vol="100" len="24"/>
          <note key="50" pan="0" pos="432" vol="100" len="24"/>
          <note key="50" pan="0" pos="480" vol="100" len="24"/>
          <note key="45" pan="0" pos="516" vol="100" len="12"/>
          <note key="48" pan="0" pos="528" vol="100" len="12"/>
          <note key="49" pan="0" pos="552" vol="100" len="12"/>
          <note key="50" pan="0" pos="576" vol="100" len="24"/>
          <note key="50" pan="0" pos="624" vol="100" len="24"/>
          <note key="50" pan="0" pos="672" vol="100" len="24"/>
          <note key="43" pan="0" pos="684" vol="100" len="6"/>
          <note key="44" pan="0" pos="696" vol="100" len="6"/>
          <note key="45" pan="0" pos="708" vol="100" len="12"/>
          <note key="46" pan="0" pos="720" vol="100" len="12"/>
          <note key="47" pan="0" pos="732" vol="100" len="6"/>
          <note key="48" pan="0" pos="744" vol="100" len="12"/>
          <note key="49" pan="0" pos="756" vol="100" len="6"/>
        </midiclip>
        <midiclip muted="0" name="" pos="3072" type="1" steps="16">
          <note key="50" pan="0" pos="0" vol="100" len="24"/>
          <note key="50" pan="0" pos="48" vol="100" len="24"/>
          <note key="50" pan="0" pos="96" vol="100" len="24"/>
          <note key="45" pan="0" pos="132" vol="100" len="12"/>
          <note key="48" pan="0" pos="144" vol="100" len="12"/>
          <note key="49" pan="0" pos="168" vol="100" len="12"/>
          <note key="50" pan="0" pos="192" vol="100" len="24"/>
          <note key="50" pan="0" pos="240" vol="100" len="24"/>
          <note key="50" pan="0" pos="288" vol="100" len="24"/>
          <note key="45" pan="0" pos="324" vol="100" len="12"/>
          <note key="48" pan="0" pos="336" vol="100" len="12"/>
          <note key="49" pan="0" pos="360" vol="100" len="12"/>
          <note key="50" pan="0" pos="384" vol="100" len="24"/>
          <note key="50" pan="0" pos="432" vol="100" len="24"/>
          <note key="50" pan="0" pos="480" vol="100" len="24"/>
          <note key="45" pan="0" pos="516" vol="100" len="12"/>
          <note key="48" pan="0" pos="528" vol="100" len="12"/>
          <note key="49" pan="0" pos="552" vol="100" len="12"/>
          <note key="50" pan="0" pos="576" vol="100" len="24"/>
          <note key="50" pan="0" pos="624" vol="100" len="24"/>
          <note key="50" pan="0" pos="672" vol="100" len="24"/>
          <note key="43" pan="0" pos="684" vol="100" len="6"/>
          <note key="44" pan="0" pos="696" vol="100" len="6"/>
          <note key="45" pan="0" pos="708" vol="100" len="12"/>
          <note key="46" pan="0" pos="720" vol="100" len="12"/>
          <note key="47" pan="0" pos="732" vol="100" len="6"/>
          <note key="48" pan="0" pos="744" vol="100" len="12"/>
          <note key="49" pan="0" pos="756" vol="100" len="6"/>
        </midiclip>
        <midiclip muted="0" name="" pos="3840" type="1" steps="16">
          <note key="50" pan="0" pos="0" vol="100" len="24"/>
          <note key="50" pan="0" pos="48" vol="100" len="24"/>
          <note key="50" pan="0" pos="96" vol="100" len="24"/>
          <note key="45" pan="0" pos="132" vol="100" len="12"/>
          <note key="48" pan="0" pos="144" vol="100" len="12"/>
          <note key="49" pan="0" pos="168" vol="100" len="12"/>
          <note key="50" pan="0" pos="192" vol="100" len="24"/>
          <note key="50" pan="0" pos="240" vol="100" len="24"/>
          <note key="50" pan="0" pos="288" vol="100" len="24"/>
          <note key="45" pan="0" pos="324" vol="100" len="12"/>
          <note key="48" pan="0" pos="336" vol="100" len="12"/>
          <note key="49" pan="0" pos="360" vol="100" len="12"/>
          <note key="50" pan="0" pos="384" vol="100" len="24"/>
          <note key="50" pan="0" pos="432" vol="100" len="24"/>
          <note key="50" pan="0" pos="480" vol="100" len="24"/>
          <note key="45" pan="0" pos="516" vol="100" len="12"/>
          <note key="48" pan="0" pos="528" vol="100" len="12"/>
          <note key="49" pan="0" pos="552" vol="100" len="12"/>
          <note key="50" pan="0" pos="576" vol="100" len="24"/>
          <note key="50" pan="0" pos="624" vol="100" len="24"/>
          <note key="50" pan="0" pos="672" vol="100" len="24"/>
          <note key="43" pan="0" pos="684" vol="100" len="6"/>
          <note key="44" pan="0" pos="696" vol="100" len="6"/>
          <note key="45" pan="0" pos="708" vol="100" len="12"/>
          <note key="46" pan="0" pos="720" vol="100" len="12"/>
          <note key="47" pan="0" pos="732" vol="100" len="6"/>
          <note key="48" pan="0" pos="744" vol="100" len="12"/>
          <note key="49" pan="0" pos="756" vol="100" len="6"/>
        </midiclip>
        <midiclip muted="0" name="" pos="4608" type="1" steps="16">
          <note key="50" pan="0" pos="0" vol="100" len="24"/>
          <note key="50" pan="0" pos="48" vol="100" len="24"/>
          <note key="50" pan="0" pos="96" vol="100" len="24"/>
          <note key="45" pan="0" pos="132" vol="100" len="12"/>
          <note key="48" pan="0" pos="144" vol="100" len="12"/>
          <note key="49" pan="0" pos="168" vol="100" len="12"/>
          <note key="50" pan="0" pos="192" vol="100" len="24"/>
          <note key="50" pan="0" pos="240" vol="100" len="24"/>
          <note key="50" pan="0" pos="288" vol="100" len="24"/>
          <note key="45" pan="0" pos="324" vol="100" len="12"/>
          <note key="48" pan="0" pos="336" vol="100" len="12"/>
          <note key="49" pan="0" pos="360" vol="100" len="12"/>
          <note key="50" pan="0" pos="384" vol="100" len="24"/>
          <note key="50" pan="0" pos="432" vol="100" len="24"/>
          <note key="50" pan="0" pos="480" vol="100" len="24"/>
          <note key="45" pan="0" pos="516" vol="100" len="12"/>
          <note key="48" pan="0" pos="528" vol="100" len="12"/>
          <note key="49" pan="0" pos="552" vol="100" len="12"/>
          <note key="50" pan="0" pos="576" vol="100" len="24"/>
          <note key="50" pan="0" pos="624" vol="100" len="24"/>
          <note key="50" pan="0" pos="672" vol="100" len="24"/>
          <note key="43" pan="0" pos="684" vol="100" len="6"/>
          <note key="44" pan="0" pos="696" vol="100" len="6"/>
          <note key="45" pan="0" pos="708" vol="100" len="12"/>
          <note key="46" pan="0" pos="720" vol="100" len="12"/>
          <note key="47" pan="0" pos="732" vol="100" len="6"/>
          <note key="48" pan="0" pos="744" vol="100" len="12"/>
          <note key="49" pan="0" pos="756" vol="100" len="6"/>
        </midiclip>
        <midiclip muted="0" name="" pos="5376" type="1" steps="16">
          <note key="50" pan="0" pos="0" vol="100" len="24"/>
          <note key="50" pan="0" pos="48" vol="100" len="24"/>
          <note key="50" pan="0" pos="96" vol="100" len="24"/>
          <note key="45" pan="0" pos="132" vol="100" len="12"/>
          <note key="48" pan="0" pos="144" vol="100" len="12"/>
          <note key="49" pan="0" pos="168" vol="100" len="12"/>
          <note key="50" pan="0" pos="192" vol="100" len="24"/>
          <note key="50" pan="0" pos="240" vol="100" len="24"/>
          <note key="50" pan="0" pos="288" vol="100" len="24"/>
          <note key="45" pan="0" pos="324" vol="100" len="12"/>
          <note key="48" pan="0" pos="336" vol="100" len="12"/>
          <note key="49" pan="0" pos="360" vol="100" len="12"/>
          <note key="50" pan="0" pos="384" vol="100" len="24"/>
          <note key="50" pan="0" pos="432" vol="100" len="24"/>
          <note key="50" pan="0" pos="480" vol="100" len="24"/>
          <note key="45" pan="0" pos="516" vol="100" len="12"/>
          <note key="48" pan="0" pos="528" vol="100" len="12"/>
          <note key="49" pan="0" pos="552" vol="100" len="12"/>
          <note key="50" pan="0" pos="576" vol="100" len="24"/>
          <note key="50" pan="0" pos="624" vol="100" len="24"/>
          <note key="50" pan="0" pos="672" vol="100" len="24"/>
          <note key="43" pan="0" pos="684" vol="100" len="6"/>
          <note key="44" pan="0" pos="696" vol="100" len="6"/>
          <note key="45" pan="0" pos="708" vol="100" len="12"/>
          <note key="46" pan="0" pos="720" vol="100" len="12"/>
          <note key="47" pan="0" pos="732" vol="100" len="6"/>
          <note key="48" pan="0" pos="744" vol="100" len="12"/>
          <note key="49" pan="0" pos="756" vol="100" len="6"/>
        </midiclip>
        <midiclip muted="0" name="" pos="9216" type="1" steps="16">
          <note key="60" pan="0" pos="0" vol="100" len="48"/>
          <note key="64" pan="0" pos="120" vol="100" len="12"/>
          <note key="62" pan="0" pos="168" vol="100" len="48"/>
          <note key="57" pan="0" pos="264" vol="100" len="12"/>
          <note key="62" pan="0" pos="288" vol="100" len="12"/>
          <note key="63" pan="0" pos="336" vol="100" len="12"/>
          <note key="64" pan="0" pos="384" vol="100" len="48"/>
          <note key="57" pan="0" pos="504" vol="100" len="12"/>
          <note key="58" pan="0" pos="528" vol="100" len="12"/>
          <note key="59" pan="0" pos="552" vol="100" len="60"/>
          <note key="59" pan="0" pos="648" vol="100" len="12"/>
          <note key="57" pan="0" pos="672" vol="100" len="12"/>
          <note key="59" pan="0" pos="720" vol="100" len="12"/>
        </midiclip>
        <midiclip muted="0" name="" pos="9984" type="1" steps="16">
          <note key="60" pan="0" pos="0" vol="100" len="48"/>
          <note key="64" pan="0" pos="120" vol="100" len="12"/>
          <note key="62" pan="0" pos="168" vol="100" len="48"/>
          <note key="57" pan="0" pos="264" vol="100" len="12"/>
          <note key="62" pan="0" pos="288" vol="100" len="12"/>
          <note key="63" pan="0" pos="336" vol="100" len="12"/>
          <note key="64" pan="0" pos="384" vol="100" len="48"/>
          <note key="57" pan="0" pos="504" vol="100" len="12"/>
          <note key="58" pan="0" pos="528" vol="100" len="12"/>
          <note key="59" pan="0" pos="552" vol="100" len="60"/>
          <note key="59" pan="0" pos="648" vol="100" len="12"/>
          <note key="57" pan="0" pos="672" vol="100" len="12"/>
          <note key="59" pan="0" pos="720" vol="100" len="12"/>
        </midiclip>
        <midiclip muted="0" name="" pos="10752" type="1" steps="16">
          <note key="60" pan="0" pos="0" vol="100" len="48"/>
          <note key="64" pan="0" pos="120" vol="100" len="12"/>
          <note key="62" pan="0" pos="168" vol="100" len="48"/>
          <note key="57" pan="0" pos="264" vol="100" len="12"/>
          <note key="62" pan="0" pos="288" vol="100" len="12"/>
          <note key="63" pan="0" pos="336" vol="100" len="12"/>
          <note key="64" pan="0" pos="384" vol="100" len="48"/>
          <note key="57" pan="0" pos="504" vol="100" len="12"/>
          <note key="56" pan="0" pos="528" vol="100" len="12"/>
          <note key="55" pan="0" pos="552" vol="100" len="60"/>
          <note key="59" pan="0" pos="648" vol="100" len="12"/>
          <note key="57" pan="0" pos="672" vol="100" len="12"/>
          <note key="55" pan="0" pos="720" vol="100" len="12"/>
        </midiclip>
      </track>
      <track muted="0" name="lead" solo="0" mutedBeforeSolo="0" type="0">
        <instrumenttrack mixch="5" pitch="0" range_import="1" lastkey="127" enablecc="0" enabled="0" pan="0" basenote="93" keymap="0" vol="100" firstkey="0" usemasterpitch="1" scale="0" pitchrange="1">
          <midicontrollers cc25="0" cc107="0" cc22="0" cc108="0" cc92="0" cc52="0" cc71="0" cc113="0" cc54="0" cc99="0" cc32="0" cc67="0" cc60="0" cc102="0" cc0="0" cc117="0" cc125="0" cc7="0" cc74="0" cc18="0" cc45="0" cc56="0" cc30="0" cc15="0" cc72="0" cc94="0" cc78="0" cc116="0" cc118="0" cc121="0" cc4="0" cc89="0" cc96="0" cc79="0" cc35="0" cc12="0" cc127="0" cc9="0" cc40="0" cc90="0" cc23="0" cc77="0" cc101="0" cc66="0" cc76="0" cc51="0" cc47="0" cc44="0" cc84="0" cc110="0" cc61="0" cc91="0" cc28="0" cc16="0" cc10="0" cc20="0" cc19="0" cc97="0" cc98="0" cc13="0" cc69="0" cc95="0" cc112="0" cc31="0" cc49="0" cc24="0" cc120="0" cc103="0" cc65="0" cc34="0" cc63="0" cc115="0" cc73="0" cc11="0" cc26="0" cc42="0" cc100="0" cc33="0" cc6="0" cc70="0" cc75="0" cc14="0" cc87="0" cc41="0" cc43="0" cc38="0" cc104="0" cc48="0" cc55="0" cc86="0" cc119="0" cc106="0" cc83="0" cc82="0" cc53="0" cc17="0" cc8="0" cc68="0" cc2="0" cc1="0" cc64="0" cc81="0" cc50="0" cc3="0" cc5="0" cc93="0" cc109="0" cc46="0" cc36="0" cc80="0" cc58="0" cc126="0" cc124="0" cc37="0" cc88="0" cc57="0" cc39="0" cc123="0" cc59="0" cc122="0" cc62="0" cc111="0" cc21="0" cc114="0" cc27="0" cc85="0" cc105="0" cc29="0"/>
          <instrument name="tripleoscillator">
            <tripleoscillator userwavefile0="" finer1="0" userwavefile1="" useWaveTable2="0" stphdetun2="0" pan1="0" modalgo1="2" userwavefile2="" finer0="7" vol0="33" modalgo3="2" pan0="0" stphdetun1="0" phoffset2="0" vol2="64" coarse2="12" modalgo2="2" useWaveTable1="0" finel0="8" vol1="24" finel1="0" stphdetun0="0" coarse1="0" finel2="0" phoffset1="0" wavetype1="0" pan2="0" wavetype2="0" coarse0="0" useWaveTable3="0" wavetype0="2" finer2="0" phoffset0="0">
              <key/>
            </tripleoscillator>
          </instrument>
          <eldata fcut="358" fwet="1" fres="1.04" ftype="0">
            <elvol pdel="0" amt="1" ctlenvamt="0" lpdel="0" rel="0.1" hold="0" latt="0" lshp="0" lspd="0.1" dec="0.5" userwavefile="" lspd_numerator="4" x100="0" sustain="0.5" lspd_denominator="4" lspd_syncmode="0" lamt="0" att="0"/>
            <elcut pdel="0" amt="0" ctlenvamt="0" lpdel="0" rel="0.1" hold="0" latt="0" lshp="0" lspd="0.1" dec="0.112" userwavefile="" lspd_numerator="4" x100="0" sustain="0" lspd_denominator="4" lspd_syncmode="0" lamt="0" att="0.04"/>
            <elres pdel="0" amt="0" ctlenvamt="0" lpdel="0" rel="0.1" hold="0.5" latt="0" lshp="0" lspd="0.1" dec="0.5" userwavefile="" lspd_numerator="4" x100="0" sustain="0.5" lspd_denominator="4" lspd_syncmode="0" lamt="0" att="0"/>
          </eldata>
          <chordcreator chord="0" chordrange="1" chord-enabled="0"/>
          <arpeggiator arptime_denominator="4" arp-enabled="0" arptime_numerator="4" arprepeats="1" arpgate="100" arpskip="0" arptime="100" arpdir="0" arpcycle="0" arptime_syncmode="0" arp="0" arprange="1" arpmiss="0" arpmode="0"/>
          <midiport writable="0" inputchannel="0" fixedinputvelocity="-1" readable="0" inputcontroller="0" fixedoutputnote="-1" outputcontroller="0" fixedoutputvelocity="-1" outputchannel="1" outputprogram="1" basevelocity="63"/>
          <fxchain numofeffects="2" enabled="1">
            <effect autoquit_syncmode="0" autoquit="1" wet="1" name="ladspaeffect" autoquit_numerator="4" autoquit_denominator="4" gate="0" on="1">
              <ladspacontrols ports="4" link="1">
                <port01 link="1" data="6.1775"/>
                <port02 link="1" data="0.25375"/>
                <port11 data="6.1775"/>
                <port12 data="0.25375"/>
              </ladspacontrols>
              <key>
                <attribute name="file" value="caps"/>
                <attribute name="plugin" value="PreampIII"/>
              </key>
            </effect>
            <effect autoquit_syncmode="0" autoquit="1" wet="1" name="bitcrush" autoquit_numerator="4" autoquit_denominator="4" gate="0" on="0">
              <bitcrushcontrols levels="256" innoise="0" ingain="0" outgain="0" stereodiff="0" depthon="1" rate="1671" outclip="0" rateon="1"/>
              <key/>
            </effect>
          </fxchain>
        </instrumenttrack>
        <midiclip muted="0" name="" pos="3072" type="1" steps="16">
          <note key="81" pan="0" pos="0" vol="100" len="168"/>
          <note key="76" pan="0" pos="168" vol="100" len="24"/>
          <note key="82" pan="0" pos="192" vol="100" len="144"/>
          <note key="81" pan="0" pos="336" vol="100" len="12"/>
          <note key="79" pan="0" pos="348" vol="100" len="12"/>
          <note key="77" pan="0" pos="360" vol="100" len="12"/>
          <note key="76" pan="0" pos="372" vol="100" len="12"/>
          <note key="70" pan="0" pos="384" vol="100" len="12"/>
          <note key="67" pan="0" pos="396" vol="100" len="12"/>
          <note key="69" pan="0" pos="408" vol="100" len="168"/>
        </midiclip>
        <midiclip muted="0" name="" pos="3840" type="1" steps="16">
          <note key="86" pan="0" pos="0" vol="100" len="168"/>
          <note key="88" pan="0" pos="168" vol="100" len="24"/>
          <note key="84" pan="0" pos="192" vol="100" len="144"/>
          <note key="81" pan="0" pos="336" vol="100" len="12"/>
          <note key="79" pan="0" pos="348" vol="100" len="12"/>
          <note key="77" pan="0" pos="360" vol="100" len="12"/>
          <note key="76" pan="0" pos="372" vol="100" len="12"/>
          <note key="70" pan="0" pos="384" vol="100" len="12"/>
          <note key="67" pan="0" pos="396" vol="100" len="12"/>
          <note key="82" pan="0" pos="408" vol="100" len="168"/>
          <note key="85" pan="0" pos="576" vol="14" len="6"/>
          <note key="81" pan="0" pos="576" vol="14" len="6"/>
          <note key="85" pan="0" pos="588" vol="14" len="6"/>
          <note key="81" pan="0" pos="588" vol="14" len="6"/>
          <note key="85" pan="0" pos="600" vol="14" len="6"/>
          <note key="81" pan="0" pos="600" vol="14" len="6"/>
          <note key="85" pan="0" pos="612" vol="14" len="6"/>
          <note key="81" pan="0" pos="612" vol="14" len="6"/>
          <note key="85" pan="0" pos="624" vol="14" len="6"/>
          <note key="81" pan="0" pos="624" vol="14" len="6"/>
          <note key="85" pan="0" pos="636" vol="14" len="6"/>
          <note key="81" pan="0" pos="636" vol="14" len="6"/>
          <note key="85" pan="0" pos="648" vol="14" len="6"/>
          <note key="81" pan="0" pos="648" vol="14" len="6"/>
          <note key="85" pan="0" pos="660" vol="14" len="6"/>
          <note key="81" pan="0" pos="660" vol="14" len="6"/>
          <note key="85" pan="0" pos="672" vol="14" len="6"/>
          <note key="81" pan="0" pos="672" vol="14" len="6"/>
          <note key="85" pan="0" pos="684" vol="17" len="6"/>
          <note key="81" pan="0" pos="684" vol="17" len="6"/>
          <note key="85" pan="0" pos="696" vol="17" len="6"/>
          <note key="81" pan="0" pos="696" vol="17" len="6"/>
          <note key="85" pan="0" pos="708" vol="19" len="6"/>
          <note key="81" pan="0" pos="708" vol="19" len="6"/>
          <note key="85" pan="0" pos="720" vol="21" len="6"/>
          <note key="81" pan="0" pos="720" vol="21" len="6"/>
          <note key="85" pan="0" pos="732" vol="29" len="6"/>
          <note key="81" pan="0" pos="732" vol="29" len="6"/>
          <note key="85" pan="0" pos="744" vol="34" len="6"/>
          <note key="81" pan="0" pos="744" vol="34" len="6"/>
          <note key="85" pan="0" pos="756" vol="38" len="6"/>
          <note key="81" pan="0" pos="756" vol="38" len="6"/>
        </midiclip>
        <midiclip muted="0" name="" pos="4608" type="1" steps="16">
          <note key="81" pan="0" pos="0" vol="100" len="168"/>
          <note key="76" pan="0" pos="168" vol="100" len="24"/>
          <note key="82" pan="0" pos="192" vol="100" len="168"/>
          <note key="81" pan="0" pos="360" vol="100" len="24"/>
          <note key="81" pan="0" pos="384" vol="100" len="12"/>
          <note key="70" pan="0" pos="384" vol="100" len="12"/>
          <note key="81" pan="0" pos="396" vol="100" len="12"/>
          <note key="67" pan="0" pos="396" vol="100" len="12"/>
          <note key="80" pan="0" pos="408" vol="100" len="168"/>
          <note key="70" pan="0" pos="408" vol="100" len="1"/>
          <note key="85" pan="0" pos="576" vol="36" len="6"/>
          <note key="81" pan="0" pos="576" vol="36" len="6"/>
          <note key="85" pan="0" pos="588" vol="34" len="6"/>
          <note key="81" pan="0" pos="588" vol="34" len="6"/>
          <note key="85" pan="0" pos="600" vol="38" len="6"/>
          <note key="81" pan="0" pos="600" vol="38" len="6"/>
          <note key="85" pan="0" pos="612" vol="46" len="6"/>
          <note key="81" pan="0" pos="612" vol="46" len="6"/>
          <note key="85" pan="0" pos="624" vol="48" len="6"/>
          <note key="81" pan="0" pos="624" vol="48" len="6"/>
          <note key="85" pan="0" pos="636" vol="59" len="6"/>
          <note key="81" pan="0" pos="636" vol="59" len="6"/>
          <note key="85" pan="0" pos="648" vol="63" len="6"/>
          <note key="81" pan="0" pos="648" vol="63" len="6"/>
          <note key="85" pan="0" pos="660" vol="63" len="6"/>
          <note key="81" pan="0" pos="660" vol="63" len="6"/>
          <note key="85" pan="0" pos="672" vol="63" len="6"/>
          <note key="81" pan="0" pos="672" vol="63" len="6"/>
          <note key="85" pan="0" pos="684" vol="63" len="6"/>
          <note key="81" pan="0" pos="684" vol="63" len="6"/>
          <note key="85" pan="0" pos="696" vol="59" len="6"/>
          <note key="81" pan="0" pos="696" vol="59" len="6"/>
          <note key="85" pan="0" pos="708" vol="57" len="6"/>
          <note key="81" pan="0" pos="708" vol="57" len="6"/>
          <note key="85" pan="0" pos="720" vol="46" len="6"/>
          <note key="81" pan="0" pos="720" vol="46" len="6"/>
          <note key="85" pan="0" pos="732" vol="42" len="6"/>
          <note key="81" pan="0" pos="732" vol="42" len="6"/>
          <note key="85" pan="0" pos="744" vol="40" len="6"/>
          <note key="81" pan="0" pos="744" vol="40" len="6"/>
          <note key="85" pan="0" pos="756" vol="40" len="6"/>
          <note key="81" pan="0" pos="756" vol="40" len="6"/>
        </midiclip>
        <midiclip muted="0" name="" pos="5376" type="1" steps="16">
          <note key="86" pan="0" pos="0" vol="100" len="168"/>
          <note key="88" pan="0" pos="168" vol="100" len="24"/>
          <note key="84" pan="0" pos="192" vol="100" len="144"/>
          <note key="81" pan="0" pos="336" vol="100" len="12"/>
          <note key="79" pan="0" pos="348" vol="100" len="12"/>
          <note key="77" pan="0" pos="360" vol="100" len="12"/>
          <note key="76" pan="0" pos="372" vol="100" len="12"/>
          <note key="70" pan="0" pos="384" vol="100" len="12"/>
          <note key="67" pan="0" pos="396" vol="100" len="12"/>
          <note key="82" pan="0" pos="408" vol="100" len="168"/>
          <note key="85" pan="0" pos="576" vol="14" len="6"/>
          <note key="81" pan="0" pos="576" vol="14" len="6"/>
          <note key="85" pan="0" pos="588" vol="19" len="6"/>
          <note key="81" pan="0" pos="588" vol="19" len="6"/>
          <note key="85" pan="0" pos="600" vol="19" len="6"/>
          <note key="81" pan="0" pos="600" vol="19" len="6"/>
          <note key="85" pan="0" pos="612" vol="19" len="6"/>
          <note key="81" pan="0" pos="612" vol="19" len="6"/>
          <note key="85" pan="0" pos="624" vol="19" len="6"/>
          <note key="81" pan="0" pos="624" vol="19" len="6"/>
          <note key="85" pan="0" pos="636" vol="19" len="6"/>
          <note key="81" pan="0" pos="636" vol="19" len="6"/>
          <note key="85" pan="0" pos="648" vol="19" len="6"/>
          <note key="81" pan="0" pos="648" vol="19" len="6"/>
          <note key="85" pan="0" pos="660" vol="19" len="6"/>
          <note key="81" pan="0" pos="660" vol="19" len="6"/>
          <note key="85" pan="0" pos="672" vol="21" len="6"/>
          <note key="81" pan="0" pos="672" vol="21" len="6"/>
          <note key="85" pan="0" pos="684" vol="23" len="6"/>
          <note key="81" pan="0" pos="684" vol="23" len="6"/>
          <note key="85" pan="0" pos="696" vol="27" len="6"/>
          <note key="81" pan="0" pos="696" vol="27" len="6"/>
          <note key="85" pan="0" pos="708" vol="29" len="6"/>
          <note key="81" pan="0" pos="708" vol="29" len="6"/>
          <note key="85" pan="0" pos="720" vol="29" len="6"/>
          <note key="81" pan="0" pos="720" vol="29" len="6"/>
          <note key="85" pan="0" pos="732" vol="31" len="6"/>
          <note key="81" pan="0" pos="732" vol="31" len="6"/>
          <note key="85" pan="0" pos="744" vol="34" len="6"/>
          <note key="81" pan="0" pos="744" vol="34" len="6"/>
          <note key="85" pan="0" pos="756" vol="38" len="6"/>
          <note key="81" pan="0" pos="756" vol="38" len="6"/>
        </midiclip>
        <midiclip muted="0" name="" pos="6144" type="1" steps="16">
          <note key="58" pan="0" pos="0" vol="100" len="24"/>
          <note key="58" pan="0" pos="24" vol="100" len="24"/>
          <note key="58" pan="0" pos="48" vol="100" len="24"/>
          <note key="58" pan="0" pos="72" vol="100" len="24"/>
          <note key="58" pan="0" pos="96" vol="100" len="24"/>
          <note key="58" pan="0" pos="120" vol="100" len="24"/>
          <note key="58" pan="0" pos="144" vol="100" len="24"/>
          <note key="59" pan="0" pos="168" vol="100" len="24"/>
          <note key="60" pan="0" pos="192" vol="100" len="24"/>
          <note key="60" pan="0" pos="216" vol="100" len="24"/>
          <note key="60" pan="0" pos="240" vol="100" len="24"/>
          <note key="60" pan="0" pos="264" vol="100" len="24"/>
          <note key="60" pan="0" pos="288" vol="100" len="24"/>
          <note key="60" pan="0" pos="312" vol="100" len="24"/>
          <note key="60" pan="0" pos="336" vol="100" len="24"/>
          <note key="61" pan="0" pos="360" vol="100" len="24"/>
          <note key="57" pan="0" pos="384" vol="100" len="24"/>
          <note key="57" pan="0" pos="408" vol="100" len="24"/>
          <note key="57" pan="0" pos="432" vol="100" len="24"/>
          <note key="57" pan="0" pos="456" vol="100" len="24"/>
          <note key="57" pan="0" pos="480" vol="100" len="24"/>
          <note key="57" pan="0" pos="504" vol="100" len="24"/>
          <note key="57" pan="0" pos="528" vol="100" len="24"/>
          <note key="55" pan="0" pos="552" vol="100" len="24"/>
          <note key="57" pan="0" pos="576" vol="100" len="24"/>
          <note key="57" pan="0" pos="600" vol="100" len="24"/>
          <note key="57" pan="0" pos="624" vol="100" len="24"/>
          <note key="57" pan="0" pos="648" vol="100" len="24"/>
          <note key="57" pan="0" pos="672" vol="100" len="24"/>
          <note key="57" pan="0" pos="696" vol="100" len="24"/>
          <note key="57" pan="0" pos="720" vol="100" len="24"/>
          <note key="57" pan="0" pos="744" vol="100" len="24"/>
          <note key="58" pan="0" pos="768" vol="100" len="24"/>
          <note key="58" pan="0" pos="792" vol="100" len="24"/>
          <note key="58" pan="0" pos="816" vol="100" len="24"/>
          <note key="58" pan="0" pos="840" vol="100" len="24"/>
          <note key="58" pan="0" pos="864" vol="100" len="24"/>
          <note key="58" pan="0" pos="888" vol="100" len="24"/>
          <note key="58" pan="0" pos="912" vol="100" len="24"/>
          <note key="59" pan="0" pos="936" vol="100" len="24"/>
          <note key="60" pan="0" pos="960" vol="100" len="24"/>
          <note key="60" pan="0" pos="984" vol="100" len="24"/>
          <note key="60" pan="0" pos="1008" vol="100" len="24"/>
          <note key="60" pan="0" pos="1032" vol="100" len="24"/>
          <note key="60" pan="0" pos="1056" vol="100" len="24"/>
          <note key="60" pan="0" pos="1080" vol="100" len="24"/>
          <note key="60" pan="0" pos="1104" vol="100" len="24"/>
          <note key="61" pan="0" pos="1128" vol="100" len="24"/>
          <note key="57" pan="0" pos="1152" vol="100" len="24"/>
          <note key="57" pan="0" pos="1176" vol="100" len="24"/>
          <note key="57" pan="0" pos="1200" vol="100" len="24"/>
          <note key="57" pan="0" pos="1224" vol="100" len="24"/>
          <note key="57" pan="0" pos="1248" vol="100" len="24"/>
          <note key="57" pan="0" pos="1272" vol="100" len="24"/>
          <note key="57" pan="0" pos="1296" vol="100" len="24"/>
          <note key="57" pan="0" pos="1320" vol="100" len="24"/>
          <note key="57" pan="0" pos="1344" vol="100" len="24"/>
          <note key="57" pan="0" pos="1368" vol="100" len="24"/>
          <note key="57" pan="0" pos="1392" vol="100" len="24"/>
          <note key="57" pan="0" pos="1416" vol="100" len="24"/>
          <note key="57" pan="0" pos="1440" vol="100" len="24"/>
          <note key="57" pan="0" pos="1464" vol="100" len="24"/>
          <note key="57" pan="0" pos="1488" vol="100" len="24"/>
          <note key="57" pan="0" pos="1512" vol="100" len="24"/>
        </midiclip>
        <midiclip muted="0" name="" pos="9984" type="1" steps="16">
          <note key="79" pan="0" pos="0" vol="100" len="24"/>
          <note key="78" pan="0" pos="24" vol="100" len="24"/>
          <note key="79" pan="0" pos="48" vol="100" len="24"/>
          <note key="78" pan="0" pos="72" vol="100" len="24"/>
          <note key="74" pan="0" pos="96" vol="100" len="24"/>
          <note key="69" pan="0" pos="120" vol="100" len="24"/>
          <note key="81" pan="0" pos="144" vol="100" len="24"/>
          <note key="76" pan="0" pos="168" vol="100" len="24"/>
          <note key="78" pan="0" pos="192" vol="100" len="24"/>
          <note key="79" pan="0" pos="216" vol="100" len="24"/>
          <note key="78" pan="0" pos="240" vol="100" len="24"/>
          <note key="76" pan="0" pos="264" vol="100" len="24"/>
          <note key="74" pan="0" pos="288" vol="100" len="24"/>
          <note key="69" pan="0" pos="312" vol="100" len="24"/>
          <note key="86" pan="0" pos="336" vol="100" len="24"/>
          <note key="81" pan="0" pos="360" vol="100" len="24"/>
          <note key="83" pan="0" pos="384" vol="100" len="24"/>
          <note key="85" pan="0" pos="408" vol="100" len="24"/>
          <note key="83" pan="0" pos="432" vol="100" len="72"/>
          <note key="85" pan="0" pos="504" vol="100" len="24"/>
          <note key="86" pan="0" pos="528" vol="100" len="24"/>
          <note key="88" pan="0" pos="552" vol="100" len="48"/>
          <note key="86" pan="0" pos="600" vol="100" len="24"/>
          <note key="85" pan="0" pos="624" vol="100" len="24"/>
          <note key="81" pan="0" pos="648" vol="100" len="48"/>
          <note key="81" pan="0" pos="696" vol="100" len="24"/>
          <note key="78" pan="0" pos="720" vol="100" len="24"/>
          <note key="81" pan="0" pos="744" vol="100" len="24"/>
        </midiclip>
        <midiclip muted="0" name="" pos="10752" type="1" steps="16">
          <note key="79" pan="0" pos="0" vol="100" len="24"/>
          <note key="78" pan="0" pos="24" vol="100" len="24"/>
          <note key="79" pan="0" pos="48" vol="100" len="24"/>
          <note key="78" pan="0" pos="72" vol="100" len="24"/>
          <note key="74" pan="0" pos="96" vol="100" len="24"/>
          <note key="69" pan="0" pos="120" vol="100" len="24"/>
          <note key="81" pan="0" pos="144" vol="100" len="24"/>
          <note key="74" pan="0" pos="168" vol="100" len="24"/>
          <note key="78" pan="0" pos="192" vol="100" len="24"/>
          <note key="79" pan="0" pos="216" vol="100" len="24"/>
          <note key="78" pan="0" pos="240" vol="100" len="24"/>
          <note key="74" pan="0" pos="264" vol="100" len="24"/>
          <note key="76" pan="0" pos="288" vol="100" len="24"/>
          <note key="71" pan="0" pos="312" vol="100" len="24"/>
          <note key="78" pan="0" pos="336" vol="100" len="24"/>
          <note key="74" pan="0" pos="360" vol="100" len="24"/>
          <note key="76" pan="0" pos="384" vol="100" len="168"/>
          <note key="74" pan="0" pos="504" vol="100" len="24"/>
          <note key="75" pan="0" pos="528" vol="100" len="24"/>
          <note key="76" pan="0" pos="552" vol="100" len="48"/>
          <note key="74" pan="0" pos="600" vol="100" len="24"/>
          <note key="73" pan="0" pos="624" vol="100" len="24"/>
          <note key="71" pan="0" pos="648" vol="100" len="48"/>
          <note key="69" pan="0" pos="696" vol="100" len="24"/>
          <note key="67" pan="0" pos="720" vol="100" len="24"/>
          <note key="64" pan="0" pos="744" vol="100" len="24"/>
        </midiclip>
      </track>
      <track muted="0" name="leadlow" solo="0" mutedBeforeSolo="0" type="0">
        <instrumenttrack mixch="5" pitch="0" range_import="1" lastkey="127" enablecc="0" enabled="0" pan="0" basenote="105" keymap="0" vol="100" firstkey="0" usemasterpitch="1" scale="0" pitchrange="1">
          <midicontrollers cc25="0" cc107="0" cc22="0" cc108="0" cc92="0" cc52="0" cc71="0" cc113="0" cc54="0" cc99="0" cc32="0" cc67="0" cc60="0" cc102="0" cc0="0" cc117="0" cc125="0" cc7="0" cc74="0" cc18="0" cc45="0" cc56="0" cc30="0" cc15="0" cc72="0" cc94="0" cc78="0" cc116="0" cc118="0" cc121="0" cc4="0" cc89="0" cc96="0" cc79="0" cc35="0" cc12="0" cc127="0" cc9="0" cc40="0" cc90="0" cc23="0" cc77="0" cc101="0" cc66="0" cc76="0" cc51="0" cc47="0" cc44="0" cc84="0" cc110="0" cc61="0" cc91="0" cc28="0" cc16="0" cc10="0" cc20="0" cc19="0" cc97="0" cc98="0" cc13="0" cc69="0" cc95="0" cc112="0" cc31="0" cc49="0" cc24="0" cc120="0" cc103="0" cc65="0" cc34="0" cc63="0" cc115="0" cc73="0" cc11="0" cc26="0" cc42="0" cc100="0" cc33="0" cc6="0" cc70="0" cc75="0" cc14="0" cc87="0" cc41="0" cc43="0" cc38="0" cc104="0" cc48="0" cc55="0" cc86="0" cc119="0" cc106="0" cc83="0" cc82="0" cc53="0" cc17="0" cc8="0" cc68="0" cc2="0" cc1="0" cc64="0" cc81="0" cc50="0" cc3="0" cc5="0" cc93="0" cc109="0" cc46="0" cc36="0" cc80="0" cc58="0" cc126="0" cc124="0" cc37="0" cc88="0" cc57="0" cc39="0" cc123="0" cc59="0" cc122="0" cc62="0" cc111="0" cc21="0" cc114="0" cc27="0" cc85="0" cc105="0" cc29="0"/>
          <instrument name="tripleoscillator">
            <tripleoscillator userwavefile0="" finer1="0" userwavefile1="" useWaveTable2="0" stphdetun2="0" pan1="0" modalgo1="2" userwavefile2="" finer0="7" vol0="33" modalgo3="2" pan0="0" stphdetun1="0" phoffset2="0" vol2="64" coarse2="12" modalgo2="2" useWaveTable1="0" finel0="8" vol1="24" finel1="0" stphdetun0="0" coarse1="0" finel2="0" phoffset1="0" wavetype1="0" pan2="0" wavetype2="0" coarse0="0" useWaveTable3="0" wavetype0="2" finer2="0" phoffset0="0">
              <key/>
            </tripleoscillator>
          </instrument>
          <eldata fcut="358" fwet="1" fres="1.04" ftype="0">
            <elvol pdel="0" amt="1" ctlenvamt="0" lpdel="0" rel="0.1" hold="0" latt="0" lshp="0" lspd="0.1" dec="0.5" userwavefile="" lspd_numerator="4" x100="0" sustain="0.5" lspd_denominator="4" lspd_syncmode="0" lamt="0" att="0"/>
            <elcut pdel="0" amt="0" ctlenvamt="0" lpdel="0" rel="0.1" hold="0" latt="0" lshp="0" lspd="0.1" dec="0.112" userwavefile="" lspd_numerator="4" x100="0" sustain="0" lspd_denominator="4" lspd_syncmode="0" lamt="0" att="0.04"/>
            <elres pdel="0" amt="0" ctlenvamt="0" lpdel="0" rel="0.1" hold="0.5" latt="0" lshp="0" lspd="0.1" dec="0.5" userwavefile="" lspd_numerator="4" x100="0" sustain="0.5" lspd_denominator="4" lspd_syncmode="0" lamt="0" att="0"/>
          </eldata>
          <chordcreator chord="0" chordrange="1" chord-enabled="0"/>
          <arpeggiator arptime_denominator="4" arp-enabled="0" arptime_numerator="4" arprepeats="1" arpgate="100" arpskip="0" arptime="100" arpdir="0" arpcycle="0" arptime_syncmode="0" arp="0" arprange="1" arpmiss="0" arpmode="0"/>
          <midiport writable="0" inputchannel="0" fixedinputvelocity="-1" readable="0" inputcontroller="0" fixedoutputnote="-1" outputcontroller="0" fixedoutputvelocity="-1" outputchannel="1" outputprogram="1" basevelocity="63"/>
          <fxchain numofeffects="2" enabled="1">
            <effect autoquit_syncmode="0" autoquit="1" wet="1" name="ladspaeffect" autoquit_numerator="4" autoquit_denominator="4" gate="0" on="1">
              <ladspacontrols ports="4" link="1">
                <port01 link="1" data="6.1775"/>
                <port02 link="1" data="0.25375"/>
                <port11 data="6.1775"/>
                <port12 data="0.25375"/>
              </ladspacontrols>
              <key>
                <attribute name="file" value="caps"/>
                <attribute name="plugin" value="PreampIII"/>
              </key>
            </effect>
            <effect autoquit_syncmode="0" autoquit="1" wet="1" name="bitcrush" autoquit_numerator="4" autoquit_denominator="4" gate="0" on="0">
              <bitcrushcontrols levels="256" innoise="0" ingain="0" outgain="0" stereodiff="0" depthon="1" rate="1671" outclip="0" rateon="1"/>
              <key/>
            </effect>
          </fxchain>
        </instrumenttrack>
        <midiclip muted="0" name="" pos="3840" type="1" steps="16">
          <note key="86" pan="0" pos="0" vol="100" len="168"/>
          <note key="88" pan="0" pos="168" vol="100" len="24"/>
          <note key="84" pan="0" pos="192" vol="100" len="144"/>
          <note key="81" pan="0" pos="336" vol="100" len="12"/>
          <note key="79" pan="0" pos="348" vol="100" len="12"/>
          <note key="77" pan="0" pos="360" vol="100" len="12"/>
          <note key="76" pan="0" pos="372" vol="100" len="12"/>
          <note key="70" pan="0" pos="384" vol="100" len="12"/>
          <note key="67" pan="0" pos="396" vol="100" len="12"/>
          <note key="82" pan="0" pos="408" vol="100" len="168"/>
          <note key="85" pan="0" pos="576" vol="14" len="6"/>
          <note key="81" pan="0" pos="576" vol="14" len="6"/>
          <note key="85" pan="0" pos="588" vol="14" len="6"/>
          <note key="81" pan="0" pos="588" vol="14" len="6"/>
          <note key="85" pan="0" pos="600" vol="14" len="6"/>
          <note key="81" pan="0" pos="600" vol="14" len="6"/>
          <note key="85" pan="0" pos="612" vol="14" len="6"/>
          <note key="81" pan="0" pos="612" vol="14" len="6"/>
          <note key="85" pan="0" pos="624" vol="14" len="6"/>
          <note key="81" pan="0" pos="624" vol="14" len="6"/>
          <note key="85" pan="0" pos="636" vol="14" len="6"/>
          <note key="81" pan="0" pos="636" vol="14" len="6"/>
          <note key="85" pan="0" pos="648" vol="14" len="6"/>
          <note key="81" pan="0" pos="648" vol="14" len="6"/>
          <note key="85" pan="0" pos="660" vol="14" len="6"/>
          <note key="81" pan="0" pos="660" vol="14" len="6"/>
          <note key="85" pan="0" pos="672" vol="14" len="6"/>
          <note key="81" pan="0" pos="672" vol="14" len="6"/>
          <note key="85" pan="0" pos="684" vol="17" len="6"/>
          <note key="81" pan="0" pos="684" vol="17" len="6"/>
          <note key="85" pan="0" pos="696" vol="17" len="6"/>
          <note key="81" pan="0" pos="696" vol="17" len="6"/>
          <note key="85" pan="0" pos="708" vol="19" len="6"/>
          <note key="81" pan="0" pos="708" vol="19" len="6"/>
          <note key="85" pan="0" pos="720" vol="21" len="6"/>
          <note key="81" pan="0" pos="720" vol="21" len="6"/>
          <note key="85" pan="0" pos="732" vol="29" len="6"/>
          <note key="81" pan="0" pos="732" vol="29" len="6"/>
          <note key="85" pan="0" pos="744" vol="34" len="6"/>
          <note key="81" pan="0" pos="744" vol="34" len="6"/>
          <note key="85" pan="0" pos="756" vol="38" len="6"/>
          <note key="81" pan="0" pos="756" vol="38" len="6"/>
        </midiclip>
        <midiclip muted="0" name="" pos="4608" type="1" steps="16">
          <note key="81" pan="0" pos="0" vol="100" len="168"/>
          <note key="76" pan="0" pos="168" vol="100" len="24"/>
          <note key="82" pan="0" pos="192" vol="100" len="168"/>
          <note key="81" pan="0" pos="360" vol="100" len="24"/>
          <note key="80" pan="0" pos="408" vol="100" len="168"/>
          <note key="85" pan="0" pos="576" vol="36" len="6"/>
          <note key="81" pan="0" pos="576" vol="36" len="6"/>
          <note key="85" pan="0" pos="588" vol="34" len="6"/>
          <note key="81" pan="0" pos="588" vol="34" len="6"/>
          <note key="85" pan="0" pos="600" vol="38" len="6"/>
          <note key="81" pan="0" pos="600" vol="38" len="6"/>
          <note key="85" pan="0" pos="612" vol="46" len="6"/>
          <note key="81" pan="0" pos="612" vol="46" len="6"/>
          <note key="85" pan="0" pos="624" vol="48" len="6"/>
          <note key="81" pan="0" pos="624" vol="48" len="6"/>
          <note key="85" pan="0" pos="636" vol="59" len="6"/>
          <note key="81" pan="0" pos="636" vol="59" len="6"/>
          <note key="85" pan="0" pos="648" vol="63" len="6"/>
          <note key="81" pan="0" pos="648" vol="63" len="6"/>
          <note key="85" pan="0" pos="660" vol="63" len="6"/>
          <note key="81" pan="0" pos="660" vol="63" len="6"/>
          <note key="85" pan="0" pos="672" vol="63" len="6"/>
          <note key="81" pan="0" pos="672" vol="63" len="6"/>
          <note key="85" pan="0" pos="684" vol="63" len="6"/>
          <note key="81" pan="0" pos="684" vol="63" len="6"/>
          <note key="85" pan="0" pos="696" vol="59" len="6"/>
          <note key="81" pan="0" pos="696" vol="59" len="6"/>
          <note key="85" pan="0" pos="708" vol="57" len="6"/>
          <note key="81" pan="0" pos="708" vol="57" len="6"/>
          <note key="85" pan="0" pos="720" vol="46" len="6"/>
          <note key="81" pan="0" pos="720" vol="46" len="6"/>
          <note key="85" pan="0" pos="732" vol="42" len="6"/>
          <note key="81" pan="0" pos="732" vol="42" len="6"/>
          <note key="85" pan="0" pos="744" vol="40" len="6"/>
          <note key="81" pan="0" pos="744" vol="40" len="6"/>
          <note key="85" pan="0" pos="756" vol="40" len="6"/>
          <note key="81" pan="0" pos="756" vol="40" len="6"/>
        </midiclip>
        <midiclip muted="0" name="" pos="5376" type="1" steps="16">
          <note key="86" pan="0" pos="0" vol="100" len="168"/>
          <note key="88" pan="0" pos="168" vol="100" len="24"/>
          <note key="84" pan="0" pos="192" vol="100" len="144"/>
          <note key="81" pan="0" pos="336" vol="100" len="12"/>
          <note key="79" pan="0" pos="348" vol="100" len="12"/>
          <note key="77" pan="0" pos="360" vol="100" len="12"/>
          <note key="76" pan="0" pos="372" vol="100" len="12"/>
          <note key="70" pan="0" pos="384" vol="100" len="12"/>
          <note key="67" pan="0" pos="396" vol="100" len="12"/>
          <note key="82" pan="0" pos="408" vol="100" len="168"/>
          <note key="85" pan="0" pos="576" vol="14" len="6"/>
          <note key="81" pan="0" pos="576" vol="14" len="6"/>
          <note key="85" pan="0" pos="588" vol="19" len="6"/>
          <note key="81" pan="0" pos="588" vol="19" len="6"/>
          <note key="85" pan="0" pos="600" vol="19" len="6"/>
          <note key="81" pan="0" pos="600" vol="19" len="6"/>
          <note key="85" pan="0" pos="612" vol="19" len="6"/>
          <note key="81" pan="0" pos="612" vol="19" len="6"/>
          <note key="85" pan="0" pos="624" vol="19" len="6"/>
          <note key="81" pan="0" pos="624" vol="19" len="6"/>
          <note key="85" pan="0" pos="636" vol="19" len="6"/>
          <note key="81" pan="0" pos="636" vol="19" len="6"/>
          <note key="85" pan="0" pos="648" vol="19" len="6"/>
          <note key="81" pan="0" pos="648" vol="19" len="6"/>
          <note key="85" pan="0" pos="660" vol="19" len="6"/>
          <note key="81" pan="0" pos="660" vol="19" len="6"/>
          <note key="85" pan="0" pos="672" vol="21" len="6"/>
          <note key="81" pan="0" pos="672" vol="21" len="6"/>
          <note key="85" pan="0" pos="684" vol="23" len="6"/>
          <note key="81" pan="0" pos="684" vol="23" len="6"/>
          <note key="85" pan="0" pos="696" vol="27" len="6"/>
          <note key="81" pan="0" pos="696" vol="27" len="6"/>
          <note key="85" pan="0" pos="708" vol="29" len="6"/>
          <note key="81" pan="0" pos="708" vol="29" len="6"/>
          <note key="85" pan="0" pos="720" vol="29" len="6"/>
          <note key="81" pan="0" pos="720" vol="29" len="6"/>
          <note key="85" pan="0" pos="732" vol="31" len="6"/>
          <note key="81" pan="0" pos="732" vol="31" len="6"/>
          <note key="85" pan="0" pos="744" vol="34" len="6"/>
          <note key="81" pan="0" pos="744" vol="34" len="6"/>
          <note key="85" pan="0" pos="756" vol="38" len="6"/>
          <note key="81" pan="0" pos="756" vol="38" len="6"/>
        </midiclip>
        <midiclip muted="1" name="" pos="9216" type="1" steps="16">
          <note key="70" pan="0" pos="0" vol="100" len="24"/>
          <note key="70" pan="0" pos="24" vol="100" len="24"/>
          <note key="70" pan="0" pos="48" vol="100" len="24"/>
          <note key="70" pan="0" pos="72" vol="100" len="24"/>
          <note key="70" pan="0" pos="96" vol="100" len="24"/>
          <note key="70" pan="0" pos="120" vol="100" len="24"/>
          <note key="70" pan="0" pos="144" vol="100" len="24"/>
          <note key="71" pan="0" pos="168" vol="100" len="24"/>
          <note key="72" pan="0" pos="192" vol="100" len="24"/>
          <note key="72" pan="0" pos="216" vol="100" len="24"/>
          <note key="72" pan="0" pos="240" vol="100" len="24"/>
          <note key="72" pan="0" pos="264" vol="100" len="24"/>
          <note key="72" pan="0" pos="288" vol="100" len="24"/>
          <note key="72" pan="0" pos="312" vol="100" len="24"/>
          <note key="72" pan="0" pos="336" vol="100" len="24"/>
          <note key="72" pan="0" pos="360" vol="100" len="24"/>
          <note key="70" pan="0" pos="384" vol="100" len="24"/>
          <note key="70" pan="0" pos="408" vol="100" len="24"/>
          <note key="70" pan="0" pos="432" vol="100" len="24"/>
          <note key="70" pan="0" pos="456" vol="100" len="24"/>
          <note key="70" pan="0" pos="480" vol="100" len="24"/>
          <note key="70" pan="0" pos="504" vol="100" len="24"/>
          <note key="70" pan="0" pos="528" vol="100" len="24"/>
          <note key="71" pan="0" pos="552" vol="100" len="24"/>
          <note key="72" pan="0" pos="576" vol="100" len="24"/>
          <note key="72" pan="0" pos="600" vol="100" len="24"/>
          <note key="72" pan="0" pos="624" vol="100" len="24"/>
          <note key="72" pan="0" pos="648" vol="100" len="24"/>
          <note key="72" pan="0" pos="672" vol="100" len="24"/>
          <note key="72" pan="0" pos="696" vol="100" len="24"/>
          <note key="72" pan="0" pos="720" vol="100" len="24"/>
          <note key="73" pan="0" pos="744" vol="100" len="24"/>
          <note key="69" pan="0" pos="768" vol="100" len="24"/>
          <note key="69" pan="0" pos="792" vol="100" len="24"/>
          <note key="69" pan="0" pos="816" vol="100" len="24"/>
          <note key="69" pan="0" pos="840" vol="100" len="24"/>
          <note key="69" pan="0" pos="864" vol="100" len="24"/>
          <note key="69" pan="0" pos="888" vol="100" len="24"/>
          <note key="69" pan="0" pos="912" vol="100" len="24"/>
          <note key="69" pan="0" pos="936" vol="100" len="24"/>
        </midiclip>
        <midiclip muted="0" name="" pos="3072" type="1" steps="16">
          <note key="81" pan="0" pos="0" vol="100" len="168"/>
          <note key="76" pan="0" pos="168" vol="100" len="24"/>
          <note key="69" pan="0" pos="192" vol="100" len="12"/>
          <note key="81" pan="0" pos="336" vol="100" len="12"/>
          <note key="79" pan="0" pos="348" vol="100" len="12"/>
          <note key="77" pan="0" pos="360" vol="100" len="12"/>
          <note key="76" pan="0" pos="372" vol="100" len="12"/>
          <note key="70" pan="0" pos="384" vol="100" len="12"/>
          <note key="67" pan="0" pos="396" vol="100" len="12"/>
          <note key="69" pan="0" pos="408" vol="100" len="168"/>
        </midiclip>
        <midiclip muted="0" name="lead" pos="6144" type="1" steps="16">
          <note key="70" pan="0" pos="0" vol="100" len="24"/>
          <note key="70" pan="0" pos="24" vol="100" len="24"/>
          <note key="70" pan="0" pos="48" vol="100" len="24"/>
          <note key="70" pan="0" pos="72" vol="100" len="24"/>
          <note key="70" pan="0" pos="96" vol="100" len="24"/>
          <note key="70" pan="0" pos="120" vol="100" len="24"/>
          <note key="70" pan="0" pos="144" vol="100" len="24"/>
          <note key="71" pan="0" pos="168" vol="100" len="24"/>
          <note key="72" pan="0" pos="192" vol="100" len="24"/>
          <note key="72" pan="0" pos="216" vol="100" len="24"/>
          <note key="72" pan="0" pos="240" vol="100" len="24"/>
          <note key="72" pan="0" pos="264" vol="100" len="24"/>
          <note key="72" pan="0" pos="288" vol="100" len="24"/>
          <note key="72" pan="0" pos="312" vol="100" len="24"/>
          <note key="72" pan="0" pos="336" vol="100" len="24"/>
          <note key="73" pan="0" pos="360" vol="100" len="24"/>
          <note key="69" pan="0" pos="384" vol="100" len="24"/>
          <note key="69" pan="0" pos="408" vol="100" len="24"/>
          <note key="69" pan="0" pos="432" vol="100" len="24"/>
          <note key="69" pan="0" pos="456" vol="100" len="24"/>
          <note key="69" pan="0" pos="480" vol="100" len="24"/>
          <note key="69" pan="0" pos="504" vol="100" len="24"/>
          <note key="69" pan="0" pos="528" vol="100" len="24"/>
          <note key="67" pan="0" pos="552" vol="100" len="24"/>
          <note key="69" pan="0" pos="576" vol="100" len="24"/>
          <note key="69" pan="0" pos="600" vol="100" len="24"/>
          <note key="69" pan="0" pos="624" vol="100" len="24"/>
          <note key="69" pan="0" pos="648" vol="100" len="24"/>
          <note key="69" pan="0" pos="672" vol="100" len="24"/>
          <note key="69" pan="0" pos="696" vol="100" len="24"/>
          <note key="69" pan="0" pos="720" vol="100" len="24"/>
          <note key="69" pan="0" pos="744" vol="100" len="24"/>
          <note key="70" pan="0" pos="768" vol="100" len="24"/>
          <note key="70" pan="0" pos="792" vol="100" len="24"/>
          <note key="70" pan="0" pos="816" vol="100" len="24"/>
          <note key="70" pan="0" pos="840" vol="100" len="24"/>
          <note key="70" pan="0" pos="864" vol="100" len="24"/>
          <note key="70" pan="0" pos="888" vol="100" len="24"/>
          <note key="70" pan="0" pos="912" vol="100" len="24"/>
          <note key="71" pan="0" pos="936" vol="100" len="24"/>
          <note key="72" pan="0" pos="960" vol="100" len="24"/>
          <note key="72" pan="0" pos="984" vol="100" len="24"/>
          <note key="72" pan="0" pos="1008" vol="100" len="24"/>
          <note key="72" pan="0" pos="1032" vol="100" len="24"/>
          <note key="72" pan="0" pos="1056" vol="100" len="24"/>
          <note key="72" pan="0" pos="1080" vol="100" len="24"/>
          <note key="72" pan="0" pos="1104" vol="100" len="24"/>
          <note key="73" pan="0" pos="1128" vol="100" len="24"/>
          <note key="69" pan="0" pos="1152" vol="100" len="24"/>
          <note key="69" pan="0" pos="1176" vol="100" len="24"/>
          <note key="69" pan="0" pos="1200" vol="100" len="24"/>
          <note key="69" pan="0" pos="1224" vol="100" len="24"/>
          <note key="69" pan="0" pos="1248" vol="100" len="24"/>
          <note key="69" pan="0" pos="1272" vol="100" len="24"/>
          <note key="69" pan="0" pos="1296" vol="100" len="24"/>
          <note key="69" pan="0" pos="1320" vol="100" len="24"/>
          <note key="77" pan="0" pos="1344" vol="100" len="24"/>
          <note key="77" pan="0" pos="1368" vol="100" len="24"/>
          <note key="77" pan="0" pos="1392" vol="100" len="24"/>
          <note key="77" pan="0" pos="1416" vol="100" len="24"/>
          <note key="77" pan="0" pos="1440" vol="100" len="24"/>
          <note key="77" pan="0" pos="1464" vol="100" len="24"/>
          <note key="77" pan="0" pos="1488" vol="100" len="24"/>
          <note key="77" pan="0" pos="1512" vol="100" len="24"/>
        </midiclip>
      </track>
      <track muted="0" name="higher" solo="0" mutedBeforeSolo="0" type="0">
        <instrumenttrack mixch="6" pitch="0" range_import="1" lastkey="127" enablecc="0" enabled="0" pan="0" basenote="69" keymap="0" vol="100" firstkey="0" usemasterpitch="1" scale="0" pitchrange="1">
          <midicontrollers cc25="0" cc107="0" cc22="0" cc108="0" cc92="0" cc52="0" cc71="0" cc113="0" cc54="0" cc99="0" cc32="0" cc67="0" cc60="0" cc102="0" cc0="0" cc117="0" cc125="0" cc7="0" cc74="0" cc18="0" cc45="0" cc56="0" cc30="0" cc15="0" cc72="0" cc94="0" cc78="0" cc116="0" cc118="0" cc121="0" cc4="0" cc89="0" cc96="0" cc79="0" cc35="0" cc12="0" cc127="0" cc9="0" cc40="0" cc90="0" cc23="0" cc77="0" cc101="0" cc66="0" cc76="0" cc51="0" cc47="0" cc44="0" cc84="0" cc110="0" cc61="0" cc91="0" cc28="0" cc16="0" cc10="0" cc20="0" cc19="0" cc97="0" cc98="0" cc13="0" cc69="0" cc95="0" cc112="0" cc31="0" cc49="0" cc24="0" cc120="0" cc103="0" cc65="0" cc34="0" cc63="0" cc115="0" cc73="0" cc11="0" cc26="0" cc42="0" cc100="0" cc33="0" cc6="0" cc70="0" cc75="0" cc14="0" cc87="0" cc41="0" cc43="0" cc38="0" cc104="0" cc48="0" cc55="0" cc86="0" cc119="0" cc106="0" cc83="0" cc82="0" cc53="0" cc17="0" cc8="0" cc68="0" cc2="0" cc1="0" cc64="0" cc81="0" cc50="0" cc3="0" cc5="0" cc93="0" cc109="0" cc46="0" cc36="0" cc80="0" cc58="0" cc126="0" cc124="0" cc37="0" cc88="0" cc57="0" cc39="0" cc123="0" cc59="0" cc122="0" cc62="0" cc111="0" cc21="0" cc114="0" cc27="0" cc85="0" cc105="0" cc29="0"/>
          <instrument name="tripleoscillator">
            <tripleoscillator userwavefile0="" finer1="0" userwavefile1="" useWaveTable2="0" stphdetun2="0" pan1="0" modalgo1="2" userwavefile2="" finer0="0" vol0="33" modalgo3="2" pan0="0" stphdetun1="0" phoffset2="0" vol2="0" coarse2="-24" modalgo2="2" useWaveTable1="0" finel0="0" vol1="0" finel1="0" stphdetun0="0" coarse1="-12" finel2="0" phoffset1="0" wavetype1="0" pan2="0" wavetype2="0" coarse0="0" useWaveTable3="0" wavetype0="2" finer2="0" phoffset0="0">
              <key/>
            </tripleoscillator>
          </instrument>
          <eldata fcut="14000" fwet="0" fres="0.5" ftype="0">
            <elvol pdel="0" amt="1" ctlenvamt="0" lpdel="0" rel="0.1" hold="0" latt="0" lshp="0" lspd="0.1" dec="0.5" userwavefile="" lspd_numerator="4" x100="0" sustain="0.5" lspd_denominator="4" lspd_syncmode="0" lamt="0" att="0"/>
            <elcut pdel="0" amt="0" ctlenvamt="0" lpdel="0" rel="0.1" hold="0.5" latt="0" lshp="0" lspd="0.1" dec="0.5" userwavefile="" lspd_numerator="4" x100="0" sustain="0.5" lspd_denominator="4" lspd_syncmode="0" lamt="0" att="0"/>
            <elres pdel="0" amt="0" ctlenvamt="0" lpdel="0" rel="0.1" hold="0.5" latt="0" lshp="0" lspd="0.1" dec="0.5" userwavefile="" lspd_numerator="4" x100="0" sustain="0.5" lspd_denominator="4" lspd_syncmode="0" lamt="0" att="0"/>
          </eldata>
          <chordcreator chord="0" chordrange="1" chord-enabled="0"/>
          <arpeggiator arptime_denominator="4" arp-enabled="0" arptime_numerator="4" arprepeats="1" arpgate="100" arpskip="0" arptime="100" arpdir="0" arpcycle="0" arptime_syncmode="0" arp="0" arprange="1" arpmiss="0" arpmode="0"/>
          <midiport writable="0" inputchannel="0" fixedinputvelocity="-1" readable="0" inputcontroller="0" fixedoutputnote="-1" outputcontroller="0" fixedoutputvelocity="-1" outputchannel="1" outputprogram="1" basevelocity="63"/>
          <fxchain numofeffects="0" enabled="1"/>
        </instrumenttrack>
        <midiclip muted="0" name="" pos="2688" type="1" steps="16">
          <note key="52" pan="0" pos="0" vol="100" len="12"/>
          <note key="53" pan="0" pos="24" vol="100" len="12"/>
          <note key="54" pan="0" pos="48" vol="100" len="24"/>
          <note key="54" pan="0" pos="96" vol="100" len="24"/>
          <note key="54" pan="0" pos="144" vol="100" len="24"/>
          <note key="49" pan="0" pos="180" vol="100" len="12"/>
          <note key="52" pan="0" pos="192" vol="100" len="12"/>
          <note key="53" pan="0" pos="216" vol="100" len="12"/>
          <note key="54" pan="0" pos="240" vol="100" len="24"/>
          <note key="54" pan="0" pos="288" vol="100" len="24"/>
          <note key="54" pan="0" pos="336" vol="100" len="24"/>
          <note key="49" pan="0" pos="372" vol="100" len="12"/>
        </midiclip>
        <midiclip muted="0" name="" pos="2304" type="1" steps="16">
          <note key="52" pan="0" pos="0" vol="100" len="12"/>
          <note key="53" pan="0" pos="24" vol="100" len="12"/>
          <note key="54" pan="0" pos="48" vol="100" len="24"/>
          <note key="54" pan="0" pos="96" vol="100" len="24"/>
          <note key="54" pan="0" pos="144" vol="100" len="24"/>
          <note key="49" pan="0" pos="180" vol="100" len="12"/>
          <note key="52" pan="0" pos="192" vol="100" len="12"/>
          <note key="53" pan="0" pos="216" vol="100" len="12"/>
          <note key="54" pan="0" pos="240" vol="100" len="24"/>
          <note key="54" pan="0" pos="288" vol="100" len="24"/>
          <note key="54" pan="0" pos="336" vol="100" len="24"/>
          <note key="49" pan="0" pos="372" vol="100" len="12"/>
        </midiclip>
        <midiclip muted="0" name="" pos="3072" type="1" steps="16">
          <note key="52" pan="0" pos="0" vol="100" len="12"/>
          <note key="53" pan="0" pos="24" vol="100" len="12"/>
          <note key="54" pan="0" pos="48" vol="100" len="24"/>
          <note key="54" pan="0" pos="96" vol="100" len="24"/>
          <note key="54" pan="0" pos="144" vol="100" len="24"/>
          <note key="49" pan="0" pos="180" vol="100" len="12"/>
          <note key="52" pan="0" pos="192" vol="100" len="12"/>
          <note key="53" pan="0" pos="216" vol="100" len="12"/>
          <note key="54" pan="0" pos="240" vol="100" len="24"/>
          <note key="54" pan="0" pos="288" vol="100" len="24"/>
          <note key="54" pan="0" pos="336" vol="100" len="24"/>
          <note key="49" pan="0" pos="372" vol="100" len="12"/>
        </midiclip>
        <midiclip muted="0" name="" pos="3456" type="1" steps="16">
          <note key="52" pan="0" pos="0" vol="100" len="12"/>
          <note key="53" pan="0" pos="24" vol="100" len="12"/>
          <note key="54" pan="0" pos="48" vol="100" len="24"/>
          <note key="54" pan="0" pos="96" vol="100" len="24"/>
          <note key="54" pan="0" pos="144" vol="100" len="24"/>
          <note key="49" pan="0" pos="180" vol="100" len="12"/>
          <note key="52" pan="0" pos="192" vol="100" len="12"/>
          <note key="53" pan="0" pos="216" vol="100" len="12"/>
          <note key="54" pan="0" pos="240" vol="100" len="24"/>
          <note key="54" pan="0" pos="288" vol="100" len="24"/>
          <note key="54" pan="0" pos="336" vol="100" len="24"/>
          <note key="49" pan="0" pos="372" vol="100" len="12"/>
        </midiclip>
        <midiclip muted="0" name="" pos="3840" type="1" steps="16">
          <note key="52" pan="0" pos="0" vol="100" len="12"/>
          <note key="53" pan="0" pos="24" vol="100" len="12"/>
          <note key="54" pan="0" pos="48" vol="100" len="24"/>
          <note key="54" pan="0" pos="96" vol="100" len="24"/>
          <note key="54" pan="0" pos="144" vol="100" len="24"/>
          <note key="49" pan="0" pos="180" vol="100" len="12"/>
          <note key="52" pan="0" pos="192" vol="100" len="12"/>
          <note key="53" pan="0" pos="216" vol="100" len="12"/>
          <note key="54" pan="0" pos="240" vol="100" len="24"/>
          <note key="54" pan="0" pos="288" vol="100" len="24"/>
          <note key="54" pan="0" pos="336" vol="100" len="24"/>
          <note key="49" pan="0" pos="372" vol="100" len="12"/>
        </midiclip>
        <midiclip muted="0" name="" pos="4224" type="1" steps="16">
          <note key="52" pan="0" pos="0" vol="100" len="12"/>
          <note key="53" pan="0" pos="24" vol="100" len="12"/>
          <note key="54" pan="0" pos="48" vol="100" len="24"/>
          <note key="54" pan="0" pos="96" vol="100" len="24"/>
          <note key="54" pan="0" pos="144" vol="100" len="24"/>
          <note key="49" pan="0" pos="180" vol="100" len="12"/>
          <note key="52" pan="0" pos="192" vol="100" len="12"/>
          <note key="53" pan="0" pos="216" vol="100" len="12"/>
          <note key="54" pan="0" pos="240" vol="100" len="24"/>
          <note key="54" pan="0" pos="288" vol="100" len="24"/>
          <note key="54" pan="0" pos="336" vol="100" len="24"/>
          <note key="49" pan="0" pos="372" vol="100" len="12"/>
        </midiclip>
        <midiclip muted="0" name="" pos="4608" type="1" steps="16">
          <note key="52" pan="0" pos="0" vol="100" len="12"/>
          <note key="53" pan="0" pos="24" vol="100" len="12"/>
          <note key="54" pan="0" pos="48" vol="100" len="24"/>
          <note key="54" pan="0" pos="96" vol="100" len="24"/>
          <note key="54" pan="0" pos="144" vol="100" len="24"/>
          <note key="49" pan="0" pos="180" vol="100" len="12"/>
          <note key="52" pan="0" pos="192" vol="100" len="12"/>
          <note key="53" pan="0" pos="216" vol="100" len="12"/>
          <note key="54" pan="0" pos="240" vol="100" len="24"/>
          <note key="54" pan="0" pos="288" vol="100" len="24"/>
          <note key="54" pan="0" pos="336" vol="100" len="24"/>
          <note key="49" pan="0" pos="372" vol="100" len="12"/>
        </midiclip>
        <midiclip muted="0" name="" pos="4992" type="1" steps="16">
          <note key="52" pan="0" pos="0" vol="100" len="12"/>
          <note key="53" pan="0" pos="24" vol="100" len="12"/>
          <note key="54" pan="0" pos="48" vol="100" len="24"/>
          <note key="54" pan="0" pos="96" vol="100" len="24"/>
          <note key="54" pan="0" pos="144" vol="100" len="24"/>
          <note key="49" pan="0" pos="180" vol="100" len="12"/>
          <note key="52" pan="0" pos="192" vol="100" len="12"/>
          <note key="53" pan="0" pos="216" vol="100" len="12"/>
          <note key="54" pan="0" pos="240" vol="100" len="24"/>
          <note key="54" pan="0" pos="288" vol="100" len="24"/>
          <note key="54" pan="0" pos="336" vol="100" len="24"/>
          <note key="49" pan="0" pos="372" vol="100" len="12"/>
        </midiclip>
        <midiclip muted="0" name="" pos="5376" type="1" steps="16">
          <note key="52" pan="0" pos="0" vol="100" len="12"/>
          <note key="53" pan="0" pos="24" vol="100" len="12"/>
          <note key="54" pan="0" pos="48" vol="100" len="24"/>
          <note key="54" pan="0" pos="96" vol="100" len="24"/>
          <note key="54" pan="0" pos="144" vol="100" len="24"/>
          <note key="49" pan="0" pos="180" vol="100" len="12"/>
          <note key="52" pan="0" pos="192" vol="100" len="12"/>
          <note key="53" pan="0" pos="216" vol="100" len="12"/>
          <note key="54" pan="0" pos="240" vol="100" len="24"/>
          <note key="54" pan="0" pos="288" vol="100" len="24"/>
          <note key="54" pan="0" pos="336" vol="100" len="24"/>
          <note key="49" pan="0" pos="372" vol="100" len="12"/>
        </midiclip>
        <midiclip muted="0" name="" pos="5760" type="1" steps="16">
          <note key="52" pan="0" pos="0" vol="100" len="12"/>
          <note key="53" pan="0" pos="24" vol="100" len="12"/>
          <note key="54" pan="0" pos="48" vol="100" len="24"/>
          <note key="54" pan="0" pos="96" vol="100" len="24"/>
          <note key="54" pan="0" pos="144" vol="100" len="24"/>
          <note key="49" pan="0" pos="180" vol="100" len="12"/>
          <note key="52" pan="0" pos="192" vol="100" len="12"/>
          <note key="53" pan="0" pos="216" vol="100" len="12"/>
          <note key="54" pan="0" pos="240" vol="100" len="24"/>
          <note key="54" pan="0" pos="288" vol="100" len="24"/>
          <note key="54" pan="0" pos="336" vol="100" len="24"/>
          <note key="49" pan="0" pos="372" vol="100" len="12"/>
        </midiclip>
        <midiclip muted="0" name="" pos="6144" type="1" steps="16">
          <note key="52" pan="0" pos="0" vol="100" len="12"/>
          <note key="53" pan="0" pos="24" vol="100" len="12"/>
          <note key="54" pan="0" pos="48" vol="100" len="24"/>
          <note key="54" pan="0" pos="96" vol="100" len="24"/>
          <note key="54" pan="0" pos="144" vol="100" len="24"/>
          <note key="49" pan="0" pos="180" vol="100" len="12"/>
          <note key="52" pan="0" pos="192" vol="100" len="12"/>
          <note key="53" pan="0" pos="216" vol="100" len="12"/>
          <note key="54" pan="0" pos="240" vol="100" len="24"/>
          <note key="54" pan="0" pos="288" vol="100" len="24"/>
          <note key="54" pan="0" pos="336" vol="100" len="24"/>
          <note key="49" pan="0" pos="372" vol="100" len="12"/>
        </midiclip>
        <midiclip muted="0" name="" pos="6528" type="1" steps="16">
          <note key="52" pan="0" pos="0" vol="100" len="12"/>
          <note key="53" pan="0" pos="24" vol="100" len="12"/>
          <note key="54" pan="0" pos="48" vol="100" len="24"/>
          <note key="54" pan="0" pos="96" vol="100" len="24"/>
          <note key="54" pan="0" pos="144" vol="100" len="24"/>
          <note key="45" pan="0" pos="180" vol="100" len="12"/>
          <note key="50" pan="0" pos="192" vol="100" len="12"/>
          <note key="51" pan="0" pos="216" vol="100" len="12"/>
          <note key="52" pan="0" pos="240" vol="100" len="24"/>
          <note key="52" pan="0" pos="288" vol="100" len="24"/>
          <note key="52" pan="0" pos="336" vol="100" len="24"/>
          <note key="45" pan="0" pos="372" vol="100" len="12"/>
        </midiclip>
        <midiclip muted="0" name="" pos="6912" type="1" steps="16">
          <note key="52" pan="0" pos="0" vol="100" len="12"/>
          <note key="53" pan="0" pos="24" vol="100" len="12"/>
          <note key="54" pan="0" pos="48" vol="100" len="24"/>
          <note key="54" pan="0" pos="96" vol="100" len="24"/>
          <note key="54" pan="0" pos="144" vol="100" len="24"/>
          <note key="49" pan="0" pos="180" vol="100" len="12"/>
          <note key="52" pan="0" pos="192" vol="100" len="12"/>
          <note key="53" pan="0" pos="216" vol="100" len="12"/>
          <note key="54" pan="0" pos="240" vol="100" len="24"/>
          <note key="54" pan="0" pos="288" vol="100" len="24"/>
          <note key="54" pan="0" pos="336" vol="100" len="24"/>
          <note key="49" pan="0" pos="372" vol="100" len="12"/>
        </midiclip>
        <midiclip muted="0" name="" pos="7296" type="1" steps="16">
          <note key="52" pan="0" pos="0" vol="100" len="12"/>
          <note key="53" pan="0" pos="24" vol="100" len="12"/>
          <note key="54" pan="0" pos="48" vol="100" len="24"/>
          <note key="54" pan="0" pos="96" vol="100" len="24"/>
          <note key="54" pan="0" pos="144" vol="100" len="24"/>
          <note key="49" pan="0" pos="180" vol="100" len="12"/>
          <note key="52" pan="0" pos="192" vol="100" len="12"/>
          <note key="53" pan="0" pos="216" vol="100" len="12"/>
          <note key="54" pan="0" pos="240" vol="100" len="24"/>
          <note key="54" pan="0" pos="288" vol="100" len="24"/>
          <note key="54" pan="0" pos="336" vol="100" len="24"/>
          <note key="49" pan="0" pos="372" vol="100" len="12"/>
        </midiclip>
        <midiclip muted="0" name="" pos="11712" type="1" steps="16">
          <note key="72" pan="0" pos="0" vol="100" len="24"/>
          <note key="79" pan="0" pos="48" vol="100" len="24"/>
          <note key="76" pan="0" pos="96" vol="100" len="24"/>
          <note key="77" pan="0" pos="144" vol="100" len="24"/>
          <note key="78" pan="0" pos="168" vol="100" len="48"/>
        </midiclip>
        <midiclip muted="1" name="" pos="10752" type="1" steps="16">
          <note key="72" pan="0" pos="0" vol="100" len="24"/>
          <note key="79" pan="0" pos="48" vol="100" len="24"/>
          <note key="76" pan="0" pos="96" vol="100" len="24"/>
          <note key="77" pan="0" pos="144" vol="100" len="24"/>
          <note key="78" pan="0" pos="168" vol="100" len="48"/>
        </midiclip>
      </track>
      <track muted="0" name="higher" solo="0" mutedBeforeSolo="0" type="0">
        <instrumenttrack mixch="6" pitch="0" range_import="1" lastkey="127" enablecc="0" enabled="0" pan="0" basenote="69" keymap="0" vol="57.7" firstkey="0" usemasterpitch="1" scale="0" pitchrange="1">
          <midicontrollers cc25="0" cc107="0" cc22="0" cc108="0" cc92="0" cc52="0" cc71="0" cc113="0" cc54="0" cc99="0" cc32="0" cc67="0" cc60="0" cc102="0" cc0="0" cc117="0" cc125="0" cc7="0" cc74="0" cc18="0" cc45="0" cc56="0" cc30="0" cc15="0" cc72="0" cc94="0" cc78="0" cc116="0" cc118="0" cc121="0" cc4="0" cc89="0" cc96="0" cc79="0" cc35="0" cc12="0" cc127="0" cc9="0" cc40="0" cc90="0" cc23="0" cc77="0" cc101="0" cc66="0" cc76="0" cc51="0" cc47="0" cc44="0" cc84="0" cc110="0" cc61="0" cc91="0" cc28="0" cc16="0" cc10="0" cc20="0" cc19="0" cc97="0" cc98="0" cc13="0" cc69="0" cc95="0" cc112="0" cc31="0" cc49="0" cc24="0" cc120="0" cc103="0" cc65="0" cc34="0" cc63="0" cc115="0" cc73="0" cc11="0" cc26="0" cc42="0" cc100="0" cc33="0" cc6="0" cc70="0" cc75="0" cc14="0" cc87="0" cc41="0" cc43="0" cc38="0" cc104="0" cc48="0" cc55="0" cc86="0" cc119="0" cc106="0" cc83="0" cc82="0" cc53="0" cc17="0" cc8="0" cc68="0" cc2="0" cc1="0" cc64="0" cc81="0" cc50="0" cc3="0" cc5="0" cc93="0" cc109="0" cc46="0" cc36="0" cc80="0" cc58="0" cc126="0" cc124="0" cc37="0" cc88="0" cc57="0" cc39="0" cc123="0" cc59="0" cc122="0" cc62="0" cc111="0" cc21="0" cc114="0" cc27="0" cc85="0" cc105="0" cc29="0"/>
          <instrument name="tripleoscillator">
            <tripleoscillator userwavefile0="" finer1="0" userwavefile1="" useWaveTable2="0" stphdetun2="0" pan1="0" modalgo1="2" userwavefile2="" finer0="-26" vol0="33" modalgo3="2" pan0="0" stphdetun1="0" phoffset2="0" vol2="0" coarse2="-24" modalgo2="2" useWaveTable1="0" finel0="-35" vol1="0" finel1="24" stphdetun0="0" coarse1="-12" finel2="0" phoffset1="0" wavetype1="0" pan2="0" wavetype2="0" coarse0="0" useWaveTable3="0" wavetype0="2" finer2="0" phoffset0="0">
              <key/>
            </tripleoscillator>
          </instrument>
          <eldata fcut="14000" fwet="0" fres="0.5" ftype="0">
            <elvol pdel="0" amt="1" ctlenvamt="0" lpdel="0" rel="0.1" hold="0" latt="0" lshp="0" lspd="0.1" dec="0.5" userwavefile="" lspd_numerator="4" x100="0" sustain="0.5" lspd_denominator="4" lspd_syncmode="0" lamt="0" att="0"/>
            <elcut pdel="0" amt="0" ctlenvamt="0" lpdel="0" rel="0.1" hold="0.5" latt="0" lshp="0" lspd="0.1" dec="0.5" userwavefile="" lspd_numerator="4" x100="0" sustain="0.5" lspd_denominator="4" lspd_syncmode="0" lamt="0" att="0"/>
            <elres pdel="0" amt="0" ctlenvamt="0" lpdel="0" rel="0.1" hold="0.5" latt="0" lshp="0" lspd="0.1" dec="0.5" userwavefile="" lspd_numerator="4" x100="0" sustain="0.5" lspd_denominator="4" lspd_syncmode="0" lamt="0" att="0"/>
          </eldata>
          <chordcreator chord="0" chordrange="1" chord-enabled="0"/>
          <arpeggiator arptime_denominator="4" arp-enabled="0" arptime_numerator="4" arprepeats="1" arpgate="100" arpskip="0" arptime="100" arpdir="0" arpcycle="0" arptime_syncmode="0" arp="0" arprange="1" arpmiss="0" arpmode="0"/>
          <midiport writable="0" inputchannel="0" fixedinputvelocity="-1" readable="0" inputcontroller="0" fixedoutputnote="-1" outputcontroller="0" fixedoutputvelocity="-1" outputchannel="1" outputprogram="1" basevelocity="63"/>
          <fxchain numofeffects="0" enabled="1"/>
        </instrumenttrack>
        <midiclip muted="0" name="" pos="2688" type="1" steps="16">
          <note key="52" pan="0" pos="0" vol="100" len="12"/>
          <note key="53" pan="0" pos="24" vol="100" len="12"/>
          <note key="54" pan="0" pos="48" vol="100" len="24"/>
          <note key="54" pan="0" pos="96" vol="100" len="24"/>
          <note key="54" pan="0" pos="144" vol="100" len="24"/>
          <note key="49" pan="0" pos="180" vol="100" len="12"/>
          <note key="52" pan="0" pos="192" vol="100" len="12"/>
          <note key="53" pan="0" pos="216" vol="100" len="12"/>
          <note key="54" pan="0" pos="240" vol="100" len="24"/>
          <note key="54" pan="0" pos="288" vol="100" len="24"/>
          <note key="54" pan="0" pos="336" vol="100" len="24"/>
          <note key="49" pan="0" pos="372" vol="100" len="12"/>
        </midiclip>
        <midiclip muted="0" name="" pos="2304" type="1" steps="16">
          <note key="52" pan="0" pos="0" vol="100" len="12"/>
          <note key="53" pan="0" pos="24" vol="100" len="12"/>
          <note key="54" pan="0" pos="48" vol="100" len="24"/>
          <note key="54" pan="0" pos="96" vol="100" len="24"/>
          <note key="54" pan="0" pos="144" vol="100" len="24"/>
          <note key="49" pan="0" pos="180" vol="100" len="12"/>
          <note key="52" pan="0" pos="192" vol="100" len="12"/>
          <note key="53" pan="0" pos="216" vol="100" len="12"/>
          <note key="54" pan="0" pos="240" vol="100" len="24"/>
          <note key="54" pan="0" pos="288" vol="100" len="24"/>
          <note key="54" pan="0" pos="336" vol="100" len="24"/>
          <note key="49" pan="0" pos="372" vol="100" len="12"/>
        </midiclip>
        <midiclip muted="0" name="" pos="3072" type="1" steps="16">
          <note key="52" pan="0" pos="0" vol="100" len="12"/>
          <note key="53" pan="0" pos="24" vol="100" len="12"/>
          <note key="54" pan="0" pos="48" vol="100" len="24"/>
          <note key="54" pan="0" pos="96" vol="100" len="24"/>
          <note key="54" pan="0" pos="144" vol="100" len="24"/>
          <note key="49" pan="0" pos="180" vol="100" len="12"/>
          <note key="52" pan="0" pos="192" vol="100" len="12"/>
          <note key="53" pan="0" pos="216" vol="100" len="12"/>
          <note key="54" pan="0" pos="240" vol="100" len="24"/>
          <note key="54" pan="0" pos="288" vol="100" len="24"/>
          <note key="54" pan="0" pos="336" vol="100" len="24"/>
          <note key="49" pan="0" pos="372" vol="100" len="12"/>
        </midiclip>
        <midiclip muted="0" name="" pos="3456" type="1" steps="16">
          <note key="52" pan="0" pos="0" vol="100" len="12"/>
          <note key="53" pan="0" pos="24" vol="100" len="12"/>
          <note key="54" pan="0" pos="48" vol="100" len="24"/>
          <note key="54" pan="0" pos="96" vol="100" len="24"/>
          <note key="54" pan="0" pos="144" vol="100" len="24"/>
          <note key="49" pan="0" pos="180" vol="100" len="12"/>
          <note key="52" pan="0" pos="192" vol="100" len="12"/>
          <note key="53" pan="0" pos="216" vol="100" len="12"/>
          <note key="54" pan="0" pos="240" vol="100" len="24"/>
          <note key="54" pan="0" pos="288" vol="100" len="24"/>
          <note key="54" pan="0" pos="336" vol="100" len="24"/>
          <note key="49" pan="0" pos="372" vol="100" len="12"/>
        </midiclip>
        <midiclip muted="0" name="" pos="3840" type="1" steps="16">
          <note key="52" pan="0" pos="0" vol="100" len="12"/>
          <note key="53" pan="0" pos="24" vol="100" len="12"/>
          <note key="54" pan="0" pos="48" vol="100" len="24"/>
          <note key="54" pan="0" pos="96" vol="100" len="24"/>
          <note key="54" pan="0" pos="144" vol="100" len="24"/>
          <note key="49" pan="0" pos="180" vol="100" len="12"/>
          <note key="52" pan="0" pos="192" vol="100" len="12"/>
          <note key="53" pan="0" pos="216" vol="100" len="12"/>
          <note key="54" pan="0" pos="240" vol="100" len="24"/>
          <note key="54" pan="0" pos="288" vol="100" len="24"/>
          <note key="54" pan="0" pos="336" vol="100" len="24"/>
          <note key="49" pan="0" pos="372" vol="100" len="12"/>
        </midiclip>
        <midiclip muted="0" name="" pos="4224" type="1" steps="16">
          <note key="52" pan="0" pos="0" vol="100" len="12"/>
          <note key="53" pan="0" pos="24" vol="100" len="12"/>
          <note key="54" pan="0" pos="48" vol="100" len="24"/>
          <note key="54" pan="0" pos="96" vol="100" len="24"/>
          <note key="54" pan="0" pos="144" vol="100" len="24"/>
          <note key="49" pan="0" pos="180" vol="100" len="12"/>
          <note key="52" pan="0" pos="192" vol="100" len="12"/>
          <note key="53" pan="0" pos="216" vol="100" len="12"/>
          <note key="54" pan="0" pos="240" vol="100" len="24"/>
          <note key="54" pan="0" pos="288" vol="100" len="24"/>
          <note key="54" pan="0" pos="336" vol="100" len="24"/>
          <note key="49" pan="0" pos="372" vol="100" len="12"/>
        </midiclip>
        <midiclip muted="0" name="" pos="4608" type="1" steps="16">
          <note key="52" pan="0" pos="0" vol="100" len="12"/>
          <note key="53" pan="0" pos="24" vol="100" len="12"/>
          <note key="54" pan="0" pos="48" vol="100" len="24"/>
          <note key="54" pan="0" pos="96" vol="100" len="24"/>
          <note key="54" pan="0" pos="144" vol="100" len="24"/>
          <note key="49" pan="0" pos="180" vol="100" len="12"/>
          <note key="52" pan="0" pos="192" vol="100" len="12"/>
          <note key="53" pan="0" pos="216" vol="100" len="12"/>
          <note key="54" pan="0" pos="240" vol="100" len="24"/>
          <note key="54" pan="0" pos="288" vol="100" len="24"/>
          <note key="54" pan="0" pos="336" vol="100" len="24"/>
          <note key="49" pan="0" pos="372" vol="100" len="12"/>
        </midiclip>
        <midiclip muted="0" name="" pos="4992" type="1" steps="16">
          <note key="52" pan="0" pos="0" vol="100" len="12"/>
          <note key="53" pan="0" pos="24" vol="100" len="12"/>
          <note key="54" pan="0" pos="48" vol="100" len="24"/>
          <note key="54" pan="0" pos="96" vol="100" len="24"/>
          <note key="54" pan="0" pos="144" vol="100" len="24"/>
          <note key="49" pan="0" pos="180" vol="100" len="12"/>
          <note key="52" pan="0" pos="192" vol="100" len="12"/>
          <note key="53" pan="0" pos="216" vol="100" len="12"/>
          <note key="54" pan="0" pos="240" vol="100" len="24"/>
          <note key="54" pan="0" pos="288" vol="100" len="24"/>
          <note key="54" pan="0" pos="336" vol="100" len="24"/>
          <note key="49" pan="0" pos="372" vol="100" len="12"/>
        </midiclip>
        <midiclip muted="0" name="" pos="5376" type="1" steps="16">
          <note key="52" pan="0" pos="0" vol="100" len="12"/>
          <note key="53" pan="0" pos="24" vol="100" len="12"/>
          <note key="54" pan="0" pos="48" vol="100" len="24"/>
          <note key="54" pan="0" pos="96" vol="100" len="24"/>
          <note key="54" pan="0" pos="144" vol="100" len="24"/>
          <note key="49" pan="0" pos="180" vol="100" len="12"/>
          <note key="52" pan="0" pos="192" vol="100" len="12"/>
          <note key="53" pan="0" pos="216" vol="100" len="12"/>
          <note key="54" pan="0" pos="240" vol="100" len="24"/>
          <note key="54" pan="0" pos="288" vol="100" len="24"/>
          <note key="54" pan="0" pos="336" vol="100" len="24"/>
          <note key="49" pan="0" pos="372" vol="100" len="12"/>
        </midiclip>
        <midiclip muted="0" name="" pos="5760" type="1" steps="16">
          <note key="52" pan="0" pos="0" vol="100" len="12"/>
          <note key="53" pan="0" pos="24" vol="100" len="12"/>
          <note key="54" pan="0" pos="48" vol="100" len="24"/>
          <note key="54" pan="0" pos="96" vol="100" len="24"/>
          <note key="54" pan="0" pos="144" vol="100" len="24"/>
          <note key="49" pan="0" pos="180" vol="100" len="12"/>
          <note key="52" pan="0" pos="192" vol="100" len="12"/>
          <note key="53" pan="0" pos="216" vol="100" len="12"/>
          <note key="54" pan="0" pos="240" vol="100" len="24"/>
          <note key="54" pan="0" pos="288" vol="100" len="24"/>
          <note key="54" pan="0" pos="336" vol="100" len="24"/>
          <note key="49" pan="0" pos="372" vol="100" len="12"/>
        </midiclip>
        <midiclip muted="0" name="" pos="6144" type="1" steps="16">
          <note key="52" pan="0" pos="0" vol="100" len="12"/>
          <note key="53" pan="0" pos="24" vol="100" len="12"/>
          <note key="54" pan="0" pos="48" vol="100" len="24"/>
          <note key="54" pan="0" pos="96" vol="100" len="24"/>
          <note key="54" pan="0" pos="144" vol="100" len="24"/>
          <note key="49" pan="0" pos="180" vol="100" len="12"/>
          <note key="52" pan="0" pos="192" vol="100" len="12"/>
          <note key="53" pan="0" pos="216" vol="100" len="12"/>
          <note key="54" pan="0" pos="240" vol="100" len="24"/>
          <note key="54" pan="0" pos="288" vol="100" len="24"/>
          <note key="54" pan="0" pos="336" vol="100" len="24"/>
          <note key="49" pan="0" pos="372" vol="100" len="12"/>
        </midiclip>
        <midiclip muted="0" name="" pos="6528" type="1" steps="16">
          <note key="52" pan="0" pos="0" vol="100" len="12"/>
          <note key="53" pan="0" pos="24" vol="100" len="12"/>
          <note key="54" pan="0" pos="48" vol="100" len="24"/>
          <note key="54" pan="0" pos="96" vol="100" len="24"/>
          <note key="54" pan="0" pos="144" vol="100" len="24"/>
          <note key="45" pan="0" pos="180" vol="100" len="12"/>
          <note key="50" pan="0" pos="192" vol="100" len="12"/>
          <note key="51" pan="0" pos="216" vol="100" len="12"/>
          <note key="52" pan="0" pos="240" vol="100" len="24"/>
          <note key="52" pan="0" pos="288" vol="100" len="24"/>
          <note key="52" pan="0" pos="336" vol="100" len="24"/>
          <note key="45" pan="0" pos="372" vol="100" len="12"/>
        </midiclip>
        <midiclip muted="0" name="" pos="6912" type="1" steps="16">
          <note key="52" pan="0" pos="0" vol="100" len="12"/>
          <note key="53" pan="0" pos="24" vol="100" len="12"/>
          <note key="54" pan="0" pos="48" vol="100" len="24"/>
          <note key="54" pan="0" pos="96" vol="100" len="24"/>
          <note key="54" pan="0" pos="144" vol="100" len="24"/>
          <note key="49" pan="0" pos="180" vol="100" len="12"/>
          <note key="52" pan="0" pos="192" vol="100" len="12"/>
          <note key="53" pan="0" pos="216" vol="100" len="12"/>
          <note key="54" pan="0" pos="240" vol="100" len="24"/>
          <note key="54" pan="0" pos="288" vol="100" len="24"/>
          <note key="54" pan="0" pos="336" vol="100" len="24"/>
          <note key="49" pan="0" pos="372" vol="100" len="12"/>
        </midiclip>
        <midiclip muted="0" name="" pos="7296" type="1" steps="16">
          <note key="52" pan="0" pos="0" vol="100" len="12"/>
          <note key="53" pan="0" pos="24" vol="100" len="12"/>
          <note key="54" pan="0" pos="48" vol="100" len="24"/>
          <note key="54" pan="0" pos="96" vol="100" len="24"/>
          <note key="54" pan="0" pos="144" vol="100" len="24"/>
          <note key="49" pan="0" pos="180" vol="100" len="12"/>
          <note key="52" pan="0" pos="192" vol="100" len="12"/>
          <note key="53" pan="0" pos="216" vol="100" len="12"/>
          <note key="54" pan="0" pos="240" vol="100" len="24"/>
          <note key="54" pan="0" pos="288" vol="100" len="24"/>
          <note key="54" pan="0" pos="336" vol="100" len="24"/>
          <note key="49" pan="0" pos="372" vol="100" len="12"/>
        </midiclip>
        <midiclip muted="1" name="" pos="9984" type="1" steps="16">
          <note key="83" pan="0" pos="0" vol="100" len="24"/>
          <note key="81" pan="0" pos="24" vol="100" len="24"/>
          <note key="83" pan="0" pos="48" vol="100" len="24"/>
          <note key="81" pan="0" pos="72" vol="100" len="24"/>
          <note key="83" pan="0" pos="96" vol="100" len="24"/>
          <note key="81" pan="0" pos="120" vol="100" len="24"/>
          <note key="78" pan="0" pos="144" vol="100" len="24"/>
          <note key="83" pan="0" pos="192" vol="100" len="24"/>
          <note key="81" pan="0" pos="216" vol="100" len="24"/>
          <note key="83" pan="0" pos="240" vol="100" len="24"/>
          <note key="81" pan="0" pos="264" vol="100" len="24"/>
          <note key="83" pan="0" pos="288" vol="100" len="24"/>
          <note key="81" pan="0" pos="312" vol="100" len="24"/>
          <note key="78" pan="0" pos="336" vol="100" len="24"/>
          <note key="83" pan="0" pos="384" vol="100" len="24"/>
          <note key="85" pan="0" pos="408" vol="100" len="24"/>
          <note key="83" pan="0" pos="432" vol="100" len="24"/>
          <note key="81" pan="0" pos="456" vol="100" len="24"/>
          <note key="78" pan="0" pos="480" vol="100" len="24"/>
          <note key="81" pan="0" pos="528" vol="100" len="24"/>
          <note key="80" pan="0" pos="576" vol="100" len="24"/>
          <note key="76" pan="0" pos="624" vol="100" len="24"/>
          <note key="80" pan="0" pos="672" vol="100" len="24"/>
        </midiclip>
        <midiclip muted="1" name="" pos="10752" type="1" steps="16">
          <note key="83" pan="0" pos="0" vol="100" len="24"/>
          <note key="81" pan="0" pos="24" vol="100" len="24"/>
          <note key="83" pan="0" pos="48" vol="100" len="24"/>
          <note key="81" pan="0" pos="72" vol="100" len="24"/>
          <note key="83" pan="0" pos="96" vol="100" len="24"/>
          <note key="81" pan="0" pos="120" vol="100" len="24"/>
          <note key="78" pan="0" pos="144" vol="100" len="24"/>
          <note key="83" pan="0" pos="192" vol="100" len="24"/>
          <note key="81" pan="0" pos="216" vol="100" len="24"/>
          <note key="83" pan="0" pos="240" vol="100" len="24"/>
          <note key="81" pan="0" pos="264" vol="100" len="24"/>
          <note key="83" pan="0" pos="288" vol="100" len="24"/>
          <note key="81" pan="0" pos="312" vol="100" len="24"/>
          <note key="78" pan="0" pos="336" vol="100" len="24"/>
          <note key="83" pan="0" pos="384" vol="100" len="24"/>
          <note key="85" pan="0" pos="408" vol="100" len="24"/>
          <note key="83" pan="0" pos="432" vol="100" len="24"/>
          <note key="81" pan="0" pos="456" vol="100" len="24"/>
          <note key="78" pan="0" pos="480" vol="100" len="24"/>
          <note key="81" pan="0" pos="528" vol="100" len="24"/>
          <note key="80" pan="0" pos="576" vol="100" len="24"/>
          <note key="76" pan="0" pos="624" vol="100" len="24"/>
          <note key="80" pan="0" pos="672" vol="100" len="24"/>
        </midiclip>
      </track>
      <track muted="0" name="Sample track" solo="0" mutedBeforeSolo="0" type="2">
        <sampletrack mixch="0" pan="0" vol="100">
          <fxchain numofeffects="0" enabled="0"/>
        </sampletrack>
        <sampleclip src="" muted="0" pos="6144" sample_rate="44100" off="0" len="192" data="AAAAAAAAAAA="/>
      </track>
      <track muted="0" name="Pattern 0" solo="0" mutedBeforeSolo="0" type="1">
        <patterntrack>
          <trackcontainer minimized="0" x="333" maximized="0" visible="1" height="400" y="71" width="700" type="patternstore">
            <track muted="0" name="Kicker" solo="0" mutedBeforeSolo="0" type="0">
              <instrumenttrack mixch="1" pitch="0" range_import="1" lastkey="127" enablecc="0" enabled="0" pan="0" basenote="69" keymap="0" vol="100" firstkey="0" usemasterpitch="1" scale="0" pitchrange="1">
                <midicontrollers cc25="0" cc107="0" cc22="0" cc108="0" cc92="0" cc52="0" cc71="0" cc113="0" cc54="0" cc99="0" cc32="0" cc67="0" cc60="0" cc102="0" cc0="0" cc117="0" cc125="0" cc7="0" cc74="0" cc18="0" cc45="0" cc56="0" cc30="0" cc15="0" cc72="0" cc94="0" cc78="0" cc116="0" cc118="0" cc121="0" cc4="0" cc89="0" cc96="0" cc79="0" cc35="0" cc12="0" cc127="0" cc9="0" cc40="0" cc90="0" cc23="0" cc77="0" cc101="0" cc66="0" cc76="0" cc51="0" cc47="0" cc44="0" cc84="0" cc110="0" cc61="0" cc91="0" cc28="0" cc16="0" cc10="0" cc20="0" cc19="0" cc97="0" cc98="0" cc13="0" cc69="0" cc95="0" cc112="0" cc31="0" cc49="0" cc24="0" cc120="0" cc103="0" cc65="0" cc34="0" cc63="0" cc115="0" cc73="0" cc11="0" cc26="0" cc42="0" cc100="0" cc33="0" cc6="0" cc70="0" cc75="0" cc14="0" cc87="0" cc41="0" cc43="0" cc38="0" cc104="0" cc48="0" cc55="0" cc86="0" cc119="0" cc106="0" cc83="0" cc82="0" cc53="0" cc17="0" cc8="0" cc68="0" cc2="0" cc1="0" cc64="0" cc81="0" cc50="0" cc3="0" cc5="0" cc93="0" cc109="0" cc46="0" cc36="0" cc80="0" cc58="0" cc126="0" cc124="0" cc37="0" cc88="0" cc57="0" cc39="0" cc123="0" cc59="0" cc122="0" cc62="0" cc111="0" cc21="0" cc114="0" cc27="0" cc85="0" cc105="0" cc29="0"/>
                <instrument name="kicker">
                  <kicker env="0.163" click="0.4" version="1" decay="440" dist="0.8" startnote="1" slope="0.06" noise="0" endnote="0" decay_denominator="4" endfreq="44" gain="1" decay_numerator="4" startfreq="150" decay_syncmode="0" distend="0.8">
                    <key/>
                  </kicker>
                </instrument>
                <eldata fcut="14000" fwet="0" fres="0.5" ftype="0">
                  <elvol pdel="0" amt="0" ctlenvamt="0" lpdel="0" rel="0.1" hold="0.5" latt="0" lshp="0" lspd="0.1" dec="0.5" userwavefile="" lspd_numerator="4" x100="0" sustain="0.5" lspd_denominator="4" lspd_syncmode="0" lamt="0" att="0"/>
                  <elcut pdel="0" amt="0" ctlenvamt="0" lpdel="0" rel="0.1" hold="0.5" latt="0" lshp="0" lspd="0.1" dec="0.5" userwavefile="" lspd_numerator="4" x100="0" sustain="0.5" lspd_denominator="4" lspd_syncmode="0" lamt="0" att="0"/>
                  <elres pdel="0" amt="0" ctlenvamt="0" lpdel="0" rel="0.1" hold="0.5" latt="0" lshp="0" lspd="0.1" dec="0.5" userwavefile="" lspd_numerator="4" x100="0" sustain="0.5" lspd_denominator="4" lspd_syncmode="0" lamt="0" att="0"/>
                </eldata>
                <chordcreator chord="0" chordrange="1" chord-enabled="0"/>
                <arpeggiator arptime_denominator="4" arp-enabled="0" arptime_numerator="4" arprepeats="1" arpgate="100" arpskip="0" arptime="100" arpdir="0" arpcycle="0" arptime_syncmode="0" arp="0" arprange="1" arpmiss="0" arpmode="0"/>
                <midiport writable="0" inputchannel="0" fixedinputvelocity="-1" readable="0" inputcontroller="0" fixedoutputnote="-1" outputcontroller="0" fixedoutputvelocity="-1" outputchannel="1" outputprogram="1" basevelocity="63"/>
                <fxchain numofeffects="1" enabled="1">
                  <effect autoquit_syncmode="0" autoquit="1" wet="1" name="peakcontrollereffect" autoquit_numerator="4" autoquit_denominator="4" gate="0" on="1">
                    <peakcontrollereffectcontrols amountmult="1" decay="0" treshold="0" base="0.5" mute="0" attack="0" abs="1" effectId="327603121" amount="-1"/>
                    <key/>
                  </effect>
                </fxchain>
              </instrumenttrack>
              <midiclip muted="0" name="" pos="0" type="0" steps="16">
                <note key="69" pan="0" pos="0" vol="100" len="-192"/>
                <note key="69" pan="0" pos="72" vol="100" len="-192"/>
                <note key="69" pan="0" pos="120" vol="100" len="-192"/>
              </midiclip>
              <midiclip muted="0" name="" pos="192" type="0" steps="16"/>
              <midiclip muted="0" name="" pos="384" type="0" steps="16">
                <note key="69" pan="0" pos="0" vol="100" len="-192"/>
                <note key="69" pan="0" pos="48" vol="100" len="-192"/>
                <note key="69" pan="0" pos="96" vol="100" len="-192"/>
                <note key="69" pan="0" pos="144" vol="100" len="-192"/>
              </midiclip>
              <midiclip muted="0" name="" pos="576" type="0" steps="16">
                <note key="69" pan="0" pos="168" vol="45" len="-192"/>
              </midiclip>
            </track>
            <track muted="0" name="S_hollow.ds" solo="0" mutedBeforeSolo="0" type="0">
              <instrumenttrack mixch="1" pitch="0" range_import="1" lastkey="127" enablecc="0" enabled="0" pan="0" basenote="69" keymap="0" vol="100" firstkey="0" usemasterpitch="1" scale="0" pitchrange="1">
                <midicontrollers cc25="0" cc107="0" cc22="0" cc108="0" cc92="0" cc52="0" cc71="0" cc113="0" cc54="0" cc99="0" cc32="0" cc67="0" cc60="0" cc102="0" cc0="0" cc117="0" cc125="0" cc7="0" cc74="0" cc18="0" cc45="0" cc56="0" cc30="0" cc15="0" cc72="0" cc94="0" cc78="0" cc116="0" cc118="0" cc121="0" cc4="0" cc89="0" cc96="0" cc79="0" cc35="0" cc12="0" cc127="0" cc9="0" cc40="0" cc90="0" cc23="0" cc77="0" cc101="0" cc66="0" cc76="0" cc51="0" cc47="0" cc44="0" cc84="0" cc110="0" cc61="0" cc91="0" cc28="0" cc16="0" cc10="0" cc20="0" cc19="0" cc97="0" cc98="0" cc13="0" cc69="0" cc95="0" cc112="0" cc31="0" cc49="0" cc24="0" cc120="0" cc103="0" cc65="0" cc34="0" cc63="0" cc115="0" cc73="0" cc11="0" cc26="0" cc42="0" cc100="0" cc33="0" cc6="0" cc70="0" cc75="0" cc14="0" cc87="0" cc41="0" cc43="0" cc38="0" cc104="0" cc48="0" cc55="0" cc86="0" cc119="0" cc106="0" cc83="0" cc82="0" cc53="0" cc17="0" cc8="0" cc68="0" cc2="0" cc1="0" cc64="0" cc81="0" cc50="0" cc3="0" cc5="0" cc93="0" cc109="0" cc46="0" cc36="0" cc80="0" cc58="0" cc126="0" cc124="0" cc37="0" cc88="0" cc57="0" cc39="0" cc123="0" cc59="0" cc122="0" cc62="0" cc111="0" cc21="0" cc114="0" cc27="0" cc85="0" cc105="0" cc29="0"/>
                <instrument name="audiofileprocessor">
                  <audiofileprocessor src="factorysample:drumsynth/r_n_b/S_hollow.ds" amp="100" looped="0" interp="1" stutter="0" reversed="0" sframe="0" eframe="1" lframe="0">
                    <key/>
                  </audiofileprocessor>
                </instrument>
                <eldata fcut="14000" fwet="0" fres="0.5" ftype="0">
                  <elvol pdel="0" amt="0" ctlenvamt="0" lpdel="0" rel="0.1" hold="0.5" latt="0" lshp="0" lspd="0.1" dec="0.5" userwavefile="" lspd_numerator="4" x100="0" sustain="0.5" lspd_denominator="4" lspd_syncmode="0" lamt="0" att="0"/>
                  <elcut pdel="0" amt="0" ctlenvamt="0" lpdel="0" rel="0.1" hold="0.5" latt="0" lshp="0" lspd="0.1" dec="0.5" userwavefile="" lspd_numerator="4" x100="0" sustain="0.5" lspd_denominator="4" lspd_syncmode="0" lamt="0" att="0"/>
                  <elres pdel="0" amt="0" ctlenvamt="0" lpdel="0" rel="0.1" hold="0.5" latt="0" lshp="0" lspd="0.1" dec="0.5" userwavefile="" lspd_numerator="4" x100="0" sustain="0.5" lspd_denominator="4" lspd_syncmode="0" lamt="0" att="0"/>
                </eldata>
                <chordcreator chord="0" chordrange="1" chord-enabled="0"/>
                <arpeggiator arptime_denominator="4" arp-enabled="0" arptime_numerator="4" arprepeats="1" arpgate="100" arpskip="0" arptime="200" arpdir="0" arpcycle="0" arptime_syncmode="0" arp="0" arprange="1" arpmiss="0" arpmode="0"/>
                <midiport writable="0" inputchannel="0" fixedinputvelocity="-1" readable="0" inputcontroller="0" fixedoutputnote="-1" outputcontroller="0" fixedoutputvelocity="-1" outputchannel="1" outputprogram="1" basevelocity="63"/>
                <fxchain numofeffects="0" enabled="0"/>
              </instrumenttrack>
              <midiclip muted="0" name="" pos="0" type="0" steps="16">
                <note key="69" pan="0" pos="48" vol="100" len="-192"/>
                <note key="69" pan="0" pos="144" vol="100" len="-192"/>
              </midiclip>
              <midiclip muted="0" name="" pos="192" type="0" steps="16"/>
              <midiclip muted="0" name="" pos="384" type="0" steps="16"/>
              <midiclip muted="0" name="" pos="576" type="0" steps="16"/>
            </track>
            <track muted="0" name="k_soft.ds" solo="0" mutedBeforeSolo="0" type="0">
              <instrumenttrack mixch="1" pitch="0" range_import="1" lastkey="127" enablecc="0" enabled="0" pan="0" basenote="69" keymap="0" vol="100" firstkey="0" usemasterpitch="1" scale="0" pitchrange="1">
                <midicontrollers cc25="0" cc107="0" cc22="0" cc108="0" cc92="0" cc52="0" cc71="0" cc113="0" cc54="0" cc99="0" cc32="0" cc67="0" cc60="0" cc102="0" cc0="0" cc117="0" cc125="0" cc7="0" cc74="0" cc18="0" cc45="0" cc56="0" cc30="0" cc15="0" cc72="0" cc94="0" cc78="0" cc116="0" cc118="0" cc121="0" cc4="0" cc89="0" cc96="0" cc79="0" cc35="0" cc12="0" cc127="0" cc9="0" cc40="0" cc90="0" cc23="0" cc77="0" cc101="0" cc66="0" cc76="0" cc51="0" cc47="0" cc44="0" cc84="0" cc110="0" cc61="0" cc91="0" cc28="0" cc16="0" cc10="0" cc20="0" cc19="0" cc97="0" cc98="0" cc13="0" cc69="0" cc95="0" cc112="0" cc31="0" cc49="0" cc24="0" cc120="0" cc103="0" cc65="0" cc34="0" cc63="0" cc115="0" cc73="0" cc11="0" cc26="0" cc42="0" cc100="0" cc33="0" cc6="0" cc70="0" cc75="0" cc14="0" cc87="0" cc41="0" cc43="0" cc38="0" cc104="0" cc48="0" cc55="0" cc86="0" cc119="0" cc106="0" cc83="0" cc82="0" cc53="0" cc17="0" cc8="0" cc68="0" cc2="0" cc1="0" cc64="0" cc81="0" cc50="0" cc3="0" cc5="0" cc93="0" cc109="0" cc46="0" cc36="0" cc80="0" cc58="0" cc126="0" cc124="0" cc37="0" cc88="0" cc57="0" cc39="0" cc123="0" cc59="0" cc122="0" cc62="0" cc111="0" cc21="0" cc114="0" cc27="0" cc85="0" cc105="0" cc29="0"/>
                <instrument name="audiofileprocessor">
                  <audiofileprocessor src="factorysample:drumsynth/r_n_b/k_soft.ds" amp="100" looped="0" interp="1" stutter="0" reversed="0" sframe="0" eframe="1" lframe="0">
                    <key/>
                  </audiofileprocessor>
                </instrument>
                <eldata fcut="14000" fwet="0" fres="0.5" ftype="0">
                  <elvol pdel="0" amt="0" ctlenvamt="0" lpdel="0" rel="0.1" hold="0.5" latt="0" lshp="0" lspd="0.1" dec="0.5" userwavefile="" lspd_numerator="4" x100="0" sustain="0.5" lspd_denominator="4" lspd_syncmode="0" lamt="0" att="0"/>
                  <elcut pdel="0" amt="0" ctlenvamt="0" lpdel="0" rel="0.1" hold="0.5" latt="0" lshp="0" lspd="0.1" dec="0.5" userwavefile="" lspd_numerator="4" x100="0" sustain="0.5" lspd_denominator="4" lspd_syncmode="0" lamt="0" att="0"/>
                  <elres pdel="0" amt="0" ctlenvamt="0" lpdel="0" rel="0.1" hold="0.5" latt="0" lshp="0" lspd="0.1" dec="0.5" userwavefile="" lspd_numerator="4" x100="0" sustain="0.5" lspd_denominator="4" lspd_syncmode="0" lamt="0" att="0"/>
                </eldata>
                <chordcreator chord="0" chordrange="1" chord-enabled="0"/>
                <arpeggiator arptime_denominator="4" arp-enabled="0" arptime_numerator="4" arprepeats="1" arpgate="100" arpskip="0" arptime="200" arpdir="0" arpcycle="0" arptime_syncmode="0" arp="0" arprange="1" arpmiss="0" arpmode="0"/>
                <midiport writable="0" inputchannel="0" fixedinputvelocity="-1" readable="0" inputcontroller="0" fixedoutputnote="-1" outputcontroller="0" fixedoutputvelocity="-1" outputchannel="1" outputprogram="1" basevelocity="63"/>
                <fxchain numofeffects="0" enabled="0"/>
              </instrumenttrack>
              <midiclip muted="0" name="" pos="0" type="0" steps="16">
                <note key="69" pan="0" pos="0" vol="100" len="-192"/>
                <note key="69" pan="0" pos="72" vol="100" len="-192"/>
                <note key="69" pan="0" pos="120" vol="100" len="-192"/>
              </midiclip>
              <midiclip muted="0" name="" pos="192" type="0" steps="16"/>
              <midiclip muted="0" name="" pos="384" type="0" steps="16"/>
              <midiclip muted="0" name="" pos="576" type="0" steps="16"/>
            </track>
            <track muted="0" name="hat_rattle.ds" solo="0" mutedBeforeSolo="0" type="0">
              <instrumenttrack mixch="1" pitch="0" range_import="1" lastkey="127" enablecc="0" enabled="0" pan="0" basenote="69" keymap="0" vol="41.6" firstkey="0" usemasterpitch="1" scale="0" pitchrange="1">
                <midicontrollers cc25="0" cc107="0" cc22="0" cc108="0" cc92="0" cc52="0" cc71="0" cc113="0" cc54="0" cc99="0" cc32="0" cc67="0" cc60="0" cc102="0" cc0="0" cc117="0" cc125="0" cc7="0" cc74="0" cc18="0" cc45="0" cc56="0" cc30="0" cc15="0" cc72="0" cc94="0" cc78="0" cc116="0" cc118="0" cc121="0" cc4="0" cc89="0" cc96="0" cc79="0" cc35="0" cc12="0" cc127="0" cc9="0" cc40="0" cc90="0" cc23="0" cc77="0" cc101="0" cc66="0" cc76="0" cc51="0" cc47="0" cc44="0" cc84="0" cc110="0" cc61="0" cc91="0" cc28="0" cc16="0" cc10="0" cc20="0" cc19="0" cc97="0" cc98="0" cc13="0" cc69="0" cc95="0" cc112="0" cc31="0" cc49="0" cc24="0" cc120="0" cc103="0" cc65="0" cc34="0" cc63="0" cc115="0" cc73="0" cc11="0" cc26="0" cc42="0" cc100="0" cc33="0" cc6="0" cc70="0" cc75="0" cc14="0" cc87="0" cc41="0" cc43="0" cc38="0" cc104="0" cc48="0" cc55="0" cc86="0" cc119="0" cc106="0" cc83="0" cc82="0" cc53="0" cc17="0" cc8="0" cc68="0" cc2="0" cc1="0" cc64="0" cc81="0" cc50="0" cc3="0" cc5="0" cc93="0" cc109="0" cc46="0" cc36="0" cc80="0" cc58="0" cc126="0" cc124="0" cc37="0" cc88="0" cc57="0" cc39="0" cc123="0" cc59="0" cc122="0" cc62="0" cc111="0" cc21="0" cc114="0" cc27="0" cc85="0" cc105="0" cc29="0"/>
                <instrument name="audiofileprocessor">
                  <audiofileprocessor src="factorysample:drumsynth/r_n_b/hat_rattle.ds" amp="100" looped="0" interp="1" stutter="0" reversed="0" sframe="0" eframe="1" lframe="0">
                    <key/>
                  </audiofileprocessor>
                </instrument>
                <eldata fcut="14000" fwet="0" fres="0.5" ftype="0">
                  <elvol pdel="0" amt="0" ctlenvamt="0" lpdel="0" rel="0.1" hold="0.5" latt="0" lshp="0" lspd="0.1" dec="0.5" userwavefile="" lspd_numerator="4" x100="0" sustain="0.5" lspd_denominator="4" lspd_syncmode="0" lamt="0" att="0"/>
                  <elcut pdel="0" amt="0" ctlenvamt="0" lpdel="0" rel="0.1" hold="0.5" latt="0" lshp="0" lspd="0.1" dec="0.5" userwavefile="" lspd_numerator="4" x100="0" sustain="0.5" lspd_denominator="4" lspd_syncmode="0" lamt="0" att="0"/>
                  <elres pdel="0" amt="0" ctlenvamt="0" lpdel="0" rel="0.1" hold="0.5" latt="0" lshp="0" lspd="0.1" dec="0.5" userwavefile="" lspd_numerator="4" x100="0" sustain="0.5" lspd_denominator="4" lspd_syncmode="0" lamt="0" att="0"/>
                </eldata>
                <chordcreator chord="0" chordrange="1" chord-enabled="0"/>
                <arpeggiator arptime_denominator="4" arp-enabled="0" arptime_numerator="4" arprepeats="1" arpgate="100" arpskip="0" arptime="200" arpdir="0" arpcycle="0" arptime_syncmode="0" arp="0" arprange="1" arpmiss="0" arpmode="0"/>
                <midiport writable="0" inputchannel="0" fixedinputvelocity="-1" readable="0" inputcontroller="0" fixedoutputnote="-1" outputcontroller="0" fixedoutputvelocity="-1" outputchannel="1" outputprogram="1" basevelocity="63"/>
                <fxchain numofeffects="0" enabled="0"/>
              </instrumenttrack>
              <midiclip muted="0" name="" pos="0" type="0" steps="16">
                <note key="69" pan="0" pos="24" vol="100" len="-192"/>
              </midiclip>
              <midiclip muted="0" name="" pos="192" type="0" steps="16"/>
              <midiclip muted="0" name="" pos="384" type="0" steps="16"/>
              <midiclip muted="0" name="" pos="576" type="0" steps="16"/>
            </track>
            <track muted="0" name="hat.ds" solo="0" mutedBeforeSolo="0" type="0">
              <instrumenttrack mixch="1" pitch="0" range_import="1" lastkey="127" enablecc="0" enabled="0" pan="0" basenote="69" keymap="0" vol="23.9" firstkey="0" usemasterpitch="1" scale="0" pitchrange="1">
                <midicontrollers cc25="0" cc107="0" cc22="0" cc108="0" cc92="0" cc52="0" cc71="0" cc113="0" cc54="0" cc99="0" cc32="0" cc67="0" cc60="0" cc102="0" cc0="0" cc117="0" cc125="0" cc7="0" cc74="0" cc18="0" cc45="0" cc56="0" cc30="0" cc15="0" cc72="0" cc94="0" cc78="0" cc116="0" cc118="0" cc121="0" cc4="0" cc89="0" cc96="0" cc79="0" cc35="0" cc12="0" cc127="0" cc9="0" cc40="0" cc90="0" cc23="0" cc77="0" cc101="0" cc66="0" cc76="0" cc51="0" cc47="0" cc44="0" cc84="0" cc110="0" cc61="0" cc91="0" cc28="0" cc16="0" cc10="0" cc20="0" cc19="0" cc97="0" cc98="0" cc13="0" cc69="0" cc95="0" cc112="0" cc31="0" cc49="0" cc24="0" cc120="0" cc103="0" cc65="0" cc34="0" cc63="0" cc115="0" cc73="0" cc11="0" cc26="0" cc42="0" cc100="0" cc33="0" cc6="0" cc70="0" cc75="0" cc14="0" cc87="0" cc41="0" cc43="0" cc38="0" cc104="0" cc48="0" cc55="0" cc86="0" cc119="0" cc106="0" cc83="0" cc82="0" cc53="0" cc17="0" cc8="0" cc68="0" cc2="0" cc1="0" cc64="0" cc81="0" cc50="0" cc3="0" cc5="0" cc93="0" cc109="0" cc46="0" cc36="0" cc80="0" cc58="0" cc126="0" cc124="0" cc37="0" cc88="0" cc57="0" cc39="0" cc123="0" cc59="0" cc122="0" cc62="0" cc111="0" cc21="0" cc114="0" cc27="0" cc85="0" cc105="0" cc29="0"/>
                <instrument name="audiofileprocessor">
                  <audiofileprocessor src="factorysample:drumsynth/r_n_b/hat.ds" amp="100" looped="0" interp="1" stutter="0" reversed="0" sframe="0" eframe="1" lframe="0">
                    <key/>
                  </audiofileprocessor>
                </instrument>
                <eldata fcut="14000" fwet="0" fres="0.5" ftype="0">
                  <elvol pdel="0" amt="0" ctlenvamt="0" lpdel="0" rel="0.1" hold="0.5" latt="0" lshp="0" lspd="0.1" dec="0.5" userwavefile="" lspd_numerator="4" x100="0" sustain="0.5" lspd_denominator="4" lspd_syncmode="0" lamt="0" att="0"/>
                  <elcut pdel="0" amt="0" ctlenvamt="0" lpdel="0" rel="0.1" hold="0.5" latt="0" lshp="0" lspd="0.1" dec="0.5" userwavefile="" lspd_numerator="4" x100="0" sustain="0.5" lspd_denominator="4" lspd_syncmode="0" lamt="0" att="0"/>
                  <elres pdel="0" amt="0" ctlenvamt="0" lpdel="0" rel="0.1" hold="0.5" latt="0" lshp="0" lspd="0.1" dec="0.5" userwavefile="" lspd_numerator="4" x100="0" sustain="0.5" lspd_denominator="4" lspd_syncmode="0" lamt="0" att="0"/>
                </eldata>
                <chordcreator chord="0" chordrange="1" chord-enabled="0"/>
                <arpeggiator arptime_denominator="4" arp-enabled="0" arptime_numerator="4" arprepeats="1" arpgate="100" arpskip="0" arptime="200" arpdir="0" arpcycle="0" arptime_syncmode="0" arp="0" arprange="1" arpmiss="0" arpmode="0"/>
                <midiport writable="0" inputchannel="0" fixedinputvelocity="-1" readable="0" inputcontroller="0" fixedoutputnote="-1" outputcontroller="0" fixedoutputvelocity="-1" outputchannel="1" outputprogram="1" basevelocity="63"/>
                <fxchain numofeffects="0" enabled="0"/>
              </instrumenttrack>
              <midiclip muted="0" name="" pos="0" type="0" steps="16">
                <note key="69" pan="0" pos="0" vol="100" len="-192"/>
                <note key="69" pan="0" pos="24" vol="100" len="-192"/>
                <note key="69" pan="0" pos="48" vol="100" len="-192"/>
                <note key="69" pan="0" pos="72" vol="100" len="-192"/>
                <note key="69" pan="0" pos="96" vol="100" len="-192"/>
                <note key="69" pan="0" pos="120" vol="100" len="-192"/>
                <note key="69" pan="0" pos="144" vol="100" len="-192"/>
                <note key="69" pan="0" pos="168" vol="100" len="-192"/>
              </midiclip>
              <midiclip muted="0" name="" pos="192" type="0" steps="16">
                <note key="69" pan="0" pos="144" vol="100" len="-192"/>
                <note key="69" pan="0" pos="156" vol="100" len="-192"/>
                <note key="69" pan="0" pos="168" vol="100" len="-192"/>
                <note key="69" pan="0" pos="180" vol="100" len="-192"/>
              </midiclip>
              <midiclip muted="0" name="" pos="384" type="0" steps="16"/>
              <midiclip muted="0" name="" pos="576" type="0" steps="16"/>
            </track>
          </trackcontainer>
        </patterntrack>
        <patternclip muted="0" name="" pos="2304" len="768"/>
        <patternclip muted="0" name="" pos="3072" len="768"/>
        <patternclip muted="0" name="" pos="3840" len="768"/>
        <patternclip muted="0" name="" pos="4608" len="768"/>
        <patternclip muted="0" name="" pos="5760" len="384"/>
        <patternclip muted="0" name="" pos="9984" len="768"/>
        <patternclip muted="0" name="" pos="10752" len="384"/>
      </track>
      <track muted="0" name="Pattern 1" solo="0" mutedBeforeSolo="0" type="1">
        <patterntrack/>
        <patternclip muted="0" name="" pos="2112" len="192"/>
        <patternclip muted="0" name="" pos="5568" len="192"/>
        <patternclip muted="0" name="" pos="9792" len="192"/>
      </track>
      <track muted="0" name="Automation track" solo="0" mutedBeforeSolo="0" type="5">
        <automationtrack/>
        <automationclip tens="1" prog="0" pos="3648" name="Drag a control while pressing &lt;Ctrl>" mute="0" len="192"/>
      </track>
      <track muted="0" name="Pattern 2" solo="0" mutedBeforeSolo="0" type="1">
        <patterntrack/>
        <patternclip muted="0" name="" pos="6912" len="768"/>
        <patternclip muted="0" name="" pos="11136" len="384"/>
      </track>
      <track muted="0" name="Pattern 3" solo="0" mutedBeforeSolo="1" type="1">
        <patterntrack/>
        <patternclip muted="0" name="" pos="11328" len="192"/>
      </track>
    </trackcontainer>
    <track muted="0" name="Automation track" solo="0" mutedBeforeSolo="0" type="6">
      <automationtrack/>
      <automationclip tens="1" prog="0" pos="0" name="Numerator" mute="0" len="192"/>
      <automationclip tens="1" prog="0" pos="0" name="Denominator" mute="0" len="192"/>
      <automationclip tens="1" prog="0" pos="0" name="Tempo" mute="0" len="192"/>
      <automationclip tens="1" prog="0" pos="0" name="Master volume" mute="0" len="192"/>
      <automationclip tens="1" prog="0" pos="0" name="Master pitch" mute="0" len="192"/>
    </track>
    <mixer minimized="0" x="37" maximized="0" visible="1" height="333" y="474" width="631">
      <mixerchannel soloed="0" muted="0" name="Master" volume="0.372" num="0">
        <fxchain numofeffects="0" enabled="0"/>
        <connection>
          <muted>
            <Midicontroller writable="0" inputchannel="1" fixedinputvelocity="-1" readable="1" inports="" name="MIDI ch1 ctrl37" inputcontroller="37" fixedoutputnote="-1" outputcontroller="0" fixedoutputvelocity="-1" outputchannel="1" outputprogram="1" type="2" basevelocity="127"/>
          </muted>
        </connection>
      </mixerchannel>
      <mixerchannel soloed="0" muted="0" name="S_hollow.ds" volume="1" num="1">
        <fxchain numofeffects="2" enabled="1">
          <effect autoquit_syncmode="0" autoquit="1" wet="1" name="ladspaeffect" autoquit_numerator="4" autoquit_denominator="4" gate="0" on="0">
            <ladspacontrols ports="4" link="1">
              <port01 link="1" data="6.3075"/>
              <port02 link="1" data="0.25375"/>
              <port11 data="6.3075"/>
              <port12 data="0.25375"/>
            </ladspacontrols>
            <key>
              <attribute name="file" value="caps"/>
              <attribute name="plugin" value="PreampIII"/>
            </key>
          </effect>
          <effect autoquit_syncmode="0" autoquit="1" wet="1" name="ladspaeffect" autoquit_numerator="4" autoquit_denominator="4" gate="0" on="1">
            <ladspacontrols ports="11">
              <port04 data="0"/>
              <port05 data="1"/>
              <port010 data="0.250732"/>
              <port011 data="2.09"/>
              <port012>
                <data scale_type="log" id="3991476" value="24.9999"/>
              </port012>
              <port013>
                <data scale_type="log" id="3205535" value="6.99996"/>
              </port013>
              <port014 data="2.28375"/>
              <port015 data="2.75"/>
              <port016 data="0"/>
              <port017 data="0"/>
              <port019 data="1"/>
            </ladspacontrols>
            <key>
              <attribute name="file" value="veal"/>
              <attribute name="plugin" value="Compressor"/>
            </key>
          </effect>
        </fxchain>
        <send channel="0" amount="1"/>
      </mixerchannel>
      <mixerchannel soloed="0" muted="0" name="reverb :(" volume="1" num="2">
        <fxchain numofeffects="3" enabled="1">
          <effect autoquit_syncmode="0" autoquit="1" wet="1" name="eq" autoquit_numerator="4" autoquit_denominator="4" gate="0" on="1">
            <Eq LP="0" LP12="1" LP48="0" HP="0" AnalyseIn="1" Outputgain="0" Peak2gain="0" HPactive="1" LPactive="0" HP24="0" Peak3gain="0" LowShelfres="1.4" Peak1bw="0.3" Peak2active="0" Highshelfactive="0" HP12="1" LPres="0.707" HighShelfres="1.4" Peak4active="0" Peak2bw="0.3" HP48="0" Lowshelfactive="0" Peak3bw="0.3" LP24="0" Peak3active="0" Lowshelfgain="0" HPres="0.707" Peak4gain="0" AnalyseOut="1" HighShelfgain="0" Peak1active="0" Peak4bw="0.3">
              <Inputgain scale_type="log" id="7242114" value="0"/>
              <Peak1gain scale_type="log" id="5048110" value="0"/>
              <HPfreq scale_type="log" id="6931984" value="67.8206"/>
              <LowShelffreq scale_type="log" id="6554523" value="80"/>
              <Peak1freq scale_type="log" id="475365" value="120"/>
              <Peak2freq scale_type="log" id="5978926" value="250"/>
              <Peak3freq scale_type="log" id="6096692" value="2000"/>
              <Peak4freq scale_type="log" id="5225467" value="4000"/>
              <Highshelffreq scale_type="log" id="2364163" value="12000"/>
              <LPfreq scale_type="log" id="541664" value="18000"/>
            </Eq>
            <key/>
          </effect>
          <effect autoquit_syncmode="0" autoquit="1" wet="1" name="reverbsc" autoquit_numerator="4" autoquit_denominator="4" gate="0" on="1">
            <ReverbSCControls input_gain="0" size="0.89" color="10000" output_gain="0"/>
            <key/>
          </effect>
          <effect autoquit_syncmode="0" autoquit="1" wet="0.73" name="amplifier" autoquit_numerator="4" autoquit_denominator="4" gate="0" on="1">
            <AmplifierControls right="100" pan="0" volume="11" left="100"/>
            <key/>
          </effect>
        </fxchain>
        <send channel="0" amount="1"/>
      </mixerchannel>
      <mixerchannel soloed="0" muted="0" name="sawrif" volume="1" num="3">
        <fxchain numofeffects="0" enabled="0"/>
        <connection>
          <volume id="0"/>
        </connection>
        <send channel="0" amount="1"/>
        <send channel="2" amount="1"/>
      </mixerchannel>
      <mixerchannel soloed="0" muted="0" name="hat.ds" volume="1" num="4">
        <fxchain numofeffects="0" enabled="0"/>
        <send channel="0" amount="1"/>
      </mixerchannel>
      <mixerchannel soloed="0" muted="0" name="lead" volume="0.628" num="5">
        <fxchain numofeffects="0" enabled="0"/>
        <send channel="0" amount="1"/>
      </mixerchannel>
      <mixerchannel soloed="0" muted="0" name="higher" volume="1" num="6">
        <fxchain numofeffects="0" enabled="0"/>
        <send channel="0" amount="1"/>
        <send channel="2" amount="1"/>
      </mixerchannel>
    </mixer>
    <ControllerRackView minimized="0" x="680" maximized="0" visible="1" height="200" y="289" width="350"/>
    <pianoroll minimized="0" x="164" maximized="0" visible="1" height="480" y="77" width="970"/>
    <automationeditor minimized="0" x="1" maximized="0" visible="0" height="400" y="1" width="860"/>
    <projectnotes minimized="0" x="253" maximized="0" visible="1" height="400" y="561" width="759"><![CDATA[<!DOCTYPE HTML PUBLIC "-//W3C//DTD HTML 4.0//EN" "http://www.w3.org/TR/REC-html40/strict.dtd">
<html><head><meta name="qrichtext" content="1" /><style type="text/css">
p, li { white-space: pre-wrap; }
</style></head><body style=" font-family:'Sans Serif'; font-size:9pt; font-weight:400; font-style:normal;">
<p style=" margin-top:0px; margin-bottom:0px; margin-left:0px; margin-right:0px; -qt-block-indent:0; text-indent:0px;"><span style=" color:#e0e0e0;">4/8/20</span></p>
<p style=" margin-top:0px; margin-bottom:0px; margin-left:0px; margin-right:0px; -qt-block-indent:0; text-indent:0px;"><span style=" color:#e0e0e0;">pov: you're watching a spy movie</span></p>
<p style="-qt-paragraph-type:empty; margin-top:0px; margin-bottom:0px; margin-left:0px; margin-right:0px; -qt-block-indent:0; text-indent:0px; color:#e0e0e0;"><br /></p>
<p style="-qt-paragraph-type:empty; margin-top:0px; margin-bottom:0px; margin-left:0px; margin-right:0px; -qt-block-indent:0; text-indent:0px; color:#e0e0e0;"><br /></p>
<p style=" margin-top:0px; margin-bottom:0px; margin-left:0px; margin-right:0px; -qt-block-indent:0; text-indent:0px;"><span style=" color:#e0e0e0;">21/8/22</span></p>
<p style=" margin-top:0px; margin-bottom:0px; margin-left:0px; margin-right:0px; -qt-block-indent:0; text-indent:0px;"><span style=" color:#e0e0e0;">The master track is clipping a bit, which is strange because I don't remember any clipping last time I opened this project. LMMS version differences???</span></p>
<p style="-qt-paragraph-type:empty; margin-top:0px; margin-bottom:0px; margin-left:0px; margin-right:0px; -qt-block-indent:0; text-indent:0px; color:#e0e0e0;"><br /></p>
<p style=" margin-top:0px; margin-bottom:0px; margin-left:0px; margin-right:0px; -qt-block-indent:0; text-indent:0px;"><span style=" color:#e0e0e0;">once i add the bridge between the current ending and loop point, this song may be mildly tolerable</span></p></body></html>]]></projectnotes>
    <timeline lpstate="1" stopbehaviour="1" lp0pos="0" lp1pos="11520"/>
    <controllers>
      <Peakcontroller name="Controller 1" effectId="327603121" type="3"/>
    </controllers>
    <scales>
      <scale description="empty">
        <interval den="1" num="1"/>
      </scale>
      <scale description="empty">
        <interval den="1" num="1"/>
      </scale>
      <scale description="empty">
        <interval den="1" num="1"/>
      </scale>
      <scale description="empty">
        <interval den="1" num="1"/>
      </scale>
      <scale description="empty">
        <interval den="1" num="1"/>
      </scale>
      <scale description="empty">
        <interval den="1" num="1"/>
      </scale>
      <scale description="empty">
        <interval den="1" num="1"/>
      </scale>
      <scale description="empty">
        <interval den="1" num="1"/>
      </scale>
      <scale description="empty">
        <interval den="1" num="1"/>
      </scale>
      <scale description="empty">
        <interval den="1" num="1"/>
      </scale>
    </scales>
    <keymaps>
      <keymap first_key="0" base_freq="440" middle_key="60" base_key="69" description="empty" last_key="127"/>
      <keymap first_key="0" base_freq="440" middle_key="60" base_key="69" description="empty" last_key="127"/>
      <keymap first_key="0" base_freq="440" middle_key="60" base_key="69" description="empty" last_key="127"/>
      <keymap first_key="0" base_freq="440" middle_key="60" base_key="69" description="empty" last_key="127"/>
      <keymap first_key="0" base_freq="440" middle_key="60" base_key="69" description="empty" last_key="127"/>
      <keymap first_key="0" base_freq="440" middle_key="60" base_key="69" description="empty" last_key="127"/>
      <keymap first_key="0" base_freq="440" middle_key="60" base_key="69" description="empty" last_key="127"/>
      <keymap first_key="0" base_freq="440" middle_key="60" base_key="69" description="empty" last_key="127"/>
      <keymap first_key="0" base_freq="440" middle_key="60" base_key="69" description="empty" last_key="127"/>
      <keymap first_key="0" base_freq="440" middle_key="60" base_key="69" description="empty" last_key="127"/>
    </keymaps>
  </song>
</lmms-project>
